<?xml version="1.0" encoding="UTF-8"?>
<!DOCTYPE svg PUBLIC "-//W3C//DTD SVG 1.1//EN" "http://www.w3.org/Graphics/SVG/1.1/DTD/svg11.dtd">
<!-- Creator: CorelDRAW X7 -->
<svg xmlns="http://www.w3.org/2000/svg" xml:space="preserve" width="142px" height="72px" version="1.1" style="shape-rendering:geometricPrecision; text-rendering:geometricPrecision; image-rendering:optimizeQuality; fill-rule:evenodd; clip-rule:evenodd" viewBox="0 0 444038 223363" xmlns:xlink="http://www.w3.org/1999/xlink">
 <defs>
  <style type="text/css">
   <![CDATA[
    .fil1 {fill:none}
    .fil0 {fill:#FEFEFE;fill-rule:nonzero}
   ]]>
  </style>
 </defs>
 <g id="Слой_x0020_1">
  <metadata id="CorelCorpID_0Corel-Layer"/>
  <path class="fil0" d="M64627 66136c3692,-4620 6222,-10905 5522,-17285 -5349,236 -12035,3696 -15886,8217 -3409,3984 -6450,10508 -5666,16649 6008,445 12175,-3034 16030,-7581zm13526 40063c-122,-13622 11155,-20252 11674,-20561 -6391,-9311 -16291,-10585 -19770,-10684 -8309,-877 -16379,4970 -20613,4970 -4322,0 -10846,-4886 -17874,-4746 -9046,144 -17510,5379 -22149,13512 -9579,16585 -2437,40954 6741,54359 4591,6567 9955,13894 16976,13636 6870,-280 9436,-4377 17723,-4377 8218,0 10625,4377 17786,4208 7371,-111 12013,-6590 16442,-13213 5305,-7526 7433,-14937 7522,-15320 -170,-55 -14314,-5456 -14458,-21784z"/>
  <path class="fil0" d="M174743 112068l-4094 -12635c-427,-1289 -1240,-4330 -2437,-9116l-143 0c-483,2058 -1248,5095 -2298,9116l-4020 12635 12992 0zm255805 -924c52,-2309 -453,-4286 -1502,-5964 -1347,-2158 -3405,-3233 -6185,-3233 -2529,0 -4595,1049 -6163,3159 -1300,1679 -2065,3693 -2297,6030l16147 0 0 8zm7393 2006c0,1385 -92,2563 -284,3513l-23256 0c88,3445 1218,6089 3372,7908 1962,1619 4503,2429 7610,2429 3446,0 6586,-541 9410,-1642l1215 5383c-3299,1432 -7205,2150 -11700,2150 -5408,0 -9661,-1590 -12746,-4775 -3081,-3181 -4631,-7455 -4631,-12812 0,-5257 1432,-9638 4311,-13132 3015,-3733 7083,-5600 12204,-5600 5022,0 8833,1867 11413,5600 2055,2960 3082,6627 3082,10978zm-34673 -8975c-762,-140 -1587,-214 -2445,-214 -2724,0 -4830,1023 -6318,3089 -1284,1815 -1932,4120 -1932,6884l0 18313 -7754 0 0 -23909c0,-4016 -77,-7687 -224,-10978l6755 0 284 6675 213 0c814,-2298 2110,-4146 3877,-5530 1723,-1245 3597,-1863 5607,-1863 711,0 1362,40 1937,140l0 7393 0 0zm-33249 10514c0,-3192 -692,-5938 -2076,-8228 -1624,-2772 -3954,-4157 -6962,-4157 -3115,0 -5493,1385 -7109,4157 -1388,2290 -2081,5084 -2081,8372 0,3203 693,5953 2081,8239 1671,2769 4016,4153 7042,4153 2960,0 5284,-1417 6962,-4223 1433,-2345 2143,-5106 2143,-8313zm8044 -180c0,5364 -1535,9771 -4594,13209 -3207,3549 -7467,5313 -12779,5313 -5125,0 -9204,-1694 -12245,-5092 -3041,-3394 -4558,-7680 -4558,-12849 0,-5408 1568,-9837 4698,-13275 3140,-3450 7367,-5173 12679,-5173 5121,0 9237,1701 12345,5095 2971,3303 4454,7551 4454,12772zm-38480 -11343l-8541 0 0 16942c0,4312 1502,6465 4517,6465 1388,0 2541,-117 3450,-360l210 5890c-1528,567 -3535,854 -6027,854 -3063,0 -5460,-931 -7183,-2798 -1719,-1866 -2581,-4999 -2581,-9403l0 -17594 -5095 0 0 -5813 5095 0 0 -6391 7614 -2298 0 8689 8541 0 0 5817zm-25694 15514c0,4112 -1446,7466 -4307,10047 -3148,2824 -7547,4230 -13180,4230 -5202,0 -9381,-1001 -12529,-3008l1793 -6464c3395,2013 7132,3022 11200,3022 2923,0 5194,-663 6814,-1977 1628,-1318 2449,-3074 2449,-5268 0,-1970 -681,-3619 -2014,-4967 -1340,-1336 -3560,-2581 -6675,-3729 -8475,-3163 -12709,-7783 -12709,-13858 0,-3969 1495,-7223 4484,-9756 2990,-2540 6955,-3810 11881,-3810 4407,0 8074,762 10986,2297l-1948 6317c-2739,-1487 -5831,-2223 -9292,-2223 -2732,0 -4882,670 -6410,2006 -1296,1200 -1947,2658 -1947,4385 0,1914 743,3494 2223,4738 1293,1153 3641,2390 7036,3733 4167,1683 7230,3634 9189,5884 1962,2253 2956,5051 2956,8401zm-52772 -4028c0,-3398 -769,-6196 -2308,-8397 -1671,-2294 -3917,-3450 -6741,-3450 -1911,0 -3652,644 -5209,1903 -1554,1278 -2570,2938 -3052,5000 -232,953 -358,1738 -358,2360l0 5820c0,2537 788,4672 2335,6425 1549,1745 3574,2621 6070,2621 2920,0 5195,-1130 6815,-3372 1627,-2250 2448,-5217 2448,-8910zm7894 -279c0,5934 -1613,10625 -4834,14063 -2890,3067 -6476,4595 -10758,4595 -4624,0 -7945,-1642 -9970,-4944l0 18304 -7746 0 0 -37567c0,-3733 -99,-7547 -283,-11464l6811 0 434 5526 151 0c2577,-4164 6506,-6244 11770,-6244 4109,0 7548,1620 10305,4871 2739,3265 4120,7551 4120,12860zm-48027 279c0,-3398 -765,-6196 -2297,-8397 -1679,-2294 -3936,-3450 -6752,-3450 -1911,0 -3652,644 -5206,1903 -1554,1278 -2573,2938 -3048,5000 -240,953 -365,1738 -365,2360l0 5820c0,2537 788,4672 2342,6425 1557,1745 3575,2621 6063,2621 2916,0 5195,-1130 6822,-3372 1624,-2250 2441,-5217 2441,-8910zm7894 -279c0,5934 -1606,10625 -4834,14063 -2883,3067 -6476,4595 -10758,4595 -4620,0 -7945,-1642 -9962,-4944l0 18304 -7750 0 0 -37567c0,-3733 -103,-7547 -291,-11464l6822 0 427 5526 151 0c2585,-4164 6509,-6244 11774,-6244 4116,0 7547,1620 10294,4871 2753,3265 4127,7551 4127,12860zm-39990 17874l-8258 0 -4524 -14219 -15725 0 -4307 14219 -8037 0 15581 -48395 9623 0 15647 48395z"/>
  <rect class="fil1" width="444038" height="223363"/>
 </g>
</svg>