<?xml version="1.0" encoding="UTF-8"?>
<!DOCTYPE svg PUBLIC "-//W3C//DTD SVG 1.1//EN" "http://www.w3.org/Graphics/SVG/1.1/DTD/svg11.dtd">
<!-- Creator: CorelDRAW X7 -->
<svg xmlns="http://www.w3.org/2000/svg" xml:space="preserve" width="158px" height="72px" version="1.1" style="shape-rendering:geometricPrecision; text-rendering:geometricPrecision; image-rendering:optimizeQuality; fill-rule:evenodd; clip-rule:evenodd" viewBox="0 0 277871 126171" xmlns:xlink="http://www.w3.org/1999/xlink">
 <defs>
  <style type="text/css">
   <![CDATA[
    .fil1 {fill:none}
    .fil0 {fill:#FEFEFE}
   ]]>
  </style>
 </defs>
 <g id="Слой_x0020_1">
  <metadata id="CorelCorpID_0Corel-Layer"/>
  <path class="fil0" d="M3598 39301l0 47569c0,1533 609,2433 1522,3045l9165 -9103c314,-358 397,-530 761,-888l11671 -11669c1158,-1143 3754,-4242 5043,-5105 -561,-836 -10090,-10280 -11513,-11702l-11671 -11796c-725,-717 -2366,-2751 -3329,-3396 -847,568 -1649,1626 -1649,3045zm30317 23722l7992 8246c253,-135 507,-244 757,-387l8420 -4644c1878,-1019 2113,-1691 2113,-3469 0,-1451 -1090,-2119 -2022,-2672l-7576 -4348c-430,-238 -1150,-735 -1566,-845l-4090 4028c-1007,1005 -3176,3521 -4028,4091zm-26892 27272l2115 -1056c3144,-1687 7464,-4228 10487,-5750l8369 -4569c697,-389 1314,-788 2030,-1142 461,-227 640,-354 1060,-589 402,-224 697,-336 1079,-569l6320 -3448c489,-252 1764,-874 2028,-1269l-7640 -7707c-680,445 -7560,7449 -8820,8878 -264,301 -533,534 -824,826l-16204 16395zm25750 -28287c557,-372 1460,-1395 1998,-1934l3933 -3932c343,-344 705,-658 1009,-1022 216,-257 208,-303 451,-565 231,-248 289,-262 474,-539 -370,-100 -1647,-871 -2053,-1117l-6245 -3522c-707,-423 -1343,-701 -2050,-1123l-11430 -6329c-3839,-2150 -8019,-4155 -11837,-6176 168,630 5790,5981 6374,6565l14460 14716c985,973 4519,4381 4916,4978z"/>
  <path class="fil0" d="M112121 57884l-14117 -14 -18 4215c680,171 8410,-6 9978,63 -310,1258 -165,1900 -980,3508l-1387 1992c-1570,1689 -4569,2872 -7476,2870 -2754,-2 -5135,-963 -6805,-2321 -8742,-7104 -2894,-21316 7936,-20064 2980,345 4301,1368 6283,2953 366,-245 2749,-2789 2957,-3051 -430,-328 -534,-651 -1774,-1526 -3845,-2722 -9050,-3452 -13530,-1972 -1880,622 -3053,1369 -4427,2334 -2016,1414 -4671,4658 -5593,7921 -1177,4170 -804,7734 940,11321 1477,3041 3792,5289 6630,6886 6054,3406 15352,2032 19280,-4118 1781,-2784 2550,-6164 2263,-9553 -42,-475 -177,-1034 -160,-1444zm119832 16741l4035 0 0 -26184 -4035 0 0 26184zm-53575 0l4386 0 -31 -29807 -4382 -4 27 29811zm96091 -17926l0 -187 -4224 0c-118,513 -389,1062 -590,1568 -208,528 -389,927 -603,1462l-3016 7495c-108,268 -197,484 -295,738 -129,333 -104,458 -377,655 -139,-597 -3847,-9333 -4290,-10444 -185,-466 -486,-1029 -588,-1474l-4226 0 2119 4920c1443,3444 3398,8079 4931,11409 206,447 201,341 -38,813 -141,283 -220,522 -347,784 -247,510 -435,1019 -688,1564 -732,1566 -2165,5066 -2879,6414l4037 0c248,-518 458,-1082 697,-1650 235,-559 432,-1021 678,-1574 2287,-5141 4668,-10855 6908,-16084 110,-258 2575,-6162 2791,-6409zm-31818 12014c0,-287 285,-867 428,-1075 1177,-1728 3850,-1795 5705,-1491 565,93 2036,465 2036,971 0,2880 -3740,5270 -6387,4226 -1614,-637 -1782,-1367 -1782,-2631zm95 -6570c454,-856 799,-1528 1706,-1954 1006,-477 1670,-626 2980,-481 572,65 1013,252 1429,451 1158,552 1956,1776 1956,3392 -1108,-526 -3304,-1241 -6189,-784 -1776,283 -4184,1450 -5130,2885 -809,1227 -1158,2373 -990,3920 131,1210 243,1863 994,2949 422,613 1321,1389 1992,1759 1799,992 4374,1225 6239,641 2105,-660 2261,-1433 3084,-1984l0 1688 3943 0 0 -10136c0,-1684 -170,-3284 -933,-4602 -119,-204 -185,-408 -327,-614l-1312 -1401c-318,-248 -697,-572 -1032,-759 -2566,-1439 -6355,-1456 -8692,-227 -1914,1005 -2475,1918 -3378,3849 780,296 3105,1198 3660,1408zm-53851 2325c-446,-2924 2487,-5787 5236,-5787 1622,0 2924,1031 3446,2054 -277,246 -7767,3397 -8682,3733zm10294 3606c-179,246 -316,495 -920,1119 -324,335 -617,585 -1029,845 -1695,1066 -4278,1064 -5939,-90 -545,-378 -1429,-1354 -1695,-2106l13110 -5482c-135,-593 -901,-2321 -1202,-2810 -637,-1033 -897,-1416 -1658,-2194 -1110,-1131 -2938,-2319 -5068,-2485 -4232,-489 -7308,2007 -8732,4448 -1795,3078 -1866,7187 -227,10469 2306,4623 8701,6486 13393,3735 1237,-715 2687,-1994 3319,-3121 -699,-472 -2893,-1999 -3352,-2328zm-59692 -3585c0,-3038 2529,-5706 5549,-5706 3269,0 5531,2830 5531,5800l0 657c0,2683 -2460,5582 -5155,5582l-657 0c-2828,0 -5268,-2816 -5268,-5676l0 -657zm15443 281c0,-9375 -10926,-12939 -16917,-7119 -2469,2398 -3856,6907 -2113,11091 813,1951 1855,3092 3240,4178 2708,2123 7156,2475 10331,882 703,-354 2301,-1425 2775,-2011 1705,-2115 2684,-3877 2684,-7021zm-36948 0c0,-5266 5856,-7992 9466,-4278 2213,2275 2111,6520 42,8601 -1208,1217 -2327,1729 -4228,1729 -2924,0 -5280,-2847 -5280,-6052zm-4363 376c343,3234 1223,5114 3009,6915 5461,5505 16999,2527 16795,-7572 -71,-3543 -1647,-6255 -4430,-8077 -1584,-1038 -3839,-1703 -5818,-1583 -2325,140 -3817,697 -5593,1916 -1291,888 -2666,2828 -3221,4196 -401,992 -871,2983 -742,4205zm107157 -4598l-4781 0 -7 -8260 5162 0c3442,0 5679,4224 2795,7112 -765,766 -1674,1148 -3169,1148zm-8822 14077l4034 0 0 -10323c4613,0 7425,688 10862,-2186 603,-505 1495,-1732 1874,-2535 869,-1840 767,-4122 112,-6064l-742 -1414c-449,-722 -1899,-2021 -2718,-2444 -984,-505 -988,-536 -2055,-854 -1185,-354 -3560,-371 -6066,-364 -1936,4 -4014,0 -5301,0l0 26184zm-45895 -3803c-2837,0 -5308,-3147 -5044,-6295 649,-7737 10417,-7556 10698,149 62,1731 -505,3134 -1339,4220 -1086,1414 -2329,1926 -4315,1926zm5078 5240c-586,3804 -6376,5387 -9157,1514 -432,-603 -507,-902 -580,-1008 -314,-466 79,-179 -407,-283 -508,412 -3089,1194 -3579,1626 1227,2762 3716,5247 7320,5748 3787,526 7083,-688 9158,-3731 2003,-2936 1643,-7297 1643,-11402 0,-1096 -85,-12314 48,-13094l-4209 -2 -19 1593c-1146,-981 -2310,-2002 -4546,-2146 -5648,-362 -10211,4301 -10179,9989 49,8892 10325,12825 14736,7634 23,792 66,3080 -229,3562z"/>
  <rect class="fil1" width="277871" height="126171"/>
 </g>
</svg>