<?xml version="1.0" encoding="UTF-8"?>
<!DOCTYPE svg PUBLIC "-//W3C//DTD SVG 1.1//EN" "http://www.w3.org/Graphics/SVG/1.1/DTD/svg11.dtd">
<!-- Creator: CorelDRAW X7 -->
<svg xmlns="http://www.w3.org/2000/svg" xml:space="preserve" width="300px" height="134px" version="1.1" style="shape-rendering:geometricPrecision; text-rendering:geometricPrecision; image-rendering:optimizeQuality; fill-rule:evenodd; clip-rule:evenodd" viewBox="0 0 3000000 1333333" xmlns:xlink="http://www.w3.org/1999/xlink">
 <defs>
  <style type="text/css">
   <![CDATA[
    .fil0 {fill:#2B2A29;fill-rule:nonzero}
   ]]>
  </style>
 </defs>
 <g id="Слой_x0020_1">
  <metadata id="CorelCorpID_0Corel-Layer"/>
  <path class="fil0" d="M455708 36313l-413937 0 0 455583 129208 0 0 -345083 155542 0 0 345083 129187 0 0 -455583zm-413937 1258354l129208 0 0 -164646c39188,27958 73084,42625 141938,42625 107958,0 207396,-83313 207396,-235458 0,-153855 -101146,-237146 -207396,-237146 -61688,0 -99563,17979 -141938,51291l0 -42791 -129208 0 0 586125zm238000 -231667c-60354,0 -110500,-50167 -110500,-125812 0,-77355 50146,-127500 110500,-127500 60354,0 111333,50145 111333,125812 0,78188 -50979,127500 -111333,127500zm243521 -453062l129208 0 0 -152167c39188,27958 73104,42625 141958,42625 107938,0 207375,-83313 207375,-235438 0,-153854 -101145,-237145 -207375,-237145 -61708,0 -99583,17979 -141958,51291l0 -42791 -129208 0 0 573625zm238000 -219188c-60354,0 -110500,-50167 -110500,-125792 0,-77354 50146,-127500 110500,-127500 60354,0 111354,50146 111354,125792 0,78188 -51000,127500 -111354,127500zm511291 111354c141959,0 247355,-106250 247355,-237146 0,-132604 -104563,-237145 -245646,-237145 -141938,0 -247354,106250 -247354,237145 0,132605 104562,237146 245645,237146zm1709 -111354c-71396,0 -119854,-58646 -119854,-125792 0,-68854 44208,-125812 118145,-125812 71396,0 119855,58667 119855,125812 0,68855 -44209,125792 -118146,125792zm506187 111354c90938,0 141938,-34854 186125,-83312l-75625 -76500c-31458,29750 -61208,48458 -104562,48458 -70542,0 -115604,-56104 -115604,-125792 0,-68854 45916,-125812 110500,-125812 51020,0 78208,18708 106270,45062l75625 -76520c-42479,-47584 -95187,-79875 -181041,-79875 -139396,0 -238854,107083 -238854,237145 0,131750 100312,237146 237166,237146zm602438 -465791l-401188 0 0 110500 135146 0 0 345083 130875 0 0 -345083 135167 0 0 -110500zm246083 465791c141938,0 247333,-106250 247333,-237146 0,-132604 -104541,-237145 -245645,-237145 -141938,0 -247334,106250 -247334,237145 0,132605 104542,237146 245646,237146zm1688 -111354c-71375,0 -119834,-58646 -119834,-125792 0,-68854 44209,-125812 118146,-125812 71396,0 119833,58667 119833,125812 0,68855 -44187,125792 -118145,125792zm-1847292 783583c82458,0 143667,-32312 186146,-85000l-73938 -65458c-35708,33167 -67146,46771 -110500,46771 -57791,0 -98604,-30604 -111354,-89250l317063 0c833,-11917 1687,-23813 1687,-34000 0,-129208 -69687,-247354 -221833,-247354 -132604,0 -225271,107104 -225271,237146 0,141083 101167,237145 238000,237145zm-111333 -273708c10187,-58646 45062,-96875 98604,-96875 54396,0 88396,39083 96041,96875l-194645 0zm356479 263500l127500 0 0 -271146 124937 184459 126646 -187000 0 273687 130917 0 0 -455583 -130917 0 -124937 191250 -123250 -191250 -130896 0 0 455583zm801125 10208c141958,0 247354,-106250 247354,-237145 0,-132605 -104563,-237146 -245646,-237146 -141958,0 -247354,106250 -247354,237146 0,132604 104562,237145 245646,237145zm1708 -111333c-71396,0 -119854,-58667 -119854,-125812 0,-68855 44208,-125792 118146,-125792 71396,0 119854,58646 119854,125792 0,68854 -44208,125812 -118146,125812zm708479 -354458l-129208 0 0 175104 -158938 0 0 -175104 -129208 0 0 455583 129208 0 0 -174229 158938 0 0 174229 129208 0 0 -455583zm435729 0l-401187 0 0 110500 135146 0 0 345083 130896 0 0 -345083 135145 0 0 -110500z"/>
 </g>
</svg>