<?xml version="1.0" encoding="UTF-8"?>
<!DOCTYPE svg PUBLIC "-//W3C//DTD SVG 1.1//EN" "http://www.w3.org/Graphics/SVG/1.1/DTD/svg11.dtd">
<!-- Creator: CorelDRAW X7 -->
<svg xmlns="http://www.w3.org/2000/svg" xml:space="preserve" width="348px" height="137px" version="1.1" style="shape-rendering:geometricPrecision; text-rendering:geometricPrecision; image-rendering:optimizeQuality; fill-rule:evenodd; clip-rule:evenodd"
viewBox="0 0 131670 51790"
 xmlns:xlink="http://www.w3.org/1999/xlink">
 <defs>
  <style type="text/css">
   <![CDATA[
    .fil0 {fill:none}
    .fil1 {fill:#FEFEFE;fill-rule:nonzero}
   ]]>
  </style>
 </defs>
 <g id="Слой_x0020_1">
  <metadata id="CorelCorpID_0Corel-Layer"/>
  <rect class="fil0" width="131670" height="51790"/>
  <path class="fil1" d="M16923 348l-16923 0 0 18624 5282 0 0 -14107 6359 0 0 14107 5282 0 0 -18624zm-16923 51442l5282 0 0 -6731c1602,1143 2988,1743 5803,1743 4413,0 8478,-3406 8478,-9625 0,-6290 -4135,-9695 -8478,-9695 -2522,0 -4070,735 -5803,2097l0 -1749 -5282 0 0 23960zm9730 -9471c-2468,0 -4517,-2050 -4517,-5142 0,-3163 2049,-5213 4517,-5213 2467,0 4551,2050 4551,5143 0,3197 -2084,5212 -4551,5212zm9955 -18521l5282 0 0 -6220c1603,1143 2989,1742 5803,1742 4414,0 8479,-3406 8479,-9625 0,-6290 -4135,-9695 -8479,-9695 -2522,0 -4070,735 -5803,2097l0 -1749 -5282 0 0 23450zm9730 -8961c-2467,0 -4517,-2050 -4517,-5142 0,-3163 2050,-5212 4517,-5212 2467,0 4552,2049 4552,5142 0,3197 -2085,5212 -4552,5212zm20902 4552c5803,0 10112,-4343 10112,-9694 0,-5421 -4274,-9695 -10042,-9695 -5803,0 -10112,4343 -10112,9695 0,5420 4274,9694 10042,9694zm70 -4552c-2919,0 -4900,-2397 -4900,-5142 0,-2815 1807,-5143 4830,-5143 2919,0 4900,2398 4900,5143 0,2814 -1807,5142 -4830,5142zm20693 4552c3718,0 5803,-1425 7610,-3405l-3092 -3128c-1286,1217 -2502,1981 -4275,1981 -2883,0 -4726,-2293 -4726,-5142 0,-2815 1877,-5143 4518,-5143 2085,0 3197,764 4344,1841l3092 -3127c-1737,-1946 -3892,-3266 -7402,-3266 -5698,0 -9764,4378 -9764,9695 0,5386 4101,9694 9695,9694zm24628 -19041l-16401 0 0 4517 5526 0 0 14107 5350 0 0 -14107 5525 0 0 -4517zm10060 19041c5804,0 10112,-4343 10112,-9694 0,-5421 -4274,-9695 -10042,-9695 -5802,0 -10112,4343 -10112,9695 0,5420 4275,9694 10042,9694zm70 -4552c-2918,0 -4899,-2397 -4899,-5142 0,-2815 1807,-5143 4829,-5143 2919,0 4900,2398 4900,5143 0,2814 -1807,5142 -4830,5142zm-75519 32034c3370,0 5873,-1320 7610,-3475l-3023 -2675c-1460,1355 -2745,1911 -4518,1911 -2362,0 -4030,-1251 -4552,-3648l12961 0c35,-487 70,-974 70,-1390 0,-5282 -2849,-10112 -9069,-10112 -5421,0 -9209,4378 -9209,9695 0,5767 4136,9694 9730,9694zm-4552 -11189c417,-2398 1842,-3961 4031,-3961 2224,0 3614,1598 3926,3961l-7957 0zm14573 10772l5212 0 0 -11085 5108 7541 5178 -7644 0 11188 5351 0 0 -18624 -5351 0 -5108 7817 -5038 -7817 -5352 0 0 18624zm32751 417c5803,0 10112,-4343 10112,-9694 0,-5421 -4274,-9695 -10042,-9695 -5803,0 -10112,4343 -10112,9695 0,5420 4275,9694 10042,9694zm70 -4552c-2919,0 -4900,-2397 -4900,-5142 0,-2815 1807,-5143 4830,-5143 2919,0 4900,2397 4900,5143 0,2814 -1807,5142 -4830,5142zm28963 -14489l-5282 0 0 7157 -6497 0 0 -7157 -5282 0 0 18624 5282 0 0 -7123 6497 0 0 7123 5282 0 0 -18624zm17814 0l-16401 0 0 4517 5525 0 0 14107 5351 0 0 -14107 5525 0 0 -4517z"/>
 </g>
</svg>
