<?xml version="1.0" encoding="UTF-8"?>
<!DOCTYPE svg PUBLIC "-//W3C//DTD SVG 1.1//EN" "http://www.w3.org/Graphics/SVG/1.1/DTD/svg11.dtd">
<!-- Creator: CorelDRAW X7 -->
<svg xmlns="http://www.w3.org/2000/svg" xml:space="preserve" width="1146px" height="884px" version="1.1" style="shape-rendering:geometricPrecision; text-rendering:geometricPrecision; image-rendering:optimizeQuality; fill-rule:evenodd; clip-rule:evenodd"
viewBox="0 0 6692055 5160818"
 xmlns:xlink="http://www.w3.org/1999/xlink">
 <defs>
  <style type="text/css">
   <![CDATA[
    .str10 {stroke:#2B2A29;stroke-width:2061.65}
    .str9 {stroke:#BE2323;stroke-width:2061.65}
    .str6 {stroke:#19A30D;stroke-width:2061.65}
    .str1 {stroke:#2B2A29;stroke-width:3447.58}
    .str2 {stroke:#2B2A29;stroke-width:3447.58}
    .str8 {stroke:#BE2323;stroke-width:3447.58}
    .str5 {stroke:#009846;stroke-width:3447.58}
    .str4 {stroke:#19A30D;stroke-width:3447.58}
    .str0 {stroke:#2B2A29;stroke-width:5254.12}
    .str12 {stroke:#2B2A29;stroke-width:5254.12}
    .str7 {stroke:#BE2323;stroke-width:5254.12}
    .str3 {stroke:#19A30D;stroke-width:5254.12}
    .str11 {stroke:#2B2A29;stroke-width:5254.12;stroke-linejoin:bevel}
    .fil0 {fill:none}
    .fil2 {fill:#2B2A29}
    .fil1 {fill:#2B2A29;fill-rule:nonzero}
   ]]>
  </style>
 </defs>
 <g id="Слой_x0020_1">
  <metadata id="CorelCorpID_0Corel-Layer"/>
  <rect class="fil0" width="6689428" height="5158191"/>
  <rect class="fil0 str0" x="230292" y="3171931" width="254671" height="254671"/>
  <path class="fil0 str1" d="M399196 2980822l-168904 168910m168904 -206289l-168904 168911m168904 -206290l-168904 168911m168904 -206290l-168904 168911m168904 -206289l-168904 168911m168904 -206290l-168904 168904m168904 -206283l-168904 168904m168904 -206282l-168904 168904m168904 -206290l-168904 168911m168904 -206290l-168904 168911m168904 -206289l-168904 168911m168904 -206290l-168904 168911m160526 -197912l-160526 160533m123147 -160533l-123147 123148m85769 -123148l-85769 85769m48390 -85769l-48390 48390m11011 -48390l-11011 11012m168904 -467948l-168904 168911m168904 -206289l-168904 168910m168904 -206289l-168904 168911m168904 -206290l-168904 168911m168904 -206290l-168904 168911m168904 -206289l-168904 168904m168904 -206283l-168904 168904m168904 -206283l-168904 168904m168904 -206289l-168904 168911m168904 -206290l-168904 168911m168904 -206290l-168904 168911m168904 -206289l-168904 168911m152879 -190266l-152879 152887m115501 -152887l-115501 115501m78122 -115501l-78122 78123m40743 -78123l-40743 40744m3364 -40744l-3364 3365m168904 -393183l-168904 168904m168904 -206283l-168904 168904m168904 242269l-16025 16024m16025 -53403l-53403 53403m53403 -90781l-90782 90781m90782 -128160l-128161 128160m128161 -165546l-165540 165546m165540 -202924l-168904 168911m168904 -206290l-168904 168911m168904 -206290l-168904 168911m168904 -206289l-168904 168910m168904 -206289l-168904 168904m168904 -281047l-168904 168911m168904 -206290l-168904 168911m168904 -206290l-168904 168911m168904 -206289l-168904 168911m168904 -206290l-168904 168904m143226 -180605l-143226 143226m105847 -143226l-105847 105848m68469 -105848l-68469 68469m31090 -68469l-31090 31090m168904 1999109l-116343 116342m116343 -153721l-153721 153721m153721 -4206l-4206 4206m4206 -41585l-41585 41585m41585 -78963l-78964 78963m78964 -1013452l-168904 168904m168904 -206282l-168904 168904m168904 242268l-8378 8378m8378 -45756l-45757 45756m45757 -83135l-83135 83135m83135 -120514l-120514 120514m120514 -157899l-157893 157899m157893 -195278l-168904 168911m168904 -206290l-168904 168911m168904 -206289l-168904 168910m168904 -206289l-168904 168911m168904 -206290l-168904 168904"/>
  <path class="fil0 str2" d="M933433 866102l-17534 17534m17534 -54913l-54913 54913m54913 -92299l-92292 92299m92292 -129677l-129670 129677m129670 -167056l-167049 167056m167049 -204435l-204428 204435m204428 -241813l-241806 241813m204427 -241813l-241806 241813m204428 -241813l-241807 241813m204428 -241813l-241807 241813m204428 -241813l-241806 241813m204428 -241813l-241807 241813m204428 -241813l-241807 241813m204428 -241813l-241806 241813m204428 -241813l-235208 235215m197829 -235215l-197829 197836m160450 -197836l-160450 160457m123071 -160457l-123071 123078m85693 -123078l-85693 85693m48314 -85693l-48314 48314m10935 -48314l-10935 10935"/>
  <path class="fil0 str2" d="M2550529 869280l-14356 14356m14356 -51734l-51735 51734m51735 -89113l-89113 89113m89113 -126499l-126492 126499m126492 -163877l-163871 163877m163871 -201256l-201249 201256m204427 -241813l-6 7m-3172 3171l-238628 238635m204428 -241813l-241807 241813m204428 -241813l-241807 241813m204428 -241813l-241806 241813m204428 -241813l-241807 241813m204428 -241813l-241807 241813m204428 -241813l-241806 241813m204428 -241813l-241807 241813m204428 -241813l-229913 229919m192534 -229919l-192534 192540m155155 -192540l-155155 155162m117777 -155162l-117777 117783m80398 -117783l-80398 80397m43019 -80397l-43019 43019m5641 -43019l-5641 5640"/>
  <line class="fil0 str0" x1="484965" y1="3395676" x2="453723" y2= "3426918" />
  <path class="fil0 str0" d="M480366 3288394l-2614 2607m-126905 126912l-2620 2620m117893 -117900l-102772 102772"/>
  <path class="fil0 str0" d="M453992 3202908l-2614 2606m-126905 126906l-2620 2620m162794 -162795l-18286 18286m-26615 26615l-102765 102773m-26602 26595l-80087 80087"/>
  <path class="fil0 str0" d="M302153 3242859l-2613 2613m73226 -73227l-58243 58244m-26608 26608l-57623 57623"/>
  <line class="fil0 str0" x1="260899" y1="3172245" x2="230292" y2= "3202853" />
  <path class="fil0 str0" d="M426921 3397758l-2620 2621m60664 -60664l-45536 45536m-26602 26601l-15066 15066"/>
  <path class="fil0 str0" d="M397658 3315161l-2620 2620m89927 -89926l-74799 74798m-26602 26602l-97663 97663"/>
  <path class="fil0 str0" d="M380117 3220815l-2607 2613m-126912 126905l-2620 2621m180715 -180709l-36199 36200m-26616 26615l-102772 102766m-26602 26601l-6212 6213"/>
  <line class="fil0 str0" x1="316833" y1="3172245" x2="240510" y2= "3248561" />
  <rect class="fil0 str0" transform="matrix(1.05135E-013 0.535643 0.709328 -2.53489E-015 3.48968E+006 1.20245E+006)" width="94871" height="1368256"/>
  <rect class="fil0 str3" x="3340853" y="4847853" width="148835" height="310338"/>
  <path class="fil0 str4" d="M5372996 4215346l465555 0 0 10536 0 443455c266222,0 532437,0 798660,0l0 488854 -25333 0 0 -212571 0 -249564 -798660 0 0 -308366 0 -147011 -440222 0 0 -25333z"/>
  <polygon class="fil0 str4" points="4821383,4215346 3489685,4215346 3489685,5158191 3514376,5158191 3514376,4240679 4821383,4240679 "/>
  <path class="fil0 str2" d="M3489678 1347377l-1372 1373m1372 -38751l-38751 38751m38751 -76130l-76130 76130m76130 -113509l-113508 113509m113508 -150887l-150887 150887m150887 -188273l-188266 188273m188266 -225652l-225644 225652m204427 -241814l-241806 241814m204428 -241814l-241807 241814m204428 -241814l-241806 241814m204427 -241814l-241806 241814m204428 -241814l-241807 241814m204428 -241814l-241807 241814m204428 -241814l-241806 241814m204428 -241814l-241807 241814m204428 -241814l-241807 241814m204428 -241814l-241806 241814m204428 -241814l-241807 241814m204428 -241814l-241807 241814m204428 -241814l-241806 241814m204427 -241814l-241806 241814m204428 -241814l-229147 229154m191768 -229154l-191768 191775m154389 -191775l-154389 154397m117011 -154397l-117011 117018m79632 -117018l-79632 79632m42253 -79632l-42253 42254m4875 -42254l-4875 4875"/>
  <path class="fil0 str3" d="M399196 4140933l1022760 0 14707 0 516275 0 597591 0c0,-745684 0,-414123 0,-1201351l91064 0 0 1201351 80825 0 0 74420 -769480 -7 -516275 0 -14707 0 -1022760 0"/>
  <polygon class="fil0 str3" points="3340853,4140933 3340853,4215346 3249437,4215353 3249437,4140933 "/>
  <polygon class="fil0 str3" points="4821383,4140933 4821383,4215346 3489044,4215346 3489044,4140933 "/>
  <path class="fil0 str4" d="M4304831 4140933l-74412 74413m37034 -74413l-74413 74413m628984 -30925l-30925 30925m30925 -68304l-68304 68304m37034 -74413l-74412 74413m37034 -74413l-74413 74413m37034 -74413l-74413 74413m37034 -74413l-74412 74413m37034 -74413l-74413 74413m37034 -74413l-74413 74413m37034 -74413l-74412 74413m37033 -74413l-74412 74413m37034 -74413l-74413 74413m37034 -74413l-74413 74413m37034 -74413l-74412 74413m37034 -74413l-74413 74413m37034 -74413l-74413 74413m-37723 -74413l-74413 74413m37034 -74413l-74412 74413m37034 -74413l-74413 74413m37034 -74413l-74413 74413m37034 -74413l-74413 74413m37034 -74413l-74412 74413m37034 -74413l-74413 74413m37034 -74413l-74413 74413m37034 -74413l-74412 74413m37034 -74413l-74413 74413m37034 -74413l-74413 74413m37034 -74413l-74412 74413m37034 -74413l-74413 74413m37034 -74413l-74413 74413m37034 -74413l-74412 74413m37033 -74413l-74412 74413m37034 -74413l-74413 74413m37034 -74413l-74413 74413m37034 -74413l-67572 67573m30194 -67573l-30194 30194"/>
  <path class="fil0 str3" d="M2550529 1348750l91064 0 0 1008190 -91064 0c0,-685572 0,-284426 0,-1008190z"/>
  <path class="fil0 str4" d="M3489685 5135547l-22644 22644m22644 -60023l-60023 60023m60023 -97401l-97401 97401m97401 -134780l-134780 134780m134780 -172159l-148832 148832m148832 -186210l-148832 148832m148832 -186218l-148832 148839m148832 -186218l-148832 148839m137489 -174875l-137489 137497m100111 -137497l-100111 100118m62732 -100118l-62732 62732m25353 -62732l-25353 25354"/>
  <rect class="fil0 str0" transform="matrix(1.18221E-013 0.535643 0.797613 -2.53489E-015 933429 737321)" width="94871" height="1368256"/>
  <rect class="fil0 str0" x="230292" y="1025386" width="168907" height="2146545"/>
  <rect class="fil0 str0" x="230292" y="641827" width="168907" height="383559"/>
  <path class="fil0 str1" d="M363844 954436l-2620 2620m37972 -37972l-23878 23878m-26609 26609l-55816 55816"/>
  <path class="fil0 str1" d="M339277 867122l-2621 2620m62540 -62546l-47418 47418m-26595 26602l-94891 94891"/>
  <path class="fil0 str1" d="M312903 781629l-2621 2620m88914 -88913l-73786 73792m-26601 26595l-68517 68517"/>
  <path class="fil0 str1" d="M290583 692068l-2613 2613m52851 -52851l-37868 37868m-26609 26608l-46052 46053"/>
  <line class="fil0 str1" x1="399196" y1="975011" x2="348820" y2= "1025387" />
  <path class="fil0 str1" d="M287011 975307l-2620 2621m114805 -114805l-100711 100711m-26609 26615l-34937 34938"/>
  <path class="fil0 str1" d="M386088 764371l-2620 2620m-125720 125719l-2620 2620m144068 -144067l-600 600m-26602 26601l-102772 102773m-26609 26608l-12321 12322"/>
  <path class="fil0 str1" d="M368547 670024l-2607 2613m-126912 126906l-2620 2620m160340 -160333l-15825 15824m-26615 26615l-102772 102766"/>
  <line class="fil0 str1" x1="284888" y1="641830" x2="230292" y2= "696419" />
  <path class="fil0 str4" d="M703631 4140933l-74413 74413m37034 -74413l-74412 74413m37034 -74413l-74413 74413m37034 -74413l-74413 74413m37034 -74413l-74412 74413m37034 -74413l-74413 74413m37034 -74413l-74413 74413m37034 -74413l-42784 42785m5405 -42785l-5405 5406m379192 -5406l-74412 74413m1233152 -74413l-74413 74413m37034 -74413l-74412 74413m37033 -74413l-74412 74413m37034 -74413l-74413 74413m37034 -74413l-74413 74413m37034 -74413l-74412 74413m37034 -74413l-74413 74413m37034 -74413l-74413 74413m37034 -74413l-74412 74413m37034 -74413l-74413 74413m37034 -74413l-74413 74413m37034 -74413l-74412 74413m37034 -74413l-74413 74413m37034 -74413l-74413 74413m37034 -74413l-74412 74413m37033 -74413l-74412 74413m-561025 -74413l-74413 74413m672472 -74413l-74413 74413m37034 -74413l-74413 74413m37034 -74413l-74412 74413m37034 -74413l-74413 74413m37034 -74413l-74413 74413m37034 -74413l-74412 74413m37034 -74413l-74413 74413m37034 -74413l-74413 74413m37034 -74413l-74412 74413m37034 -74413l-74413 74413m37034 -74413l-74413 74413m37034 -74413l-74412 74413m37033 -74413l-74412 74413m37034 -74413l-74413 74413m37034 -74413l-74413 74413m2599499 -20368l-20369 20368m20369 -57747l-57754 57754m37041 -74420l-70703 70703m33324 -70703l-33324 33325m-1237552 -33325l-74412 74413m784945 -37372l-37378 37379m37040 -74420l-74419 74420m37041 -74420l-74420 74420m37041 -74420l-74419 74420m68689 -106069l-106068 106069m-561018 -74420l-74413 74413m741499 -143440l-143447 143447m143447 -180833l-91064 91071m-15342 15342l-74420 74420m180826 -218212l-91064 91072m-52721 52720l-74419 74420m218204 -255590l-91064 91064m-90099 90106l-74420 74420m255583 -292969l-91064 91064m-127478 127485l-74413 74420m292955 -330348l-91064 91065m-164857 164863l-74412 74413m330333 -367719l-91064 91064m-202235 202242l-74413 74413m367712 -405098l-91064 91064m-239614 239621l-74413 74413m405091 -442477l-91064 91065m-276993 276999l-74413 74413m442470 -479862l-91064 91071m-314372 314378l-74412 74413m479848 -517241l-91064 91071m-351750 351757l-74413 74413m517227 -554620l-91064 91065m-389129 389142l-74413 74413m554606 -591998l-91064 91064m-426508 426521l-74412 74413m567106 -604499l-66186 66186m-463886 463900l-74413 74413m567107 -604499l-28808 28808m-501265 501278l-74413 74413m666742 -629377l-24878 24878m24878 -62257l-62256 62257m62256 -99636l-91064 91065m91064 -128443l-91064 91064m91064 -128450l-91064 91072m91064 -128450l-91064 91071m91064 -128450l-91064 91064m91064 -128443l-91064 91065m91064 -128444l-91064 91065m91064 -128443l-91064 91064m91064 -128443l-91064 91065m91064 -128444l-91064 91065m91064 -128450l-91064 91071m91064 -128450l-91064 91071m91064 -128450l-91064 91065m91064 -128443l-91064 91064m91064 -128443l-91064 91064m91064 -128443l-91064 91065m64621 -102000l-64621 64621m27243 -64621l-27243 27242"/>
  <path class="fil0 str4" d="M2641593 1633237l-19665 19665m19665 -57043l-57044 57043m57044 -94422l-91064 91064m91064 -128443l-91064 91065m91064 -128450l-91064 91071m91064 -128450l-91064 91071m91064 -128450l-91064 91065m91064 -128444l-91064 91065m76515 -113894l-76515 76515m39137 -76515l-39137 39137m1758 -39137l-1758 1758m34020 302394l-34020 34021m91064 581766l-88251 88251m88251 -125630l-91064 91065m91064 -128444l-91064 91065m91064 -128443l-91064 91064m91064 -128443l-91064 91065m91064 -128451l-91064 91072m91064 -128450l-91064 91071m91064 -128450l-91064 91071m91064 -128450l-91064 91065m91064 -128443l-91064 91064m91064 -128443l-91064 91064m91064 -128443l-91064 91065m91064 -128443l-91064 91064m91064 -128450l-91064 91071m91064 -128450l-91064 91072m91064 -128450l-91064 91064m91064 -128443l-91064 91064m71399 -108778l-71399 71400"/>
  <line class="fil0 str5" x1="2588369" y1="2356940" x2="2643420" y2= "2301889" />
  <polygon class="fil0 str3" points="6689428,4669337 6637211,4669337 6637211,5158184 6689428,5158184 "/>
  <path class="fil0 str4" d="M6689428 5015964l-14432 14432m14432 -51810l-51810 51810m51810 -89189l-52217 52217m52217 -89596l-52217 52217m52217 -89602l-52217 52224m52217 -89603l-52217 52217m52217 -89596l-52217 52217m52217 -89596l-52217 52218m52217 -89596l-52217 52217m52217 -89596l-52217 52217m25050 -62429l-25050 25050"/>
  <path class="fil0 str6" d="M6674996 5030396l-37785 37785m407 -37785l-407 407m52217 97297l-30084 30084m30084 -67462l-52217 52217m52217 -89596l-52217 52217"/>
  <line class="fil0 str1" x1="399196" y1="382365" x2="6689421" y2= "382365" />
  <line class="fil0 str1" x1="399196" y1="176696" x2="6689421" y2= "176696" />
  <line class="fil0 str0" x1="380455" y1="401106" x2="417937" y2= "363623" />
  <line class="fil0 str0" x1="380455" y1="195437" x2="417937" y2= "157954" />
  <line class="fil0 str0" x1="914685" y1="401106" x2="952167" y2= "363623" />
  <line class="fil0 str0" x1="2006024" y1="401106" x2="2043506" y2= "363623" />
  <line class="fil0 str0" x1="2531788" y1="401106" x2="2569270" y2= "363623" />
  <line class="fil0 str1" x1="399196" y1="218908" x2="399196" y2= "134483" />
  <line class="fil0 str1" x1="399196" y1="424577" x2="399196" y2= "340152" />
  <line class="fil0 str1" x1="933426" y1="424577" x2="933426" y2= "340152" />
  <line class="fil0 str1" x1="2024765" y1="424577" x2="2024765" y2= "340152" />
  <line class="fil0 str1" x1="2550529" y1="424577" x2="2550529" y2= "340152" />
  <line class="fil0 str0" x1="3470944" y1="401106" x2="3508426" y2= "363623" />
  <line class="fil0 str1" x1="3489685" y1="424577" x2="3489685" y2= "340152" />
  <line class="fil0 str0" x1="4441480" y1="401106" x2="4478962" y2= "363623" />
  <line class="fil0 str1" x1="4460221" y1="424577" x2="4460221" y2= "340152" />
  <line class="fil0 str0" x1="2697272" y1="401106" x2="2734754" y2= "363623" />
  <line class="fil0 str1" x1="2716013" y1="424577" x2="2716013" y2= "340152" />
  <line class="fil0 str0" x1="6210207" y1="401106" x2="6247689" y2= "363623" />
  <line class="fil0 str1" x1="6228948" y1="424577" x2="6228948" y2= "340152" />
  <polygon class="fil1" points="1397712,331009 1403635,331009 1403635,281854 1397650,281854 1384577,291252 1384577,297726 1397581,288363 1397712,288363 "/>
  <path id="1" class="fil1" d="M1433829 331844c10095,0 17383,-7061 17383,-16769 0,-9316 -6916,-16211 -16294,-16211 -6102,0 -11514,3165 -13735,7950 0,0 -96,0 -96,0 200,-13059 4875,-20368 13087,-20368 4868,0 8819,2868 10156,7343l6192 0c-1551,-7750 -7936,-12763 -16279,-12763 -12039,0 -19079,9716 -19079,26264 0,5309 793,9729 2413,13508 3034,7074 8895,11046 16252,11046zm-62 -5434c-6309,0 -11212,-4999 -11212,-11301 0,-6247 4799,-10874 11309,-10874 6515,0 11142,4627 11142,11053 0,6192 -4971,11122 -11239,11122z"/>
  <path id="2" class="fil1" d="M1475000 331837c11446,0 18024,-9915 18024,-25478 0,-15438 -6612,-25340 -18024,-25340 -11411,0 -18093,9971 -18093,25375 0,15562 6613,25443 18093,25443zm0 -5351c-7702,0 -11956,-7840 -11956,-20127 0,-12004 4358,-19975 11956,-19975 7599,0 11887,7902 11887,20010 0,12287 -4219,20092 -11887,20092z"/>
  <path id="3" class="fil1" d="M1517288 331837c11446,0 18024,-9915 18024,-25478 0,-15438 -6612,-25340 -18024,-25340 -11411,0 -18093,9971 -18093,25375 0,15562 6613,25443 18093,25443zm0 -5351c-7702,0 -11956,-7840 -11956,-20127 0,-12004 4358,-19975 11956,-19975 7599,0 11887,7902 11887,20010 0,12287 -4219,20092 -11887,20092z"/>
  <polygon class="fil1" points="3921219,331009 3927142,331009 3927142,281854 3921157,281854 3908083,291252 3908083,297726 3921088,288363 3921219,288363 "/>
  <path id="1" class="fil1" d="M3962934 331009l5923 0 0 -10246 6944 0 0 -5371 -6944 0 0 -33538 -9046 0c-11611,16638 -17362,25601 -21561,33372l0 5537 24684 0 0 10246zm-18616 -15748c3882,-6820 9225,-15032 18520,-28319l96 0 0 28450 -18616 0 0 -131z"/>
  <path id="2" class="fil1" d="M3998948 331837c11446,0 18024,-9915 18024,-25478 0,-15438 -6613,-25340 -18024,-25340 -11412,0 -18093,9971 -18093,25375 0,15562 6612,25443 18093,25443zm0 -5351c-7702,0 -11956,-7840 -11956,-20127 0,-12004 4357,-19975 11956,-19975 7598,0 11887,7902 11887,20010 0,12287 -4220,20092 -11887,20092z"/>
  <path id="3" class="fil1" d="M4041236 331837c11446,0 18024,-9915 18024,-25478 0,-15438 -6613,-25340 -18024,-25340 -11412,0 -18093,9971 -18093,25375 0,15562 6613,25443 18093,25443zm0 -5351c-7702,0 -11956,-7840 -11956,-20127 0,-12004 4358,-19975 11956,-19975 7598,0 11887,7902 11887,20010 0,12287 -4220,20092 -11887,20092z"/>
  <polygon class="fil1" points="3034749,331009 3040672,331009 3040672,281854 3034687,281854 3021613,291252 3021613,297726 3034618,288363 3034749,288363 "/>
  <polygon id="1" class="fil1" points="3065660,331009 3071583,331009 3071583,281854 3065598,281854 3052524,291252 3052524,297726 3065529,288363 3065660,288363 "/>
  <path id="2" class="fil1" d="M3107375 331009l5923 0 0 -10246 6944 0 0 -5371 -6944 0 0 -33538 -9046 0c-11612,16638 -17362,25601 -21561,33372l0 5537 24684 0 0 10246zm-18617 -15748c3882,-6820 9226,-15032 18521,-28319l96 0 0 28450 -18617 0 0 -131z"/>
  <path id="3" class="fil1" d="M3143389 331837c11446,0 18024,-9915 18024,-25478 0,-15438 -6613,-25340 -18024,-25340 -11412,0 -18093,9971 -18093,25375 0,15562 6612,25443 18093,25443zm0 -5351c-7702,0 -11956,-7840 -11956,-20127 0,-12004 4357,-19975 11956,-19975 7598,0 11887,7902 11887,20010 0,12287 -4220,20092 -11887,20092z"/>
  <path class="fil1" d="M2581529 296016l0 42 5923 0 0 -42c0,-5481 4351,-9639 10088,-9639 5406,0 9715,3785 9715,8515 0,4089 -1558,6716 -8143,13680l-17272 18231 0 4206 32366 0 0 -5440 -23906 0 0 -124 12411 -12853c8192,-8495 10681,-12583 10681,-18072 0,-7529 -6916,-13494 -15673,-13494 -9253,0 -16190,6406 -16190,14990z"/>
  <path id="1" class="fil1" d="M2642924 331009l5923 0 0 -10246 6943 0 0 -5371 -6943 0 0 -33538 -9047 0c-11611,16638 -17362,25601 -21561,33372l0 5537 24685 0 0 10246zm-18617 -15748c3882,-6820 9226,-15032 18520,-28319l97 0 0 28450 -18617 0 0 -131z"/>
  <path id="2" class="fil1" d="M2678937 331837c11446,0 18024,-9915 18024,-25478 0,-15438 -6612,-25340 -18024,-25340 -11411,0 -18093,9971 -18093,25375 0,15562 6613,25443 18093,25443zm0 -5351c-7702,0 -11956,-7840 -11956,-20127 0,-12004 4358,-19975 11956,-19975 7599,0 11888,7902 11888,20010 0,12287 -4220,20092 -11888,20092z"/>
  <polygon class="fil1" points="2234034,331009 2240474,331009 2262304,287522 2262304,281854 2229793,281854 2229793,287294 2256243,287294 2256243,287418 "/>
  <path id="1" class="fil1" d="M2286209 331837c10426,0 17852,-5861 17852,-14101 0,-6095 -4227,-11129 -10598,-12618l0 -138c5337,-1696 8578,-5861 8578,-10984 0,-7516 -6633,-12970 -15832,-12970 -9115,0 -15824,5489 -15824,12936 0,5199 3289,9391 8578,11018l0 138c-6323,1455 -10529,6481 -10529,12618 0,8205 7391,14101 17775,14101zm0 -5351c-6736,0 -11570,-3841 -11570,-9191 0,-5378 4834,-9226 11570,-9226 6778,0 11577,3813 11577,9226 0,5350 -4799,9191 -11577,9191zm0 -23781c-5750,0 -9756,-3386 -9756,-8164 0,-4820 4006,-8233 9756,-8233 5758,0 9764,3379 9764,8233 0,4778 -4041,8164 -9764,8164z"/>
  <path id="2" class="fil1" d="M2327987 331844c10253,0 17507,-6902 17507,-16790 0,-9543 -6812,-16452 -16245,-16452 -4696,0 -8791,1765 -10998,4730l-138 0 1497 -16038 23078 0 0 -5440 -28105 0 -2696 27539 5751 0c2006,-3441 5923,-5516 10529,-5516 6529,0 11190,4737 11190,11349 0,6613 -4626,11253 -11294,11253 -5895,0 -10356,-3613 -10901,-8860l-6020 0c511,8384 7447,14225 16845,14225z"/>
  <polygon class="fil1" points="602679,331009 609119,331009 630949,287522 630949,281854 598438,281854 598438,287294 624888,287294 624888,287418 "/>
  <path id="1" class="fil1" d="M654855 331837c10425,0 17851,-5861 17851,-14101 0,-6095 -4227,-11129 -10598,-12618l0 -138c5337,-1696 8578,-5861 8578,-10984 0,-7516 -6633,-12970 -15831,-12970 -9116,0 -15825,5489 -15825,12936 0,5199 3289,9391 8578,11018l0 138c-6323,1455 -10529,6481 -10529,12618 0,8205 7391,14101 17776,14101zm0 -5351c-6737,0 -11571,-3841 -11571,-9191 0,-5378 4834,-9226 11571,-9226 6778,0 11577,3813 11577,9226 0,5350 -4799,9191 -11577,9191zm0 -23781c-5751,0 -9757,-3386 -9757,-8164 0,-4820 4006,-8233 9757,-8233 5757,0 9763,3379 9763,8233 0,4778 -4040,8164 -9763,8164z"/>
  <path id="2" class="fil1" d="M696632 331844c10254,0 17507,-6902 17507,-16790 0,-9543 -6812,-16452 -16245,-16452 -4695,0 -8791,1765 -10998,4730l-137 0 1496 -16038 23078 0 0 -5440 -28105 0 -2696 27539 5751 0c2006,-3441 5923,-5516 10529,-5516 6529,0 11191,4737 11191,11349 0,6613 -4627,11253 -11295,11253 -5895,0 -10356,-3613 -10901,-8860l-6019 0c510,8384 7446,14225 16844,14225z"/>
  <path class="fil1" d="M5270685 296016l0 42 5923 0 0 -42c0,-5481 4351,-9639 10088,-9639 5406,0 9715,3785 9715,8515 0,4089 -1558,6716 -8143,13680l-17272 18231 0 4206 32366 0 0 -5440 -23906 0 0 -124 12411 -12853c8192,-8495 10681,-12583 10681,-18072 0,-7529 -6916,-13494 -15673,-13494 -9253,0 -16190,6406 -16190,14990z"/>
  <path id="1" class="fil1" d="M5327295 331844c10253,0 17507,-6902 17507,-16790 0,-9543 -6813,-16452 -16245,-16452 -4696,0 -8792,1765 -10998,4730l-138 0 1496 -16038 23078 0 0 -5440 -28104 0 -2696 27539 5750 0c2007,-3441 5923,-5516 10529,-5516 6530,0 11191,4737 11191,11349 0,6613 -4627,11253 -11294,11253 -5896,0 -10357,-3613 -10902,-8860l-6019 0c510,8384 7447,14225 16845,14225z"/>
  <path id="2" class="fil1" d="M5368976 331844c10095,0 17383,-7061 17383,-16769 0,-9316 -6916,-16211 -16294,-16211 -6102,0 -11514,3165 -13735,7950 0,0 -96,0 -96,0 200,-13059 4875,-20368 13087,-20368 4868,0 8819,2868 10156,7343l6192 0c-1551,-7750 -7936,-12763 -16279,-12763 -12039,0 -19079,9716 -19079,26264 0,5309 793,9729 2413,13508 3034,7074 8895,11046 16252,11046zm-62 -5434c-6309,0 -11212,-4999 -11212,-11301 0,-6247 4799,-10874 11308,-10874 6516,0 11143,4627 11143,11053 0,6192 -4971,11122 -11239,11122z"/>
  <path id="3" class="fil1" d="M5410147 331837c11446,0 18024,-9915 18024,-25478 0,-15438 -6612,-25340 -18024,-25340 -11411,0 -18093,9971 -18093,25375 0,15562 6613,25443 18093,25443zm0 -5351c-7702,0 -11956,-7840 -11956,-20127 0,-12004 4358,-19975 11956,-19975 7599,0 11887,7902 11887,20010 0,12287 -4220,20092 -11887,20092z"/>
  <polygon class="fil1" points="4041202,133649 4047124,133649 4047124,84493 4041139,84493 4028066,93891 4028066,100366 4041071,91002 4041202,91002 "/>
  <path id="1" class="fil1" d="M4076746 134476c11446,0 18024,-9915 18024,-25477 0,-15438 -6612,-25340 -18024,-25340 -11411,0 -18093,9970 -18093,25374 0,15563 6613,25443 18093,25443zm0 -5350c-7702,0 -11956,-7840 -11956,-20127 0,-12005 4358,-19976 11956,-19976 7599,0 11887,7902 11887,20010 0,12287 -4219,20093 -11887,20093z"/>
  <path id="2" class="fil1" d="M4118717 134476c10425,0 17852,-5860 17852,-14100 0,-6096 -4227,-11129 -10598,-12618l0 -138c5337,-1696 8577,-5861 8577,-10984 0,-7516 -6633,-12970 -15831,-12970 -9115,0 -15824,5488 -15824,12935 0,5199 3289,9391 8577,11019l0 138c-6323,1455 -10529,6481 -10529,12618 0,8205 7392,14100 17776,14100zm0 -5350c-6737,0 -11570,-3841 -11570,-9191 0,-5379 4833,-9226 11570,-9226 6778,0 11577,3813 11577,9226 0,5350 -4799,9191 -11577,9191zm0 -23782c-5751,0 -9757,-3385 -9757,-8164 0,-4819 4006,-8232 9757,-8232 5757,0 9764,3378 9764,8232 0,4779 -4041,8164 -9764,8164z"/>
  <path id="3" class="fil1" d="M4143347 98656l0 41 5922 0 0 -41c0,-5482 4351,-9639 10088,-9639 5406,0 9715,3785 9715,8515 0,4089 -1558,6716 -8143,13680l-17272 18231 0 4206 32366 0 0 -5440 -23906 0 0 -124 12411 -12853c8192,-8495 10681,-12584 10681,-18072 0,-7530 -6916,-13494 -15673,-13494 -9253,0 -16189,6406 -16189,14990z"/>
  <path id="4" class="fil1" d="M4200273 134476c11446,0 18024,-9915 18024,-25477 0,-15438 -6613,-25340 -18024,-25340 -11412,0 -18093,9970 -18093,25374 0,15563 6613,25443 18093,25443zm0 -5350c-7702,0 -11956,-7840 -11956,-20127 0,-12005 4358,-19976 11956,-19976 7598,0 11887,7902 11887,20010 0,12287 -4220,20093 -11887,20093z"/>
  <rect class="fil0 str0" x="3340850" y="4140931" width="148835" height="706919"/>
  <line class="fil0 str0" x1="3489685" y1="4811529" x2="3454788" y2= "4846426" />
  <path class="fil0 str0" d="M3427821 4761519l-2606 2606m64470 -64470l-49487 49487m-26615 26615l-72096 72096"/>
  <path class="fil0 str0" d="M3406991 4670489l-2620 2620m85314 -85314l-71089 71082m-26609 26616l-51134 51134"/>
  <path class="fil0 str0" d="M3489685 4475914l-94616 94609m-11480 11487l-2620 2620m-12515 12515l-27601 27601"/>
  <path class="fil0 str0" d="M3471461 4382271l-102766 102765m-11480 11481l-2620 2620m-12515 12522l-1227 1227m145612 -145619l-2614 2613"/>
  <path class="fil0 str0" d="M3464131 4277713l-2606 2613m28160 -28160l-14066 14066m-26609 26609l-102772 102772"/>
  <path class="fil0 str0" d="M3448534 4181456l-2613 2606m43129 -43129l-29035 29036m-26609 26615l-92553 92554"/>
  <line class="fil0 str0" x1="3377169" y1="4140933" x2="3340853" y2= "4177250" />
  <line class="fil0 str0" x1="3486596" y1="4758671" x2="3397414" y2= "4847853" />
  <path class="fil0 str0" d="M3483583 4649817l-2621 2620m-127526 127526l-2606 2614m117749 -117756l-102773 102772"/>
  <path class="fil0 str0" d="M3489685 4531834l-18534 18534m-11488 11487l-2620 2621m-12515 12514l-102758 102766"/>
  <path class="fil0 str0" d="M3489685 4419974l-47798 47797m-11487 11487l-2620 2620m-12515 12515l-74412 74413"/>
  <path class="fil0 str0" d="M3397593 4400185l-56740 56733m71737 -71737l-2606 2613m79701 -79701l-65484 65483"/>
  <path class="fil0 str0" d="M3390119 4295792l-2607 2613m102173 -102179l-88079 88085m-26615 26609l-34138 34138"/>
  <path class="fil0 str0" d="M3374156 4199873l-2613 2613m61553 -61553l-47452 47453m-26616 26615l-18175 18176"/>
  <polygon class="fil0 str0" points="2550529,1348750 2716013,1348750 2716013,641830 2550529,641830 "/>
  <line class="fil0 str1" x1="2716013" y1="1304103" x2="2672794" y2= "1347322" />
  <path class="fil0 str1" d="M2645689 1262553l-2627 2627m72951 -72951l-57823 57823m-26602 26602l-72096 72096"/>
  <path class="fil0 str1" d="M2624224 1172158l-2613 2606m94402 -94395l-79419 79419m-26608 26608l-59457 59457"/>
  <path class="fil0 str1" d="M2601463 1083037l-2620 2621m116990 -116991l-102765 102759m-26609 26615l-35930 35931"/>
  <path class="fil0 str1" d="M2575089 997544l-2620 2627m132125 -132132l-2620 2620m-12515 12522l-102765 102759m-26609 26608l-9556 9557"/>
  <path class="fil0 str1" d="M2667002 793751l-102759 102758m-11487 11488l-2227 2227m131477 -131477l-2614 2606m36621 -36613l-22396 22395"/>
  <path class="fil0 str1" d="M2651405 697487l-100876 100870m115873 -115873l-2606 2613m43267 -43267l-29050 29049"/>
  <line class="fil0 str1" x1="2595175" y1="641830" x2="2550529" y2= "686483" />
  <line class="fil0 str1" x1="2704601" y1="1259568" x2="2615412" y2= "1348750" />
  <path class="fil0 str1" d="M2700816 1151486l-2607 2613m-126912 126906l-2620 2620m147336 -147336l-2827 2827m-26609 26615l-102772 102766m-26602 26601l-6674 6675"/>
  <path class="fil0 str1" d="M2677538 1062883l-2620 2620m41095 -41088l-26864 26863m-26615 26609l-102773 102772"/>
  <path class="fil0 str1" d="M2648275 980286l-2621 2620m70359 -70358l-56127 56126m-26615 26616l-82742 82742"/>
  <path class="fil0 str1" d="M2716013 800667l-73806 73799m-11481 11487l-2620 2620m-12521 12515l-65056 65063"/>
  <path class="fil0 str1" d="M2592989 811823l-42460 42460m57464 -57457l-2613 2606m110633 -110633l-96415 96416"/>
  <path class="fil0 str1" d="M2577027 715904l-26498 26499m41502 -41503l-2614 2614m61685 -61684l-47467 47466"/>
  <polygon class="fil0 str0" points="399196,4215346 399196,5158191 230292,5158191 230292,3426601 399196,3426601 "/>
  <path class="fil0 str1" d="M399196 5155584l-2607 2607m2607 -39985l-39985 39985m39985 -77364l-77364 77364m77364 -114743l-114743 114743m114743 -152121l-152122 152121m152122 -189500l-168904 168904m168904 -206290l-168904 168911m168904 -206289l-168904 168911m168904 -206290l-168904 168911m168904 -206290l-168904 168911m168904 -206289l-168904 168910m168904 -206289l-168904 168904m168904 -206283l-168904 168904m168904 -206282l-168904 168903m168904 -206289l-168904 168911m168904 -206290l-168904 168911m168904 -206289l-168904 168910m168904 -206289l-168904 168911m151349 -188735l-151349 151356m113970 -151356l-113970 113970m76591 -113970l-76591 76592m39212 -76592l-39212 39213m1834 -39213l-1834 1834m168904 -56768l-54934 54934m54934 -92312l-92313 92312m92313 -129691l-129692 129691m129692 -167077l-167070 167077m167070 -204455l-168904 168911m168904 -206290l-168904 168911m168904 -206290l-168904 168911m168904 -206289l-168904 168911m168904 -206290l-168904 168904m168904 -206283l-168904 168904m168904 -206282l-168904 168904m168904 -206290l-168904 168911m168904 -206290l-168904 168911m168904 -206289l-168904 168911m168904 -206290l-168904 168911m168904 -206290l-168904 168904m168904 -206282l-168904 168904m168904 -206283l-168904 168904m168904 -206283l-168904 168904m168904 -206289l-168904 168910m168904 -206289l-168904 168911m168904 -206290l-168904 168911m168904 -206289l-168904 168910m143702 -181087l-143702 143702m106323 -143702l-106323 106323m68944 -106323l-68944 68944m31566 -68944l-31566 31566m168904 -56768l-25202 25202m25202 -62581l-62581 62581m62581 -99960l-99960 99960m99960 -137338l-137338 137338m137338 -174724l-168904 168911m141047 -178433l-141047 141054m103668 -141054l-103668 103676m66290 -103676l-66290 66297m28911 -66297l-28911 28911m168904 1027242l-17555 17555"/>
  <line class="fil0 str0" x1="380461" y1="4513120" x2="417937" y2= "4475638" />
  <path class="fil1" d="M1858668 4458187l5923 0 0 -10247 6943 0 0 -5371 -6943 0 0 -33538 -9047 0c-11611,16638 -17362,25602 -21561,33373l0 5536 24685 0 0 10247zm-18617 -15749c3882,-6819 9226,-15031 18520,-28318l97 0 0 28449 -18617 0 0 -131z"/>
  <path id="1" class="fil1" d="M1887510 4435529l6158 0c7012,0 11370,3579 11370,9364 0,5157 -4661,8832 -11170,8832 -6599,0 -10784,-3475 -11329,-8522l-5896 0c442,8150 7020,13818 17294,13818 9632,0 17306,-5875 17306,-14328 0,-6923 -4743,-11515 -12156,-11956l0 -125c6137,-1082 10060,-5536 10060,-11728 0,-7426 -6612,-12687 -15383,-12687 -9226,0 -15431,5330 -16107,13721l5889 0c537,-5171 4288,-8426 9935,-8426 6234,0 9530,3317 9530,8219 0,4992 -3938,8654 -9598,8654l-5889 0 -14 5164z"/>
  <path id="2" class="fil1" d="M1935949 4459014c11446,0 18024,-9915 18024,-25478 0,-15438 -6613,-25339 -18024,-25339 -11412,0 -18093,9970 -18093,25374 0,15562 6612,25443 18093,25443zm0 -5351c-7702,0 -11956,-7839 -11956,-20127 0,-12004 4357,-19975 11956,-19975 7598,0 11887,7902 11887,20010 0,12287 -4220,20092 -11887,20092z"/>
  <path id="3" class="fil1" d="M1978237 4459014c11446,0 18024,-9915 18024,-25478 0,-15438 -6613,-25339 -18024,-25339 -11412,0 -18093,9970 -18093,25374 0,15562 6612,25443 18093,25443zm0 -5351c-7702,0 -11956,-7839 -11956,-20127 0,-12004 4357,-19975 11956,-19975 7598,0 11887,7902 11887,20010 0,12287 -4220,20092 -11887,20092z"/>
  <line class="fil0 str0" x1="3322112" y1="4513120" x2="3359594" y2= "4475638" />
  <line class="fil0 str1" x1="399196" y1="4494386" x2="3340860" y2= "4494386" />
  <line class="fil0 str1" x1="2245914" y1="4140933" x2="2245914" y2= "880644" />
  <line class="fil0 str0" x1="2227173" y1="902377" x2="2264655" y2= "864895" />
  <line class="fil0 str0" x1="2227173" y1="4159674" x2="2264655" y2= "4122192" />
  <path class="fil1" d="M2209763 2562430l0 -5923 -10246 0 0 -6944 -5372 0 0 6944 -33538 0 0 9046c16638,11612 25602,17362 33373,21561l5537 0 0 -24684 10246 0zm-15749 18617c-6819,-3882 -15031,-9226 -28318,-18521l0 -96 28449 0 0 18617 -131 0z"/>
  <polygon id="1" class="fil1" points="2209763,2541462 2209763,2535021 2166275,2513191 2160607,2513191 2160607,2545702 2166047,2545702 2166047,2519252 2166171,2519252 "/>
  <path id="2" class="fil1" d="M2174770 2506434l41 0 0 -5923 -41 0c-5482,0 -9640,-4351 -9640,-10087 0,-5406 3786,-9716 8516,-9716 4089,0 6716,1559 13680,8143l18231 17273 4206 0 0 -32366 -5441 0 0 23905 -124 0 -12852 -12411c-8495,-8191 -12584,-10680 -18072,-10680 -7530,0 -13494,6915 -13494,15672 0,9254 6405,16190 14990,16190z"/>
  <path id="3" class="fil1" d="M2210590 2449508c0,-11446 -9915,-18024 -25477,-18024 -15439,0 -25340,6612 -25340,18024 0,11411 9970,18093 25374,18093 15562,0 25443,-6613 25443,-18093zm-5350 0c0,7702 -7840,11956 -20127,11956 -12005,0 -19976,-4358 -19976,-11956 0,-7599 7902,-11888 20010,-11888 12287,0 20093,4220 20093,11888z"/>
  <line class="fil0 str0" x1="380461" y1="1911078" x2="417937" y2= "1873596" />
  <path class="fil1" d="M1378750 1833487l6158 0c7012,0 11370,3578 11370,9363 0,5158 -4661,8833 -11170,8833 -6599,0 -10784,-3475 -11329,-8522l-5895 0c441,8150 7019,13817 17293,13817 9632,0 17307,-5874 17307,-14328 0,-6922 -4744,-11515 -12157,-11956l0 -124c6137,-1083 10060,-5537 10060,-11729 0,-7426 -6612,-12687 -15383,-12687 -9225,0 -15431,5330 -16107,13722l5889 0c538,-5172 4289,-8426 9936,-8426 6233,0 9529,3316 9529,8219 0,4992 -3937,8653 -9598,8653l-5889 0 -14 5165z"/>
  <polygon id="1" class="fil1" points="1422555,1856144 1428478,1856144 1428478,1806989 1422493,1806989 1409420,1816387 1409420,1822861 1422424,1813498 1422555,1813498 "/>
  <polygon id="2" class="fil1" points="1443737,1856144 1450177,1856144 1472008,1812656 1472008,1806989 1439497,1806989 1439497,1812429 1465947,1812429 1465947,1812553 "/>
  <path id="3" class="fil1" d="M1495548 1856972c11446,0 18024,-9916 18024,-25478 0,-15438 -6613,-25340 -18024,-25340 -11412,0 -18093,9971 -18093,25374 0,15563 6612,25444 18093,25444zm0 -5351c-7702,0 -11957,-7840 -11957,-20127 0,-12005 4358,-19975 11957,-19975 7598,0 11887,7902 11887,20009 0,12288 -4220,20093 -11887,20093z"/>
  <line class="fil0 str0" x1="2531788" y1="1911078" x2="2569270" y2= "1873596" />
  <line class="fil0 str1" x1="399196" y1="1892344" x2="2828769" y2= "1892344" />
  <line class="fil0 str1" x1="4725036" y1="4140933" x2="4725036" y2= "1345764" />
  <line class="fil0 str0" x1="4706295" y1="4159674" x2="4743778" y2= "4122192" />
  <path class="fil1" d="M4687741 2796479l0 -5923 -10247 0 0 -6943 -5371 0 0 6943 -33538 0 0 9047c16638,11611 25602,17362 33372,21561l5537 0 0 -24685 10247 0zm-15749 18617c-6819,-3882 -15031,-9225 -28318,-18520l0 -97 28449 0 0 18617 -131 0z"/>
  <path id="1" class="fil1" d="M4688568 2760466c0,-11446 -9915,-18024 -25478,-18024 -15438,0 -25339,6612 -25339,18024 0,11411 9970,18093 25374,18093 15562,0 25443,-6613 25443,-18093zm-5351 0c0,7702 -7840,11956 -20127,11956 -12004,0 -19975,-4358 -19975,-11956 0,-7599 7902,-11887 20010,-11887 12287,0 20092,4219 20092,11887z"/>
  <path id="2" class="fil1" d="M4688575 2718495c0,-10253 -6902,-17507 -16790,-17507 -9543,0 -16452,6813 -16452,16245 0,4696 1765,8791 4730,10998l0 138 -16038 -1496 0 -23079 -5440 0 0 28105 27539 2696 0 -5750c-3441,-2007 -5516,-5923 -5516,-10529 0,-6530 4737,-11191 11349,-11191 6613,0 11253,4626 11253,11294 0,5895 -3613,10357 -8860,10901l0 6020c8385,-510 14225,-7447 14225,-16845z"/>
  <path id="3" class="fil1" d="M4688568 2677386c0,-11446 -9915,-18024 -25478,-18024 -15438,0 -25339,6612 -25339,18024 0,11411 9970,18093 25374,18093 15562,0 25443,-6613 25443,-18093zm-5351 0c0,7702 -7840,11956 -20127,11956 -12004,0 -19975,-4358 -19975,-11956 0,-7598 7902,-11887 20010,-11887 12287,0 20092,4220 20092,11887z"/>
  <path class="fil0 str7" d="M5372996 1348750l91064 0 0 1008190 -91064 0c0,-685572 0,-284426 0,-1008190z"/>
  <path class="fil0 str8" d="M5464060 1633237l-19665 19665m19665 -57043l-57043 57043m57043 -94422l-91064 91064m91064 -128443l-91064 91065m91064 -128450l-91064 91071m91064 -128450l-91064 91071m91064 -128450l-91064 91065m91064 -128444l-91064 91065m76516 -113894l-76516 76515m39137 -76515l-39137 39137m1758 -39137l-1758 1758m34021 302394l-34021 34021m91064 581766l-88251 88251m88251 -125630l-91064 91065m91064 -128444l-91064 91065m91064 -128443l-91064 91064m91064 -128443l-91064 91065m91064 -128451l-91064 91072m91064 -128450l-91064 91071m91064 -128450l-91064 91071m91064 -128450l-91064 91065m91064 -128443l-91064 91064m91064 -128443l-91064 91064m91064 -128443l-91064 91065m91064 -128443l-91064 91064m91064 -128450l-91064 91071m91064 -128450l-91064 91072m91064 -128450l-91064 91064m91064 -128443l-91064 91064m71399 -108778l-71399 71400"/>
  <line class="fil0 str9" x1="5410837" y1="2356940" x2="5465888" y2= "2301889" />
  <path class="fil0 str7" d="M5464060 4140933l-91064 0 0 -1008190 91064 0c0,685572 0,284425 0,1008190z"/>
  <path class="fil0 str8" d="M5372996 3856446l19665 -19665m-19665 57043l57044 -57043m-57044 94422l91064 -91065m-91064 128444l91064 -91065m-91064 128450l91064 -91071m-91064 128450l91064 -91071m-91064 128450l91064 -91065m-91064 128443l91064 -91064m-76515 113894l76515 -76515m-39137 76515l39137 -39137m-1758 39137l1758 -1758m-34020 -302394l34020 -34021m-91064 -581766l88251 -88251m-88251 125630l91064 -91065m-91064 128443l91064 -91064m-91064 128443l91064 -91064m-91064 128443l91064 -91065m-91064 128450l91064 -91071m-91064 128450l91064 -91071m-91064 128450l91064 -91072m-91064 128450l91064 -91064m-91064 128443l91064 -91064m-91064 128443l91064 -91065m-91064 128443l91064 -91064m-91064 128443l91064 -91064m-91064 128450l91064 -91072m-91064 128450l91064 -91071m-91064 128450l91064 -91064m-91064 128443l91064 -91065m-71399 108779l71399 -71400"/>
  <line class="fil0 str8" x1="5426220" y1="3132743" x2="5371169" y2= "3187794" />
  <polygon class="fil1" points="5562248,3696533 5562248,3690610 5513092,3690610 5513092,3696595 5522490,3709668 5528965,3709668 5519601,3696664 5519601,3696533 "/>
  <path id="1" class="fil1" d="M5562248 3654817l0 -5923 -10247 0 0 -6943 -5371 0 0 6943 -33538 0 0 9047c16638,11611 25602,17362 33372,21561l5537 0 0 -24685 10247 0zm-15749 18617c-6819,-3882 -15032,-9226 -28318,-18520l0 -97 28449 0 0 18617 -131 0z"/>
  <polygon id="2" class="fil1" points="5562248,3633849 5562248,3627409 5518760,3605579 5513092,3605579 5513092,3638089 5518532,3638089 5518532,3611640 5518656,3611640 "/>
  <path id="3" class="fil1" d="M5563075 3582039c0,-11446 -9915,-18024 -25478,-18024 -15438,0 -25339,6612 -25339,18024 0,11411 9970,18093 25374,18093 15562,0 25443,-6613 25443,-18093zm-5351 0c0,7702 -7840,11956 -20127,11956 -12004,0 -19975,-4358 -19975,-11956 0,-7599 7902,-11888 20010,-11888 12287,0 20092,4220 20092,11888z"/>
  <line class="fil0 str1" x1="5605832" y1="3132743" x2="5605832" y2= "4140933" />
  <line class="fil0 str1" x1="5477568" y1="3132743" x2="5605832" y2= "3132743" />
  <line class="fil0 str0" x1="5587091" y1="3151484" x2="5624573" y2= "3114002" />
  <line class="fil0 str1" x1="5372996" y1="2458499" x2="5464060" y2= "2458499" />
  <line class="fil0 str1" x1="5372996" y1="2458499" x2="5372996" y2= "2363718" />
  <line class="fil0 str1" x1="5464060" y1="2458499" x2="5464060" y2= "2363718" />
  <line class="fil0 str0" x1="5354255" y1="2477240" x2="5391737" y2= "2439758" />
  <line class="fil0 str0" x1="5445319" y1="2477240" x2="5482801" y2= "2439758" />
  <polygon class="fil1" points="5378581,2561216 5384504,2561216 5384504,2512061 5378519,2512061 5365446,2521459 5365446,2527933 5378450,2518570 5378581,2518570 "/>
  <path id="1" class="fil1" d="M5396660 2526223l0 42 5923 0 0 -42c0,-5481 4351,-9639 10088,-9639 5405,0 9715,3785 9715,8515 0,4089 -1558,6716 -8143,13680l-17273 18231 0 4206 32366 0 0 -5440 -23905 0 0 -124 12411 -12853c8192,-8495 10681,-12583 10681,-18072 0,-7530 -6916,-13494 -15673,-13494 -9253,0 -16190,6406 -16190,14990z"/>
  <path id="2" class="fil1" d="M5453587 2562044c11446,0 18024,-9916 18024,-25478 0,-15438 -6613,-25340 -18024,-25340 -11412,0 -18093,9971 -18093,25374 0,15563 6612,25444 18093,25444zm0 -5351c-7702,0 -11957,-7840 -11957,-20127 0,-12004 4358,-19975 11957,-19975 7598,0 11887,7902 11887,20009 0,12288 -4220,20093 -11887,20093z"/>
  <line class="fil0 str1" x1="5372996" y1="3122269" x2="5372996" y2= "3027488" />
  <line class="fil0 str0" x1="5354255" y1="3046229" x2="5391737" y2= "3008747" />
  <path class="fil0 str1" d="M4518299 1106936l-58064 58064m1291561 -58064l-241807 241814m1179432 -20693l-7 7m7 -37385l-7 6m7 -37385l-7 7m7 -37393l-7 7m7 -37385l-7 6m7 -37385l-7 7m-460466 198822l-8764 8764m8764 -46143l-46142 46143m46142 -83522l-83521 83522m83521 -120900l-120900 120900m-393631 -241814l-241807 241814m756338 -158286l-158279 158286m158279 -195665l-195657 195665m195657 -233043l-233036 233043m204428 -241814l-241807 241814m204428 -241814l-241806 241814m204428 -241814l-241807 241814m204428 -241814l-241807 241814m204428 -241814l-241806 241814m204427 -241814l-241806 241814m204428 -241814l-241807 241814m204428 -241814l-241806 241814m204427 -241814l-241806 241814m204428 -241814l-241807 241814m204428 -241814l-241807 241814m204428 -241814l-241806 241814m129670 -241814l-241806 241814m204428 -241814l-241807 241814m204428 -241814l-241807 241814m204428 -241814l-241806 241814m204427 -241814l-241806 241814m204428 -241814l-241807 241814m204428 -241814l-241807 241814m204428 -241814l-241806 241814m204428 -241814l-241807 241814m204428 -241814l-241807 241814m204428 -241814l-241806 241814m204428 -241814l-241807 241814m204428 -241814l-241807 241814m204428 -241814l-241806 241814m204428 -241814l-241807 241814m204428 -241814l-241807 241814m-393631 -241814l-20685 20686m618744 -20686l-241806 241814m204427 -241814l-241806 241814m204428 -241814l-241807 241814m204428 -241814l-241807 241814m204428 -241814l-241806 241814m204428 -241814l-241807 241814m204428 -241814l-241807 241814m204428 -241814l-241806 241814m204428 -241814l-241807 241814m204428 -241814l-241807 241814m204428 -241814l-241806 241814m204427 -241814l-207578 207586m170200 -207586l-170200 170207m132821 -170207l-132821 132829m95442 -132829l-95442 95443"/>
  <rect class="fil0 str0" transform="matrix(4.98808E-014 0.535643 0.336537 -2.53489E-015 6.22895E+006 1.20245E+006)" width="94871" height="1368256"/>
  <line class="fil0 str0" x1="4706295" y1="1367491" x2="4743778" y2= "1330009" />
  <path class="fil0 str0" d="M6637211 4215346l-501127 0 0 404656 501127 0 0 -404656zm-538506 0l-210819 0 0 404656 210819 0 0 -404656zm-260154 0l-465555 0 0 -74413 1264215 0 52203 0 14 0 0 528404 -52217 0 -749325 0 -16156 0 -33179 0 0 -453991z"/>
  <path class="fil0 str1" d="M6106669 4140933l-74406 74413m657151 -21713l-21713 21713m21713 -59099l-59092 59099m-561032 -74413l-74405 74413m672465 -74413l-74406 74413m37027 -74413l-74406 74413m37027 -74413l-74406 74413m37027 -74413l-74405 74413m37027 -74413l-74406 74413m37027 -74413l-74406 74413m37027 -74413l-74405 74413m37027 -74413l-74406 74413m37027 -74413l-74406 74413m37027 -74413l-74405 74413m37027 -74413l-74406 74413m37027 -74413l-74406 74413m37027 -74413l-74406 74413m37028 -74413l-74406 74413m37027 -74413l-74406 74413m-37730 -74413l-74406 74413m37027 -74413l-74406 74413m37027 -74413l-74405 74413m37027 -74413l-74406 74413m37027 -74413l-74406 74413m37027 -74413l-74405 74413m37027 -74413l-74406 74413m37027 -74413l-74406 74413m37027 -74413l-74406 74413m37027 -74413l-74405 74413m37027 -74413l-74406 74413m37027 -74413l-74406 74413m37027 -74413l-74405 74413m37027 -74413l-74406 74413m37027 -74413l-74406 74413m37027 -74413l-74405 74413"/>
  <path class="fil0 str10" d="M5445381 4166783l-48555 48563m37027 -74413l-60857 60864m23478 -60864l-23478 23492"/>
  <path class="fil0 str1" d="M6689428 4642170l-27167 27167m27167 -64545l-52217 52217m52217 -89603l-52217 52224m52217 -89603l-52217 52217m52217 -89595l-52217 52217m52217 -89596l-52217 52217m52217 -89596l-52217 52217m52217 -89595l-52217 52217m52217 -89596l-52217 52217m52217 -89596l-52217 52217m52217 -89602l-52217 52224m52217 -89603l-52217 52217m30490 -67862l-30490 30483"/>
  <path class="fil0 str1" d="M5887934 4359682l-15887 15887m15887 -53265l-49335 49335m49335 -86714l-49335 49335m49335 -86714l-49335 49335m44150 -81535l-44150 44156m6771 -44156l-6771 6771"/>
  <path class="fil0 str1" d="M6637259 4656967l-12370 12370m11956 -49335l-49335 49335m11957 -49335l-49335 49335m11956 -49335l-49335 49335m11956 -49335l-49335 49335m11957 -49335l-49335 49335m11956 -49335l-49335 49335m11956 -49335l-49335 49335m11956 -49335l-49334 49335m11956 -49335l-49335 49335m11956 -49335l-49335 49335m11956 -49335l-49335 49335m11957 -49335l-49335 49335m11956 -49335l-49335 49335m11956 -49335l-49335 49335m11957 -49335l-49335 49335m11956 -49335l-49335 49335m11956 -49335l-49335 49335m11957 -49335l-49335 49335m11956 -49335l-49335 49335m11956 -49335l-49335 49335m11956 -49335l-49334 49335m47997 -85376l-49335 49335m49335 -86713l-49335 49335m49335 -86721l-49335 49342m49335 -86721l-49335 49335m49335 -86713l-49335 49335m49335 -86714l-49335 49335m33448 -70827l-33448 33448"/>
  <path class="fil0 str1" d="M6136077 4597462l-22540 22540m22540 -59919l-37379 37379m37379 -74757l-37379 37378m37379 -74757l-37379 37379m37379 -74758l-37379 37379m37379 -74757l-37379 37378m37379 -74757l-37379 37379m37379 -74765l-37379 37386m37379 -74764l-37379 37378m37379 -74757l-37379 37379m37379 -74758l-37379 37379m8323 -45701l-8323 8322"/>
  <polygon class="fil2 str11" points="5887886,4215346 6098705,4215346 5915942,4243402 5887886,4618610 "/>
  <polygon class="fil2 str12" points="6134691,4215346 6637211,4215346 6164140,4243402 6136084,4618610 "/>
  <path class="fil0 str10" d="M5445381 4166783l-48555 48563m37027 -74413l-60857 60864m23478 -60864l-23478 23492"/>
  <line class="fil0 str0" x1="5587091" y1="4159674" x2="5624573" y2= "4122192" />
  <line class="fil0 str1" x1="399196" y1="3027488" x2="5372996" y2= "3027488" />
  <line class="fil0 str0" x1="380455" y1="3046229" x2="417937" y2= "3008747" />
  <polygon class="fil1" points="2817772,2974154 2824212,2974154 2846042,2930666 2846042,2924998 2813531,2924998 2813531,2930439 2839981,2930439 2839981,2930563 "/>
  <path id="1" class="fil1" d="M2852799 2939161l0 41 5923 0 0 -41c0,-5482 4351,-9639 10088,-9639 5405,0 9715,3785 9715,8515 0,4089 -1558,6716 -8143,13680l-17273 18231 0 4206 32366 0 0 -5440 -23905 0 0 -124 12411 -12853c8191,-8495 10681,-12584 10681,-18072 0,-7530 -6916,-13494 -15673,-13494 -9253,0 -16190,6405 -16190,14990z"/>
  <polygon id="2" class="fil1" points="2905092,2974154 2911015,2974154 2911015,2924998 2905030,2924998 2891957,2934396 2891957,2940871 2904961,2931507 2905092,2931507 "/>
  <path id="3" class="fil1" d="M2940637 2974981c11445,0 18023,-9915 18023,-25477 0,-15439 -6612,-25340 -18023,-25340 -11412,0 -18093,9970 -18093,25374 0,15563 6612,25443 18093,25443zm0 -5350c-7702,0 -11957,-7840 -11957,-20127 0,-12005 4358,-19976 11957,-19976 7598,0 11887,7902 11887,20010 0,12287 -4220,20093 -11887,20093z"/>
  <line class="fil0 str1" x1="2722418" y1="4178146" x2="3249437" y2= "4178146" />
  <line class="fil0 str0" x1="3230695" y1="4196887" x2="3268178" y2= "4159405" />
  <line class="fil0 str0" x1="2703677" y1="4196887" x2="2741159" y2= "4159405" />
  <path class="fil1" d="M2942595 4119200c12018,0 19024,-9674 19024,-26209 0,-5357 -793,-9798 -2421,-13583 -2992,-7054 -8839,-11026 -16231,-11026 -10074,0 -17396,7075 -17396,16804 0,9343 6950,16245 16307,16245 6260,0 11639,-3165 13721,-8033 35,0 35,0 55,0 0,0 42,0 42,0 -166,13025 -4862,20451 -13032,20451 -4868,0 -8854,-2924 -10143,-7385l-6226 0c1496,7688 7922,12736 16300,12736zm338 -23141c-6427,0 -11157,-4668 -11157,-11087 0,-6178 4965,-11081 11260,-11081 6337,0 11225,4937 11225,11260 0,6275 -4819,10908 -11328,10908z"/>
  <path id="1" class="fil1" d="M2985896 4119200c11446,0 18024,-9916 18024,-25478 0,-15438 -6612,-25340 -18024,-25340 -11411,0 -18093,9971 -18093,25374 0,15563 6613,25444 18093,25444zm0 -5351c-7702,0 -11956,-7840 -11956,-20127 0,-12004 4358,-19975 11956,-19975 7599,0 11888,7902 11888,20009 0,12288 -4220,20093 -11888,20093z"/>
  <path id="2" class="fil1" d="M3028184 4119200c11446,0 18024,-9916 18024,-25478 0,-15438 -6612,-25340 -18024,-25340 -11411,0 -18092,9971 -18092,25374 0,15563 6612,25444 18092,25444zm0 -5351c-7701,0 -11956,-7840 -11956,-20127 0,-12004 4358,-19975 11956,-19975 7599,0 11888,7902 11888,20009 0,12288 -4220,20093 -11888,20093z"/>
  <line class="fil0 str1" x1="2426264" y1="2939582" x2="2426264" y2= "2356940" />
  <line class="fil0 str0" x1="2445005" y1="2375681" x2="2407523" y2= "2338199" />
  <line class="fil0 str0" x1="2445005" y1="2958323" x2="2407523" y2= "2920841" />
  <polygon class="fil1" points="2366490,2710765 2366490,2704843 2317334,2704843 2317334,2710828 2326732,2723901 2333207,2723901 2323843,2710896 2323843,2710765 "/>
  <path id="1" class="fil1" d="M2367317 2675221c0,-11446 -9915,-18024 -25477,-18024 -15439,0 -25340,6612 -25340,18024 0,11411 9970,18093 25374,18093 15563,0 25443,-6613 25443,-18093zm-5350 0c0,7702 -7840,11956 -20127,11956 -12005,0 -19976,-4358 -19976,-11956 0,-7599 7902,-11887 20010,-11887 12287,0 20093,4219 20093,11887z"/>
  <path id="2" class="fil1" d="M2367317 2632933c0,-11446 -9915,-18024 -25477,-18024 -15439,0 -25340,6612 -25340,18024 0,11411 9970,18093 25374,18093 15563,0 25443,-6613 25443,-18093zm-5350 0c0,7702 -7840,11956 -20127,11956 -12005,0 -19976,-4358 -19976,-11956 0,-7599 7902,-11887 20010,-11887 12287,0 20093,4219 20093,11887z"/>
  <path id="3" class="fil1" d="M2367317 2590645c0,-11446 -9915,-18024 -25477,-18024 -15439,0 -25340,6612 -25340,18024 0,11411 9970,18093 25374,18093 15563,0 25443,-6613 25443,-18093zm-5350 0c0,7702 -7840,11956 -20127,11956 -12005,0 -19976,-4358 -19976,-11956 0,-7599 7902,-11887 20010,-11887 12287,0 20093,4219 20093,11887z"/>
  <line class="fil0 str0" x1="2622852" y1="1911078" x2="2660334" y2= "1873596" />
  <polygon class="fil1" points="2731127,1856144 2737050,1856144 2737050,1806989 2731065,1806989 2717992,1816387 2717992,1822861 2730996,1813498 2731127,1813498 "/>
  <path id="1" class="fil1" d="M2749206 1821151l0 42 5923 0 0 -42c0,-5481 4351,-9639 10088,-9639 5405,0 9715,3785 9715,8515 0,4089 -1558,6716 -8143,13680l-17273 18231 0 4206 32366 0 0 -5440 -23905 0 0 -124 12411 -12853c8191,-8495 10681,-12584 10681,-18072 0,-7530 -6916,-13494 -15673,-13494 -9253,0 -16190,6406 -16190,14990z"/>
  <path id="2" class="fil1" d="M2806133 1856972c11445,0 18023,-9916 18023,-25478 0,-15438 -6612,-25340 -18023,-25340 -11412,0 -18093,9971 -18093,25374 0,15563 6612,25444 18093,25444zm0 -5351c-7702,0 -11957,-7840 -11957,-20127 0,-12005 4358,-19975 11957,-19975 7598,0 11887,7902 11887,20009 0,12288 -4220,20093 -11887,20093z"/>
  <line class="fil0 str1" x1="4821383" y1="4178146" x2="5372996" y2= "4178146" />
  <line class="fil0 str0" x1="5354255" y1="4196887" x2="5391737" y2= "4159405" />
  <line class="fil0 str0" x1="4802642" y1="4196887" x2="4840124" y2= "4159405" />
  <path class="fil1" d="M5053895 4119200c12018,0 19023,-9674 19023,-26209 0,-5357 -793,-9798 -2420,-13583 -2992,-7054 -8840,-11026 -16231,-11026 -10074,0 -17397,7075 -17397,16804 0,9343 6951,16245 16307,16245 6261,0 11639,-3165 13722,-8033 34,0 34,0 55,0 0,0 41,0 41,0 -165,13025 -4861,20451 -13032,20451 -4868,0 -8853,-2924 -10142,-7385l-6227 0c1497,7688 7923,12736 16301,12736zm337 -23141c-6426,0 -11156,-4668 -11156,-11087 0,-6178 4965,-11081 11260,-11081 6336,0 11225,4937 11225,11260 0,6275 -4820,10908 -11329,10908z"/>
  <path id="1" class="fil1" d="M5097196 4119200c11446,0 18024,-9916 18024,-25478 0,-15438 -6612,-25340 -18024,-25340 -11411,0 -18093,9971 -18093,25374 0,15563 6613,25444 18093,25444zm0 -5351c-7702,0 -11956,-7840 -11956,-20127 0,-12004 4358,-19975 11956,-19975 7599,0 11887,7902 11887,20009 0,12288 -4219,20093 -11887,20093z"/>
  <path id="2" class="fil1" d="M5139484 4119200c11446,0 18024,-9916 18024,-25478 0,-15438 -6612,-25340 -18024,-25340 -11411,0 -18093,9971 -18093,25374 0,15563 6613,25444 18093,25444zm0 -5351c-7702,0 -11956,-7840 -11956,-20127 0,-12004 4358,-19975 11956,-19975 7599,0 11887,7902 11887,20009 0,12288 -4219,20093 -11887,20093z"/>
  <path class="fil1" d="M3651390 2559775l5923 0 0 -21092c0,-6426 4165,-10646 10357,-10646 5833,0 9308,3537 9308,9391l0 22347 5930 0 0 -23402c0,-8157 -5420,-13611 -13459,-13611 -5627,0 -9716,2151 -12005,6302l-131 0 0 -20534 -5923 0 0 51245z"/>
  <path id="1" class="fil1" d="M3724486 2549529l0 -5234 -33262 0 0 5234 33262 0zm0 -13039l0 -5233 -33262 0 0 5233 33262 0z"/>
  <path id="2" class="fil1" d="M3732643 2524782l0 42 5923 0 0 -42c0,-5481 4351,-9639 10087,-9639 5406,0 9716,3785 9716,8515 0,4089 -1559,6716 -8143,13680l-17273 18231 0 4206 32366 0 0 -5440 -23906 0 0 -124 12412 -12853c8191,-8495 10680,-12584 10680,-18072 0,-7530 -6915,-13494 -15672,-13494 -9254,0 -16190,6406 -16190,14990z"/>
  <polygon id="3" class="fil1" points="3775207,2559775 3781647,2559775 3803477,2516287 3803477,2510620 3770966,2510620 3770966,2516060 3797416,2516060 3797416,2516184 "/>
  <path id="4" class="fil1" d="M3820529 2537118l6157 0c7012,0 11370,3578 11370,9363 0,5158 -4661,8833 -11170,8833 -6599,0 -10784,-3475 -11329,-8522l-5895 0c441,8150 7019,13817 17293,13817 9632,0 17307,-5874 17307,-14328 0,-6922 -4744,-11515 -12156,-11956l0 -124c6136,-1083 10060,-5537 10060,-11729 0,-7426 -6613,-12687 -15383,-12687 -9226,0 -15432,5330 -16108,13722l5889 0c538,-5172 4289,-8426 9936,-8426 6233,0 9529,3316 9529,8219 0,4992 -3937,8653 -9598,8653l-5889 0 -13 5165z"/>
  <path id="5" class="fil1" d="M3868967 2560603c11446,0 18024,-9916 18024,-25478 0,-15438 -6612,-25340 -18024,-25340 -11411,0 -18093,9971 -18093,25374 0,15563 6613,25444 18093,25444zm0 -5351c-7702,0 -11956,-7840 -11956,-20127 0,-12005 4358,-19975 11956,-19975 7599,0 11887,7901 11887,20009 0,12288 -4219,20093 -11887,20093z"/>
  <rect class="fil0 str0" x="3584473" y="2442840" width="369436" height="184721"/>
  <line class="fil0 str1" x1="495859" y1="3171928" x2="606775" y2= "3171928" />
  <line class="fil0 str1" x1="495859" y1="3425960" x2="606775" y2= "3425960" />
  <line class="fil0 str1" x1="484965" y1="3438578" x2="484965" y2= "3549493" />
  <line class="fil0 str1" x1="606775" y1="3425960" x2="606775" y2= "3171928" />
  <line class="fil0 str0" x1="588034" y1="3190669" x2="625516" y2= "3153187" />
  <line class="fil0 str0" x1="588034" y1="3444701" x2="625516" y2= "3407219" />
  <path class="fil1" d="M547786 3347610l0 -6157c0,-7013 3579,-11371 9364,-11371 5158,0 8833,4662 8833,11171 0,6598 -3475,10784 -8523,11328l0 5896c8150,-442 13818,-7020 13818,-17293 0,-9633 -5874,-17307 -14328,-17307 -6923,0 -11515,4744 -11956,12156l-124 0c-1083,-6137 -5537,-10060 -11729,-10060 -7426,0 -12687,6612 -12687,15383 0,9226 5330,15431 13721,16107l0 -5888c-5171,-538 -8426,-4289 -8426,-9936 0,-6234 3317,-9529 8220,-9529 4992,0 8653,3937 8653,9598l0 5888 5164 14z"/>
  <path id="1" class="fil1" d="M571278 3298599c0,-10094 -7060,-17383 -16769,-17383 -9315,0 -16210,6916 -16210,16294 0,6102 3165,11515 7950,13735 0,0 0,96 0,96 -13060,-200 -20368,-4875 -20368,-13087 0,-4868 2868,-8819 7343,-10156l0 -6192c-7750,1551 -12763,7936 -12763,16279 0,12039 9715,19079 26264,19079 5309,0 9729,-793 13507,-2413 7075,-3034 11046,-8895 11046,-16252zm-5433 62c0,6309 -4999,11212 -11301,11212 -6247,0 -10874,-4799 -10874,-11308 0,-6516 4627,-11143 11053,-11143 6192,0 11122,4971 11122,11239z"/>
  <path id="2" class="fil1" d="M571271 3257428c0,-11446 -9915,-18024 -25477,-18024 -15439,0 -25340,6613 -25340,18024 0,11412 9970,18093 25374,18093 15563,0 25443,-6613 25443,-18093zm-5350 0c0,7702 -7840,11956 -20127,11956 -12005,0 -19976,-4358 -19976,-11956 0,-7598 7902,-11887 20010,-11887 12287,0 20093,4220 20093,11887z"/>
  <line class="fil0 str1" x1="484330" y1="3549493" x2="2550529" y2= "3549493" />
  <line class="fil0 str0" x1="465589" y1="3568235" x2="503071" y2= "3530752" />
  <path class="fil1" d="M1467636 3490636l6157 0c7013,0 11371,3579 11371,9364 0,5158 -4662,8833 -11171,8833 -6598,0 -10784,-3476 -11328,-8523l-5896 0c442,8150 7020,13818 17293,13818 9633,0 17307,-5875 17307,-14328 0,-6923 -4744,-11515 -12156,-11956l0 -124c6137,-1083 10060,-5537 10060,-11729 0,-7426 -6612,-12687 -15383,-12687 -9226,0 -15431,5330 -16107,13721l5888 0c538,-5171 4289,-8426 9936,-8426 6233,0 9529,3317 9529,8219 0,4993 -3937,8654 -9598,8654l-5888 0 -14 5164z"/>
  <path id="1" class="fil1" d="M1516075 3514121c11446,0 18024,-9915 18024,-25477 0,-15439 -6613,-25340 -18024,-25340 -11412,0 -18093,9970 -18093,25374 0,15562 6612,25443 18093,25443zm0 -5350c-7702,0 -11957,-7840 -11957,-20127 0,-12005 4358,-19976 11957,-19976 7598,0 11887,7902 11887,20010 0,12287 -4220,20093 -11887,20093z"/>
  <polygon id="2" class="fil1" points="1542642,3513294 1549082,3513294 1570912,3469806 1570912,3464138 1538401,3464138 1538401,3469578 1564851,3469578 1564851,3469703 "/>
  <path id="3" class="fil1" d="M1594452 3514121c11446,0 18024,-9915 18024,-25477 0,-15439 -6613,-25340 -18024,-25340 -11412,0 -18093,9970 -18093,25374 0,15562 6612,25443 18093,25443zm0 -5350c-7702,0 -11956,-7840 -11956,-20127 0,-12005 4357,-19976 11956,-19976 7598,0 11887,7902 11887,20010 0,12287 -4220,20093 -11887,20093z"/>
  <line class="fil0 str0" x1="2531788" y1="3568235" x2="2569270" y2= "3530752" />
  <line class="fil0 str1" x1="606775" y1="883636" x2="606775" y2= "3171928" />
  <line class="fil0 str0" x1="588034" y1="902377" x2="625516" y2= "864895" />
  <line class="fil0 str1" x1="606775" y1="3425960" x2="606775" y2= "4140933" />
  <polygon class="fil1" points="570444,3845069 570444,3839146 521288,3839146 521288,3845131 530686,3858204 537161,3858204 527797,3845200 527797,3845069 "/>
  <path id="1" class="fil1" d="M571271 3809524c0,-11446 -9915,-18024 -25477,-18024 -15439,0 -25340,6612 -25340,18024 0,11411 9970,18093 25374,18093 15563,0 25443,-6613 25443,-18093zm-5350 0c0,7702 -7840,11956 -20127,11956 -12005,0 -19976,-4358 -19976,-11956 0,-7599 7902,-11887 20010,-11887 12287,0 20093,4220 20093,11887z"/>
  <path id="2" class="fil1" d="M571278 3767553c0,-10253 -6902,-17507 -16789,-17507 -9543,0 -16452,6813 -16452,16245 0,4696 1765,8792 4730,10998l0 138 -16038 -1496 0 -23078 -5441 0 0 28104 27540 2696 0 -5750c-3441,-2007 -5517,-5923 -5517,-10529 0,-6530 4737,-11191 11350,-11191 6612,0 11253,4627 11253,11294 0,5896 -3613,10357 -8860,10901l0 6020c8384,-510 14224,-7447 14224,-16845z"/>
  <path id="3" class="fil1" d="M571271 3726444c0,-11446 -9915,-18024 -25477,-18024 -15439,0 -25340,6613 -25340,18024 0,11412 9970,18093 25374,18093 15563,0 25443,-6612 25443,-18093zm-5350 0c0,7702 -7840,11956 -20127,11956 -12005,0 -19976,-4357 -19976,-11956 0,-7598 7902,-11887 20010,-11887 12287,0 20093,4220 20093,11887z"/>
  <path class="fil1" d="M547786 2091800l0 -6157c0,-7013 3579,-11370 9364,-11370 5158,0 8833,4661 8833,11170 0,6599 -3475,10784 -8523,11329l0 5895c8150,-441 13818,-7019 13818,-17293 0,-9633 -5874,-17307 -14328,-17307 -6923,0 -11515,4744 -11956,12156l-124 0c-1083,-6136 -5537,-10060 -11729,-10060 -7426,0 -12687,6613 -12687,15383 0,9226 5330,15432 13721,16107l0 -5888c-5171,-538 -8426,-4289 -8426,-9936 0,-6233 3317,-9529 8220,-9529 4992,0 8653,3937 8653,9598l0 5888 5164 14z"/>
  <path id="1" class="fil1" d="M547786 2050533l0 -6158c0,-7012 3579,-11370 9364,-11370 5158,0 8833,4661 8833,11170 0,6599 -3475,10784 -8523,11329l0 5895c8150,-441 13818,-7019 13818,-17293 0,-9632 -5874,-17306 -14328,-17306 -6923,0 -11515,4743 -11956,12156l-124 0c-1083,-6137 -5537,-10060 -11729,-10060 -7426,0 -12687,6612 -12687,15383 0,9225 5330,15431 13721,16107l0 -5889c-5171,-537 -8426,-4288 -8426,-9936 0,-6233 3317,-9529 8220,-9529 4992,0 8653,3937 8653,9598l0 5889 5164 14z"/>
  <polygon id="2" class="fil1" points="570444,2006728 570444,2000805 521288,2000805 521288,2006790 530686,2019863 537161,2019863 527797,2006859 527797,2006728 "/>
  <path id="3" class="fil1" d="M571271 1971183c0,-11446 -9915,-18024 -25477,-18024 -15439,0 -25340,6613 -25340,18024 0,11412 9970,18093 25374,18093 15563,0 25443,-6612 25443,-18093zm-5350 0c0,7702 -7840,11956 -20127,11956 -12005,0 -19976,-4357 -19976,-11956 0,-7598 7902,-11887 20010,-11887 12287,0 20093,4220 20093,11887z"/>
  <line class="fil0 str0" x1="588034" y1="4159674" x2="625516" y2= "4122192" />
  <path class="fil0 str0" d="M1107901 951767l8640 0 0 28767 -8640 0 0 -28767zm41958 0l8639 0 0 28767 -8639 0 0 -28767zm41957 0l8639 0 0 28767 -8639 0 0 -28767zm41957 0l8639 0 0 28767 -8639 0 0 -28767zm41957 0l8639 0 0 28767 -8639 0 0 -28767zm41957 0l8640 0 0 28767 -8640 0 0 -28767zm41957 0l8640 0 0 28767 -8640 0 0 -28767zm41957 0l8640 0 0 28767 -8640 0 0 -28767zm41957 0l8640 0 0 28767 -8640 0 0 -28767zm41957 0l8640 0 0 28767 -8640 0 0 -28767zm41957 0l8640 0 0 28767 -8640 0 0 -28767zm41957 0l8640 0 0 28767 -8640 0 0 -28767zm41957 0l8640 0 0 28767 -8640 0 0 -28767zm41958 0l8639 0 0 28767 -8639 0 0 -28767zm41957 0l8639 0 0 28767 -8639 0 0 -28767zm41957 0l8639 0 0 28767 -8639 0 0 -28767zm41957 0l8639 0 0 28767 -8639 0 0 -28767zm41957 0l8640 0 0 28767 -8640 0 0 -28767zm41957 0l8640 0 0 28767 -8640 0 0 -28767z"/>
  <path class="fil0 str0" d="M1888427 921360l0 0c9164,0 16659,7495 16659,16651l0 56279c0,9157 -7495,16652 -16659,16652l0 0c-9163,0 -16658,-7495 -16658,-16652l0 -56279c0,-9156 7495,-16651 16658,-16651zm-41957 0l0 0c9164,0 16659,7495 16659,16651l0 56279c0,9157 -7495,16652 -16659,16652l0 0c-9163,0 -16658,-7495 -16658,-16652l0 -56279c0,-9156 7495,-16651 16658,-16651zm-41957 0l0 0c9164,0 16659,7495 16659,16651l0 56279c0,9157 -7495,16652 -16659,16652l0 0c-9164,0 -16659,-7495 -16659,-16652l0 -56279c0,-9156 7495,-16651 16659,-16651zm-41957 0l0 0c9164,0 16659,7495 16659,16651l0 56279c0,9157 -7495,16652 -16659,16652l0 0c-9164,0 -16659,-7495 -16659,-16652l0 -56279c0,-9156 7495,-16651 16659,-16651zm-41957 0l0 0c9164,0 16659,7495 16659,16651l0 56279c0,9157 -7495,16652 -16659,16652l0 0c-9164,0 -16659,-7495 -16659,-16652l0 -56279c0,-9156 7495,-16651 16659,-16651zm-41957 0l0 0c9164,0 16659,7495 16659,16651l0 56279c0,9157 -7495,16652 -16659,16652l0 0c-9164,0 -16659,-7495 -16659,-16652l0 -56279c0,-9156 7495,-16651 16659,-16651zm-41957 0l0 0c9163,0 16659,7495 16659,16651l0 56279c0,9157 -7496,16652 -16659,16652l0 0c-9164,0 -16659,-7495 -16659,-16652l0 -56279c0,-9156 7495,-16651 16659,-16651zm-41957 0l0 0c9163,0 16658,7495 16658,16651l0 56279c0,9157 -7495,16652 -16658,16652l0 0c-9164,0 -16659,-7495 -16659,-16652l0 -56279c0,-9156 7495,-16651 16659,-16651zm-41957 0l0 0c9163,0 16658,7495 16658,16651l0 56279c0,9157 -7495,16652 -16658,16652l0 0c-9164,0 -16659,-7495 -16659,-16652l0 -56279c0,-9156 7495,-16651 16659,-16651zm-41957 0l0 0c9163,0 16658,7495 16658,16651l0 56279c0,9157 -7495,16652 -16658,16652l0 0c-9164,0 -16659,-7495 -16659,-16652l0 -56279c0,-9156 7495,-16651 16659,-16651zm-41958 0l0 0c9164,0 16659,7495 16659,16651l0 56279c0,9157 -7495,16652 -16659,16652l0 0c-9163,0 -16658,-7495 -16658,-16652l0 -56279c0,-9156 7495,-16651 16658,-16651zm-41957 0l0 0c9164,0 16659,7495 16659,16651l0 56279c0,9157 -7495,16652 -16659,16652l0 0c-9163,0 -16658,-7495 -16658,-16652l0 -56279c0,-9156 7495,-16651 16658,-16651zm-41957 0l0 0c9164,0 16659,7495 16659,16651l0 56279c0,9157 -7495,16652 -16659,16652l0 0c-9163,0 -16658,-7495 -16658,-16652l0 -56279c0,-9156 7495,-16651 16658,-16651zm-41957 0l0 0c9164,0 16659,7495 16659,16651l0 56279c0,9157 -7495,16652 -16659,16652l0 0c-9163,0 -16658,-7495 -16658,-16652l0 -56279c0,-9156 7495,-16651 16658,-16651zm-41957 0l0 0c9164,0 16659,7495 16659,16651l0 56279c0,9157 -7495,16652 -16659,16652l0 0c-9164,0 -16659,-7495 -16659,-16652l0 -56279c0,-9156 7495,-16651 16659,-16651zm-41957 0l0 0c9164,0 16659,7495 16659,16651l0 56279c0,9157 -7495,16652 -16659,16652l0 0c-9164,0 -16659,-7495 -16659,-16652l0 -56279c0,-9156 7495,-16651 16659,-16651zm-41957 0l0 0c9164,0 16659,7495 16659,16651l0 56279c0,9157 -7495,16652 -16659,16652l0 0c-9164,0 -16659,-7495 -16659,-16652l0 -56279c0,-9156 7495,-16651 16659,-16651zm-41957 0l0 0c9164,0 16659,7495 16659,16651l0 56279c0,9157 -7495,16652 -16659,16652l0 0c-9164,0 -16659,-7495 -16659,-16652l0 -56279c0,-9156 7495,-16651 16659,-16651zm-41957 0l0 0c9163,0 16659,7495 16659,16651l0 56279c0,9157 -7496,16652 -16659,16652l0 0c-9164,0 -16659,-7495 -16659,-16652l0 -56279c0,-9156 7495,-16651 16659,-16651zm-41957 0l0 0c9163,0 16658,7495 16658,16651l0 56279c0,9157 -7495,16652 -16658,16652l0 0c-9164,0 -16659,-7495 -16659,-16652l0 -56279c0,-9156 7495,-16651 16659,-16651z"/>
  <path class="fil0 str0" d="M3593023 1416881l8639 0 0 28766 -8639 0 0 -28766zm41957 0l8639 0 0 28766 -8639 0 0 -28766zm41957 0l8639 0 0 28766 -8639 0 0 -28766zm41957 0l8640 0 0 28766 -8640 0 0 -28766zm41957 0l8640 0 0 28766 -8640 0 0 -28766zm41957 0l8640 0 0 28766 -8640 0 0 -28766zm41957 0l8640 0 0 28766 -8640 0 0 -28766zm41957 0l8640 0 0 28766 -8640 0 0 -28766zm41957 0l8640 0 0 28766 -8640 0 0 -28766zm41957 0l8640 0 0 28766 -8640 0 0 -28766zm41957 0l8640 0 0 28766 -8640 0 0 -28766zm41958 0l8639 0 0 28766 -8639 0 0 -28766zm41957 0l8639 0 0 28766 -8639 0 0 -28766zm41957 0l8639 0 0 28766 -8639 0 0 -28766zm41957 0l8639 0 0 28766 -8639 0 0 -28766zm41957 0l8640 0 0 28766 -8640 0 0 -28766zm41957 0l8640 0 0 28766 -8640 0 0 -28766zm41957 0l8640 0 0 28766 -8640 0 0 -28766zm41957 0l8640 0 0 28766 -8640 0 0 -28766z"/>
  <path class="fil0 str0" d="M4373549 1386473l0 0c9163,0 16658,7495 16658,16652l0 56278c0,9157 -7495,16652 -16658,16652l0 0c-9164,0 -16659,-7495 -16659,-16652l0 -56278c0,-9157 7495,-16652 16659,-16652zm-41958 0l0 0c9164,0 16659,7495 16659,16652l0 56278c0,9157 -7495,16652 -16659,16652l0 0c-9163,0 -16658,-7495 -16658,-16652l0 -56278c0,-9157 7495,-16652 16658,-16652zm-41957 0l0 0c9164,0 16659,7495 16659,16652l0 56278c0,9157 -7495,16652 -16659,16652l0 0c-9163,0 -16658,-7495 -16658,-16652l0 -56278c0,-9157 7495,-16652 16658,-16652zm-41957 0l0 0c9164,0 16659,7495 16659,16652l0 56278c0,9157 -7495,16652 -16659,16652l0 0c-9163,0 -16658,-7495 -16658,-16652l0 -56278c0,-9157 7495,-16652 16658,-16652zm-41957 0l0 0c9164,0 16659,7495 16659,16652l0 56278c0,9157 -7495,16652 -16659,16652l0 0c-9164,0 -16659,-7495 -16659,-16652l0 -56278c0,-9157 7495,-16652 16659,-16652zm-41957 0l0 0c9164,0 16659,7495 16659,16652l0 56278c0,9157 -7495,16652 -16659,16652l0 0c-9164,0 -16659,-7495 -16659,-16652l0 -56278c0,-9157 7495,-16652 16659,-16652zm-41957 0l0 0c9164,0 16659,7495 16659,16652l0 56278c0,9157 -7495,16652 -16659,16652l0 0c-9164,0 -16659,-7495 -16659,-16652l0 -56278c0,-9157 7495,-16652 16659,-16652zm-41957 0l0 0c9164,0 16659,7495 16659,16652l0 56278c0,9157 -7495,16652 -16659,16652l0 0c-9164,0 -16659,-7495 -16659,-16652l0 -56278c0,-9157 7495,-16652 16659,-16652zm-41957 0l0 0c9164,0 16659,7495 16659,16652l0 56278c0,9157 -7495,16652 -16659,16652l0 0c-9164,0 -16659,-7495 -16659,-16652l0 -56278c0,-9157 7495,-16652 16659,-16652zm-41957 0l0 0c9163,0 16658,7495 16658,16652l0 56278c0,9157 -7495,16652 -16658,16652l0 0c-9164,0 -16659,-7495 -16659,-16652l0 -56278c0,-9157 7495,-16652 16659,-16652zm-41957 0l0 0c9163,0 16658,7495 16658,16652l0 56278c0,9157 -7495,16652 -16658,16652l0 0c-9164,0 -16659,-7495 -16659,-16652l0 -56278c0,-9157 7495,-16652 16659,-16652zm-41957 0l0 0c9163,0 16658,7495 16658,16652l0 56278c0,9157 -7495,16652 -16658,16652l0 0c-9164,0 -16659,-7495 -16659,-16652l0 -56278c0,-9157 7495,-16652 16659,-16652zm-41957 0l0 0c9163,0 16658,7495 16658,16652l0 56278c0,9157 -7495,16652 -16658,16652l0 0c-9164,0 -16659,-7495 -16659,-16652l0 -56278c0,-9157 7495,-16652 16659,-16652zm-41958 0l0 0c9164,0 16659,7495 16659,16652l0 56278c0,9157 -7495,16652 -16659,16652l0 0c-9163,0 -16658,-7495 -16658,-16652l0 -56278c0,-9157 7495,-16652 16658,-16652zm-41957 0l0 0c9164,0 16659,7495 16659,16652l0 56278c0,9157 -7495,16652 -16659,16652l0 0c-9163,0 -16658,-7495 -16658,-16652l0 -56278c0,-9157 7495,-16652 16658,-16652zm-41957 0l0 0c9164,0 16659,7495 16659,16652l0 56278c0,9157 -7495,16652 -16659,16652l0 0c-9163,0 -16658,-7495 -16658,-16652l0 -56278c0,-9157 7495,-16652 16658,-16652zm-41957 0l0 0c9164,0 16659,7495 16659,16652l0 56278c0,9157 -7495,16652 -16659,16652l0 0c-9164,0 -16659,-7495 -16659,-16652l0 -56278c0,-9157 7495,-16652 16659,-16652zm-41957 0l0 0c9164,0 16659,7495 16659,16652l0 56278c0,9157 -7495,16652 -16659,16652l0 0c-9164,0 -16659,-7495 -16659,-16652l0 -56278c0,-9157 7495,-16652 16659,-16652zm-41957 0l0 0c9164,0 16659,7495 16659,16652l0 56278c0,9157 -7495,16652 -16659,16652l0 0c-9164,0 -16659,-7495 -16659,-16652l0 -56278c0,-9157 7495,-16652 16659,-16652zm-41957 0l0 0c9164,0 16659,7495 16659,16652l0 56278c0,9157 -7495,16652 -16659,16652l0 0c-9164,0 -16659,-7495 -16659,-16652l0 -56278c0,-9157 7495,-16652 16659,-16652z"/>
  <path class="fil0 str0" d="M6328466 1416881l8640 0 0 28766 -8640 0 0 -28766zm41957 0l8640 0 0 28766 -8640 0 0 -28766zm41957 0l8640 0 0 28766 -8640 0 0 -28766zm41957 0l8640 0 0 28766 -8640 0 0 -28766zm41957 0l8640 0 0 28766 -8640 0 0 -28766zm41957 0l8640 0 0 28766 -8640 0 0 -28766zm41957 0l8640 0 0 28766 -8640 0 0 -28766zm41958 0l8639 0 0 28766 -8639 0 0 -28766zm41957 0l8639 0 0 28766 -8639 0 0 -28766z"/>
  <path class="fil0 str0" d="M6689421 1386473l0 0 0 89582 0 0c-9164,0 -16659,-7495 -16659,-16652l0 -56278c0,-9157 7495,-16652 16659,-16652zm-41957 0l0 0c9164,0 16659,7495 16659,16652l0 56278c0,9157 -7495,16652 -16659,16652l0 0c-9164,0 -16659,-7495 -16659,-16652l0 -56278c0,-9157 7495,-16652 16659,-16652zm-41957 0l0 0c9163,0 16659,7495 16659,16652l0 56278c0,9157 -7496,16652 -16659,16652l0 0c-9164,0 -16659,-7495 -16659,-16652l0 -56278c0,-9157 7495,-16652 16659,-16652zm-41957 0l0 0c9163,0 16658,7495 16658,16652l0 56278c0,9157 -7495,16652 -16658,16652l0 0c-9164,0 -16659,-7495 -16659,-16652l0 -56278c0,-9157 7495,-16652 16659,-16652zm-41957 0l0 0c9163,0 16658,7495 16658,16652l0 56278c0,9157 -7495,16652 -16658,16652l0 0c-9164,0 -16659,-7495 -16659,-16652l0 -56278c0,-9157 7495,-16652 16659,-16652zm-41957 0l0 0c9163,0 16658,7495 16658,16652l0 56278c0,9157 -7495,16652 -16658,16652l0 0c-9164,0 -16659,-7495 -16659,-16652l0 -56278c0,-9157 7495,-16652 16659,-16652zm-41958 0l0 0c9164,0 16659,7495 16659,16652l0 56278c0,9157 -7495,16652 -16659,16652l0 0c-9163,0 -16658,-7495 -16658,-16652l0 -56278c0,-9157 7495,-16652 16658,-16652zm-41957 0l0 0c9164,0 16659,7495 16659,16652l0 56278c0,9157 -7495,16652 -16659,16652l0 0c-9163,0 -16658,-7495 -16658,-16652l0 -56278c0,-9157 7495,-16652 16658,-16652zm-41957 0l0 0c9164,0 16659,7495 16659,16652l0 56278c0,9157 -7495,16652 -16659,16652l0 0c-9163,0 -16658,-7495 -16658,-16652l0 -56278c0,-9157 7495,-16652 16658,-16652zm-41957 0l0 0c9164,0 16659,7495 16659,16652l0 56278c0,9157 -7495,16652 -16659,16652l0 0c-9163,0 -16659,-7495 -16659,-16652l0 -56278c0,-9157 7496,-16652 16659,-16652z"/>
  <polygon class="fil1" points="5566281,1912540 5566281,1906617 5517126,1906617 5517126,1912602 5526524,1925675 5532998,1925675 5523635,1912671 5523635,1912540 "/>
  <path id="1" class="fil1" d="M5566281 1870824l0 -5923 -10246 0 0 -6943 -5371 0 0 6943 -33538 0 0 9046c16638,11612 25601,17363 33372,21562l5537 0 0 -24685 10246 0zm-15748 18617c-6820,-3882 -15032,-9226 -28319,-18521l0 -96 28450 0 0 18617 -131 0z"/>
  <polygon id="2" class="fil1" points="5566281,1849856 5566281,1843416 5522793,1821586 5517126,1821586 5517126,1854096 5522566,1854096 5522566,1827646 5522690,1827646 "/>
  <path id="3" class="fil1" d="M5567109 1798045c0,-11445 -9916,-18023 -25478,-18023 -15438,0 -25340,6612 -25340,18023 0,11412 9971,18093 25374,18093 15563,0 25444,-6612 25444,-18093zm-5351 0c0,7702 -7840,11957 -20127,11957 -12005,0 -19975,-4358 -19975,-11957 0,-7598 7902,-11887 20009,-11887 12288,0 20093,4220 20093,11887z"/>
  <line class="fil0 str1" x1="5605832" y1="1348750" x2="5605832" y2= "2356940" />
  <line class="fil0 str1" x1="5477568" y1="2356940" x2="5605832" y2= "2356940" />
  <line class="fil0 str0" x1="5587091" y1="1367491" x2="5624573" y2= "1330009" />
  <line class="fil0 str1" x1="5605832" y1="3132743" x2="5605832" y2= "2356940" />
  <polygon class="fil1" points="5566281,2807284 5566281,2801361 5517126,2801361 5517126,2807346 5526524,2820419 5532998,2820419 5523635,2807415 5523635,2807284 "/>
  <polygon id="1" class="fil1" points="5566281,2776373 5566281,2770450 5517126,2770450 5517126,2776435 5526524,2789508 5532998,2789508 5523635,2776504 5523635,2776373 "/>
  <polygon id="2" class="fil1" points="5566281,2745462 5566281,2739539 5517126,2739539 5517126,2745524 5526524,2758597 5532998,2758597 5523635,2745593 5523635,2745462 "/>
  <path id="3" class="fil1" d="M5567109 2709917c0,-11446 -9916,-18024 -25478,-18024 -15438,0 -25340,6613 -25340,18024 0,11412 9971,18093 25374,18093 15563,0 25444,-6612 25444,-18093zm-5351 0c0,7702 -7840,11957 -20127,11957 -12005,0 -19975,-4358 -19975,-11957 0,-7598 7902,-11887 20009,-11887 12288,0 20093,4220 20093,11887z"/>
  <line class="fil0 str0" x1="5587091" y1="2375681" x2="5624573" y2= "2338199" />
  <line class="fil0 str0" x1="3495642" y1="5036146" x2="3533117" y2= "4998664" />
  <path class="fil1" d="M5006490 4981213l5923 0 0 -10247 6944 0 0 -5371 -6944 0 0 -33538 -9046 0c-11612,16638 -17362,25602 -21561,33373l0 5536 24684 0 0 10247zm-18617 -15749c3882,-6819 9226,-15031 18521,-28318l96 0 0 28449 -18617 0 0 -131z"/>
  <path id="1" class="fil1" d="M5048675 4981213l5923 0 0 -10247 6943 0 0 -5371 -6943 0 0 -33538 -9047 0c-11611,16638 -17362,25602 -21561,33373l0 5536 24685 0 0 10247zm-18617 -15749c3882,-6819 9226,-15031 18520,-28318l97 0 0 28449 -18617 0 0 -131z"/>
  <path id="2" class="fil1" d="M5083130 4982040c12018,0 19024,-9674 19024,-26209 0,-5357 -793,-9798 -2420,-13583 -2993,-7054 -8840,-11025 -16232,-11025 -10073,0 -17396,7074 -17396,16803 0,9343 6950,16245 16307,16245 6261,0 11639,-3165 13721,-8033 35,0 35,0 55,0 0,0 42,0 42,0 -166,13025 -4861,20451 -13032,20451 -4868,0 -8853,-2923 -10143,-7384l-6226 0c1496,7688 7922,12735 16300,12735zm338 -23140c-6426,0 -11156,-4668 -11156,-11088 0,-6178 4964,-11080 11259,-11080 6337,0 11226,4937 11226,11260 0,6274 -4820,10908 -11329,10908z"/>
  <path id="3" class="fil1" d="M5126432 4982040c11446,0 18024,-9915 18024,-25478 0,-15438 -6613,-25339 -18024,-25339 -11412,0 -18093,9970 -18093,25374 0,15562 6612,25443 18093,25443zm0 -5351c-7702,0 -11957,-7839 -11957,-20127 0,-12004 4358,-19975 11957,-19975 7598,0 11887,7902 11887,20010 0,12287 -4220,20092 -11887,20092z"/>
  <line class="fil0 str1" x1="3514376" y1="5017412" x2="6611878" y2= "5017412" />
  <line class="fil0 str1" x1="3906056" y1="5158184" x2="3906056" y2= "4240679" />
  <line class="fil0 str0" x1="6593144" y1="5036146" x2="6630619" y2= "4998664" />
  <line class="fil0 str0" x1="3887322" y1="4259420" x2="3924797" y2= "4221938" />
  <polygon class="fil1" points="3871774,4917618 3871774,4911696 3822618,4911696 3822618,4917681 3832016,4930754 3838491,4930754 3829127,4917749 3829127,4917618 "/>
  <path id="1" class="fil1" d="M3872601 4882391c0,-10425 -5861,-17852 -14101,-17852 -6095,0 -11128,4227 -12618,10598l-138 0c-1696,-5337 -5861,-8577 -10984,-8577 -7515,0 -12970,6633 -12970,15831 0,9115 5489,15824 12936,15824 5199,0 9391,-3289 11018,-8577l138 0c1455,6323 6482,10529 12618,10529 8206,0 14101,-7392 14101,-17776zm-5351 0c0,6737 -3840,11570 -9191,11570 -5378,0 -9226,-4833 -9226,-11570 0,-6778 3813,-11577 9226,-11577 5351,0 9191,4799 9191,11577zm-23781 0c0,5751 -3386,9757 -8164,9757 -4820,0 -8233,-4006 -8233,-9757 0,-5757 3379,-9763 8233,-9763 4778,0 8164,4040 8164,9763z"/>
  <path id="2" class="fil1" d="M3872601 4840613c0,-10425 -5861,-17851 -14101,-17851 -6095,0 -11128,4226 -12618,10598l-138 0c-1696,-5337 -5861,-8578 -10984,-8578 -7515,0 -12970,6633 -12970,15831 0,9116 5489,15825 12936,15825 5199,0 9391,-3289 11018,-8578l138 0c1455,6323 6482,10529 12618,10529 8206,0 14101,-7392 14101,-17776zm-5351 0c0,6737 -3840,11570 -9191,11570 -5378,0 -9226,-4833 -9226,-11570 0,-6778 3813,-11577 9226,-11577 5351,0 9191,4799 9191,11577zm-23781 0c0,5751 -3386,9757 -8164,9757 -4820,0 -8233,-4006 -8233,-9757 0,-5757 3379,-9763 8233,-9763 4778,0 8164,4040 8164,9763z"/>
  <path id="3" class="fil1" d="M3872601 4798518c0,-11446 -9915,-18024 -25478,-18024 -15438,0 -25339,6613 -25339,18024 0,11412 9970,18093 25374,18093 15562,0 25443,-6612 25443,-18093zm-5351 0c0,7702 -7840,11956 -20127,11956 -12004,0 -19975,-4357 -19975,-11956 0,-7598 7902,-11887 20010,-11887 12287,0 20092,4220 20092,11887z"/>
  <line class="fil0 str1" x1="2426264" y1="1348750" x2="2426264" y2= "2356940" />
  <line class="fil0 str0" x1="2445005" y1="1367491" x2="2407523" y2= "1330009" />
  <line class="fil0 str1" x1="2426264" y1="1348750" x2="2534325" y2= "1348750" />
  <polygon class="fil1" points="2366490,1742795 2366490,1736872 2317334,1736872 2317334,1742857 2326732,1755930 2333207,1755930 2323843,1742926 2323843,1742795 "/>
  <path id="1" class="fil1" d="M2366490 1701079l0 -5923 -10246 0 0 -6944 -5372 0 0 6944 -33538 0 0 9046c16638,11612 25602,17362 33373,21561l5537 0 0 -24684 10246 0zm-15749 18617c-6819,-3882 -15031,-9226 -28318,-18521l0 -96 28449 0 0 18617 -131 0z"/>
  <path id="2" class="fil1" d="M2367324 1664493c0,-10094 -7060,-17383 -16769,-17383 -9315,0 -16210,6916 -16210,16294 0,6102 3164,11515 7950,13735 0,0 0,96 0,96 -13060,-200 -20369,-4875 -20369,-13087 0,-4868 2869,-8819 7344,-10156l0 -6192c-7750,1551 -12763,7936 -12763,16279 0,12039 9715,19079 26263,19079 5310,0 9730,-793 13508,-2413 7075,-3034 11046,-8895 11046,-16252zm-5433 62c0,6309 -4999,11212 -11301,11212 -6247,0 -10874,-4799 -10874,-11308 0,-6516 4627,-11143 11053,-11143 6192,0 11122,4971 11122,11239z"/>
  <path id="3" class="fil1" d="M2367317 1623322c0,-11446 -9915,-18024 -25477,-18024 -15439,0 -25340,6612 -25340,18024 0,11411 9970,18093 25374,18093 15563,0 25443,-6613 25443,-18093zm-5350 0c0,7702 -7840,11956 -20127,11956 -12005,0 -19976,-4358 -19976,-11956 0,-7598 7902,-11887 20010,-11887 12287,0 20093,4220 20093,11887z"/>
  <line class="fil0 str1" x1="2426264" y1="2939582" x2="2426264" y2= "4140933" />
  <line class="fil0 str0" x1="2407523" y1="4159674" x2="2445005" y2= "4122192" />
  <polygon class="fil1" points="2366490,3761244 2366490,3755321 2317334,3755321 2317334,3761306 2326732,3774379 2333207,3774379 2323843,3761375 2323843,3761244 "/>
  <polygon id="1" class="fil1" points="2366490,3740062 2366490,3733622 2323002,3711792 2317334,3711792 2317334,3744303 2322775,3744303 2322775,3717853 2322899,3717853 "/>
  <path id="2" class="fil1" d="M2366490 3686163l0 -5923 -10246 0 0 -6944 -5372 0 0 6944 -33538 0 0 9046c16638,11612 25602,17362 33373,21561l5537 0 0 -24684 10246 0zm-15749 18616c-6819,-3881 -15031,-9225 -28318,-18520l0 -96 28449 0 0 18616 -131 0z"/>
  <path id="3" class="fil1" d="M2331497 3667615l41 0 0 -5923 -41 0c-5482,0 -9640,-4351 -9640,-10088 0,-5406 3786,-9715 8516,-9715 4089,0 6716,1558 13680,8143l18231 17272 4206 0 0 -32366 -5440 0 0 23906 -125 0 -12852 -12411c-8495,-8192 -12584,-10681 -18072,-10681 -7530,0 -13494,6916 -13494,15673 0,9253 6405,16190 14990,16190z"/>
  <line class="fil0 str1" x1="3489685" y1="4398674" x2="4821383" y2= "4398674" />
  <line class="fil0 str0" x1="3470951" y1="4417416" x2="3508426" y2= "4379933" />
  <line class="fil0 str0" x1="4802648" y1="4417416" x2="4840124" y2= "4379933" />
  <line class="fil0 str1" x1="4821383" y1="4398674" x2="4821383" y2= "4256696" />
  <polygon class="fil1" points="4093812,4365261 4099735,4365261 4099735,4316105 4093750,4316105 4080676,4325503 4080676,4331978 4093681,4322614 4093812,4322614 "/>
  <path id="1" class="fil1" d="M4127798 4366088c12018,0 19024,-9674 19024,-26209 0,-5357 -793,-9798 -2421,-13583 -2992,-7054 -8839,-11025 -16231,-11025 -10074,0 -17396,7074 -17396,16803 0,9343 6950,16245 16307,16245 6261,0 11639,-3165 13721,-8033 35,0 35,0 55,0 0,0 42,0 42,0 -166,13025 -4861,20451 -13032,20451 -4868,0 -8854,-2923 -10143,-7384l-6226 0c1496,7688 7922,12735 16300,12735zm338 -23140c-6427,0 -11157,-4668 -11157,-11088 0,-6178 4965,-11080 11260,-11080 6337,0 11226,4937 11226,11260 0,6274 -4820,10908 -11329,10908z"/>
  <path id="2" class="fil1" d="M4163929 4342603l6157 0c7012,0 11370,3579 11370,9364 0,5157 -4661,8832 -11170,8832 -6599,0 -10784,-3475 -11329,-8522l-5895 0c441,8150 7019,13818 17293,13818 9632,0 17307,-5875 17307,-14328 0,-6923 -4744,-11515 -12156,-11957l0 -124c6136,-1082 10060,-5536 10060,-11728 0,-7426 -6613,-12687 -15384,-12687 -9225,0 -15431,5330 -16107,13721l5889 0c538,-5171 4289,-8426 9936,-8426 6233,0 9529,3317 9529,8219 0,4992 -3937,8654 -9598,8654l-5889 0 -13 5164z"/>
  <path id="3" class="fil1" d="M4212367 4366088c11446,0 18024,-9915 18024,-25478 0,-15438 -6612,-25339 -18024,-25339 -11411,0 -18093,9970 -18093,25374 0,15562 6613,25443 18093,25443zm0 -5351c-7702,0 -11956,-7840 -11956,-20127 0,-12004 4358,-19975 11956,-19975 7599,0 11887,7902 11887,20010 0,12287 -4219,20092 -11887,20092z"/>
  <line class="fil0 str0" x1="399196" y1="641830" x2="2549170" y2= "641830" />
  <line class="fil0 str0" x1="399196" y1="883636" x2="2549170" y2= "883636" />
  <line class="fil0 str0" x1="933433" y1="883636" x2="933433" y2= "641823" />
  <line class="fil0 str0" x1="2024765" y1="883636" x2="2024765" y2= "641823" />
  <line class="fil0 str0" x1="2716013" y1="1106936" x2="6689428" y2= "1106936" />
  <line class="fil0 str0" x1="3489678" y1="1348750" x2="3489678" y2= "1106936" />
  <line class="fil0 str0" x1="2716013" y1="1348750" x2="6689428" y2= "1348750" />
  <line class="fil0 str0" x1="4460235" y1="1348750" x2="4460235" y2= "1106936" />
  <line class="fil0 str0" x1="6228948" y1="1348750" x2="6228948" y2= "1106936" />
 </g>
</svg>
