<?xml version="1.0" encoding="UTF-8"?>
<!DOCTYPE svg PUBLIC "-//W3C//DTD SVG 1.1//EN" "http://www.w3.org/Graphics/SVG/1.1/DTD/svg11.dtd">
<!-- Creator: CorelDRAW X7 -->
<svg xmlns="http://www.w3.org/2000/svg" xml:space="preserve" width="1149px" height="884px" version="1.1" style="shape-rendering:geometricPrecision; text-rendering:geometricPrecision; image-rendering:optimizeQuality; fill-rule:evenodd; clip-rule:evenodd"
viewBox="0 0 6727589 5174328"
 xmlns:xlink="http://www.w3.org/1999/xlink">
 <defs>
  <style type="text/css">
   <![CDATA[
    .str5 {stroke:#2B2A29;stroke-width:2067.05}
    .str4 {stroke:#2B2A29;stroke-width:2067.05}
    .str1 {stroke:#2B2A29;stroke-width:3456.61}
    .str2 {stroke:#2B2A29;stroke-width:3456.61}
    .str0 {stroke:#2B2A29;stroke-width:5267.87}
    .str3 {stroke:#2B2A29;stroke-width:5267.87}
    .str6 {stroke:#2B2A29;stroke-width:5267.87;stroke-linejoin:bevel}
    .fil0 {fill:none}
    .fil2 {fill:#2B2A29}
    .fil1 {fill:#2B2A29;fill-rule:nonzero}
   ]]>
  </style>
 </defs>
 <g id="Слой_x0020_1">
  <metadata id="CorelCorpID_0Corel-Layer"/>
  <rect class="fil0" width="6706939" height="5171694"/>
  <line class="fil0 str0" x1="2030080" y1="643503" x2="935890" y2= "643503" />
  <rect class="fil0 str0" x="230895" y="3180235" width="255338" height="255338"/>
  <path class="fil0 str1" d="M400241 2988625l-169346 169353m169346 -206830l-169346 169353m169346 -206829l-169346 169353m169346 -206830l-169346 169353m169346 -206829l-169346 169353m169346 -206830l-169346 169346m169346 -206823l-169346 169347m169346 -206823l-169346 169346m169346 -206830l-169346 169354m169346 -206830l-169346 169353m169346 -206830l-169346 169353m169346 -206829l-169346 169353m160946 -198430l-160946 160953m123470 -160953l-123470 123470m85993 -123470l-85993 85993m48516 -85993l-48516 48517m11040 -48517l-11040 11040m169346 -469172l-169346 169353m169346 -206830l-169346 169353m169346 -206829l-169346 169353m169346 -206830l-169346 169353m169346 -206829l-169346 169353m169346 -206830l-169346 169346m169346 -206822l-169346 169346m169346 -206823l-169346 169346m169346 -206829l-169346 169353m169346 -206830l-169346 169353m169346 -206829l-169346 169353m169346 -206830l-169346 169353m153279 -190763l-153279 153287m115803 -153287l-115803 115803m78326 -115803l-78326 78327m40850 -78327l-40850 40850m3373 -40850l-3373 3373m169346 -394212l-169346 169346m169346 -206822l-169346 169346m169346 242903l-16067 16066m16067 -53543l-53543 53543m53543 -91020l-91020 91020m91020 -128496l-128496 128496m128496 -165980l-165973 165980m165973 -203456l-169346 169353m169346 -206830l-169346 169353m169346 -206829l-169346 169353m169346 -206830l-169346 169353m169346 -206829l-169346 169346m169346 -281783l-169346 169353m169346 -206829l-169346 169353m169346 -206830l-169346 169353m169346 -206829l-169346 169353m169346 -206830l-169346 169346m143601 -181078l-143601 143602m106124 -143602l-106124 106125m68648 -106125l-68648 68648m31171 -68648l-31171 31172m169346 2004342l-116647 116646m116647 -154123l-154124 154123m154124 -4217l-4217 4217m4217 -41693l-41694 41693m41694 -79170l-79171 79170m79171 -1016104l-169346 169346m169346 -206823l-169346 169347m169346 242902l-8400 8400m8400 -45876l-45876 45876m45876 -83353l-83353 83353m83353 -120829l-120830 120829m120830 -158313l-158306 158313m158306 -195789l-169346 169353m169346 -206830l-169346 169353m169346 -206829l-169346 169353m169346 -206830l-169346 169353m169346 -206830l-169346 169347"/>
  <path class="fil0 str2" d="M935877 868369l-17581 17580m17581 -55056l-55057 55056m55057 -92540l-92534 92540m92534 -130016l-130010 130016m130010 -167493l-167487 167493m167487 -204970l-204963 204970m204963 -242446l-242440 242446m204963 -242446l-242440 242446m204964 -242446l-242440 242446m204963 -242446l-242440 242446m204963 -242446l-242439 242446m204963 -242446l-242440 242446m204963 -242446l-242439 242446m204963 -242446l-242440 242446m204963 -242446l-235823 235830m198347 -235830l-198347 198354m160870 -198354l-160870 160877m123394 -160877l-123394 123401m85917 -123401l-85917 85917m48441 -85917l-48441 48441m10964 -48441l-10964 10964"/>
  <path class="fil0 str2" d="M2557206 871556l-14394 14393m14394 -51869l-51870 51869m51870 -89346l-89347 89346m89347 -126829l-126823 126829m126823 -164306l-164300 164306m164300 -201783l-201777 201783m204963 -242446l-6 7m-3180 3180l-239253 239259m204963 -242446l-242440 242446m204963 -242446l-242439 242446m204963 -242446l-242440 242446m204963 -242446l-242439 242446m204963 -242446l-242440 242446m204963 -242446l-242439 242446m204963 -242446l-242440 242446m204963 -242446l-230514 230521m193038 -230521l-193038 193045m155561 -193045l-155561 155568m118085 -155568l-118085 118091m80608 -118091l-80608 80608m43131 -80608l-43131 43131m5655 -43131l-5655 5655"/>
  <line class="fil0 str0" x1="486234" y1="3404565" x2="454910" y2= "3435889" />
  <path class="fil0 str0" d="M481623 3297003l-2620 2613m-127238 127244l-2627 2627m118202 -118209l-103041 103042"/>
  <path class="fil0 str0" d="M455180 3211293l-2620 2613m-127238 127237l-2627 2627m163221 -163221l-18334 18334m-26685 26685l-103034 103042m-26671 26664l-80297 80297"/>
  <path class="fil0 str0" d="M302944 3251348l-2620 2620m73418 -73419l-58396 58396m-26678 26678l-57773 57774"/>
  <line class="fil0 str0" x1="261582" y1="3180549" x2="230895" y2= "3211237" />
  <path class="fil0 str0" d="M428039 3406653l-2627 2627m60822 -60822l-45655 45655m-26671 26671l-15105 15105"/>
  <path class="fil0 str0" d="M398699 3323840l-2627 2627m90162 -90162l-74994 74994m-26672 26671l-97918 97919"/>
  <path class="fil0 str0" d="M381112 3229246l-2613 2620m-127245 127238l-2627 2627m181188 -181182l-36294 36295m-26685 26685l-103042 103034m-26671 26672l-6228 6228"/>
  <line class="fil0 str0" x1="317662" y1="3180549" x2="241140" y2= "3257065" />
  <rect class="fil0 str0" transform="matrix(1.05135E-013 0.535643 0.709328 -2.53489E-015 3.49882E+006 1.2056E+006)" width="95119" height="1371838"/>
  <path class="fil0 str2" d="M3498813 1350905l-1376 1375m1376 -38852l-38852 38852m38852 -76328l-76329 76328m76329 -113805l-113805 113805m113805 -151282l-151282 151282m151282 -188765l-188758 188765m188758 -226242l-226235 226242m204963 -242446l-242439 242446m204963 -242446l-242440 242446m204963 -242446l-242439 242446m204963 -242446l-242440 242446m204963 -242446l-242440 242446m204963 -242446l-242439 242446m204963 -242446l-242440 242446m204963 -242446l-242439 242446m204963 -242446l-242440 242446m204963 -242446l-242439 242446m204963 -242446l-242440 242446m204963 -242446l-242439 242446m204963 -242446l-242440 242446m204963 -242446l-242439 242446m204963 -242446l-229747 229754m192270 -229754l-192270 192277m154794 -192277l-154794 154801m117317 -154801l-117317 117324m79840 -117324l-79840 79841m42364 -79841l-42364 42364m4887 -42364l-4887 4888"/>
  <rect class="fil0 str0" x="230895" y="1028070" width="169349" height="2152165"/>
  <rect class="fil0 str0" x="230895" y="643507" width="169349" height="384563"/>
  <path class="fil0 str1" d="M364797 956934l-2627 2627m38071 -38071l-23941 23941m-26678 26678l-55962 55962"/>
  <path class="fil0 str1" d="M340165 869392l-2627 2627m62703 -62710l-47543 47543m-26664 26671l-95139 95140"/>
  <path class="fil0 str1" d="M313722 783675l-2627 2627m89146 -89146l-73979 73986m-26671 26664l-68696 68696"/>
  <path class="fil0 str1" d="M291344 693879l-2620 2621m52989 -52990l-37967 37967m-26678 26678l-46173 46174"/>
  <line class="fil0 str1" x1="400241" y1="977563" x2="349733" y2= "1028071" />
  <path class="fil0 str1" d="M287763 977861l-2627 2627m115105 -115105l-100975 100974m-26678 26685l-35029 35029"/>
  <path class="fil0 str1" d="M387099 766371l-2627 2627m-126049 126049l-2627 2627m144445 -144445l-602 602m-26671 26671l-103041 103042m-26679 26678l-12353 12354"/>
  <path class="fil0 str1" d="M369511 671778l-2613 2620m-127244 127238l-2627 2627m160759 -160753l-15865 15866m-26685 26685l-103042 103034"/>
  <line class="fil0 str1" x1="285633" y1="643510" x2="230895" y2= "698242" />
  <line class="fil0 str1" x1="400241" y1="383365" x2="6706933" y2= "383365" />
  <line class="fil0 str1" x1="400241" y1="177158" x2="6706933" y2= "177158" />
  <line class="fil0 str0" x1="381451" y1="402156" x2="419031" y2= "364575" />
  <line class="fil0 str0" x1="381451" y1="195948" x2="419031" y2= "158368" />
  <line class="fil0 str0" x1="917080" y1="402156" x2="954660" y2= "364575" />
  <line class="fil0 str0" x1="2011276" y1="402156" x2="2048856" y2= "364575" />
  <line class="fil0 str0" x1="2538415" y1="402156" x2="2575996" y2= "364575" />
  <line class="fil0 str1" x1="400241" y1="219481" x2="400241" y2= "134835" />
  <line class="fil0 str1" x1="400241" y1="425688" x2="400241" y2= "341043" />
  <line class="fil0 str1" x1="935870" y1="425688" x2="935870" y2= "341043" />
  <line class="fil0 str1" x1="2030066" y1="425688" x2="2030066" y2= "341043" />
  <line class="fil0 str1" x1="2557206" y1="425688" x2="2557206" y2= "341043" />
  <line class="fil0 str0" x1="3480030" y1="402156" x2="3517610" y2= "364575" />
  <line class="fil0 str1" x1="3498820" y1="425688" x2="3498820" y2= "341043" />
  <line class="fil0 str0" x1="4453107" y1="402156" x2="4490687" y2= "364575" />
  <line class="fil0 str1" x1="4471897" y1="425688" x2="4471897" y2= "341043" />
  <line class="fil0 str0" x1="2704333" y1="402156" x2="2741913" y2= "364575" />
  <line class="fil0 str1" x1="2723123" y1="425688" x2="2723123" y2= "341043" />
  <line class="fil0 str0" x1="6226464" y1="402156" x2="6264044" y2= "364575" />
  <line class="fil0 str1" x1="6245254" y1="425688" x2="6245254" y2= "341043" />
  <polygon class="fil1" points="1401371,331876 1407310,331876 1407310,282592 1401309,282592 1388201,292014 1388201,298506 1401240,289118 1401371,289118 "/>
  <path id="1" class="fil1" d="M1437583 332712c10120,0 17428,-7079 17428,-16813 0,-9339 -6934,-16253 -16336,-16253 -6118,0 -11545,3174 -13771,7971 0,0 -97,0 -97,0 200,-13093 4888,-20421 13121,-20421 4881,0 8842,2876 10183,7362l6208 0c-1555,-7770 -7957,-12796 -16322,-12796 -12070,0 -19129,9741 -19129,26332 0,5324 795,9755 2420,13543 3042,7093 8918,11075 16295,11075zm-63 -5447c-6325,0 -11241,-5012 -11241,-11331 0,-6263 4812,-10902 11338,-10902 6533,0 11172,4639 11172,11082 0,6208 -4985,11151 -11269,11151z"/>
  <path id="2" class="fil1" d="M1478861 332705c11476,0 18071,-9941 18071,-25544 0,-15479 -6629,-25406 -18071,-25406 -11441,0 -18140,9997 -18140,25441 0,15603 6630,25509 18140,25509zm0 -5364c-7722,0 -11987,-7861 -11987,-20180 0,-12036 4369,-20027 11987,-20027 7619,0 11919,7922 11919,20062 0,12319 -4231,20145 -11919,20145z"/>
  <path id="3" class="fil1" d="M1521260 332705c11476,0 18071,-9941 18071,-25544 0,-15479 -6630,-25406 -18071,-25406 -11441,0 -18140,9997 -18140,25441 0,15603 6630,25509 18140,25509zm0 -5364c-7722,0 -11987,-7861 -11987,-20180 0,-12036 4369,-20027 11987,-20027 7618,0 11918,7922 11918,20062 0,12319 -4230,20145 -11918,20145z"/>
  <polygon class="fil1" points="3931484,331876 3937422,331876 3937422,282592 3931421,282592 3918314,292014 3918314,298506 3931352,289118 3931484,289118 "/>
  <path id="1" class="fil1" d="M3973309 331876l5938 0 0 -10273 6962 0 0 -5386 -6962 0 0 -33625 -9070 0c-11642,16681 -17408,25668 -21618,33459l0 5552 24750 0 0 10273zm-18666 -15790c3892,-6837 9250,-15071 18569,-28393l97 0 0 28524 -18666 0 0 -131z"/>
  <path id="2" class="fil1" d="M4009416 332705c11476,0 18072,-9941 18072,-25544 0,-15479 -6630,-25406 -18072,-25406 -11441,0 -18140,9997 -18140,25441 0,15603 6630,25509 18140,25509zm0 -5364c-7722,0 -11987,-7861 -11987,-20180 0,-12036 4369,-20027 11987,-20027 7619,0 11919,7922 11919,20062 0,12319 -4231,20145 -11919,20145z"/>
  <path id="3" class="fil1" d="M4051815 332705c11476,0 18071,-9941 18071,-25544 0,-15479 -6629,-25406 -18071,-25406 -11441,0 -18140,9997 -18140,25441 0,15603 6630,25509 18140,25509zm0 -5364c-7722,0 -11987,-7861 -11987,-20180 0,-12036 4369,-20027 11987,-20027 7619,0 11919,7922 11919,20062 0,12319 -4231,20145 -11919,20145z"/>
  <polygon class="fil1" points="3042693,331876 3048631,331876 3048631,282592 3042631,282592 3029523,292014 3029523,298506 3042562,289118 3042693,289118 "/>
  <polygon id="1" class="fil1" points="3073685,331876 3079623,331876 3079623,282592 3073623,282592 3060515,292014 3060515,298506 3073554,289118 3073685,289118 "/>
  <path id="2" class="fil1" d="M3115510 331876l5938 0 0 -10273 6962 0 0 -5386 -6962 0 0 -33625 -9070 0c-11642,16681 -17407,25668 -21617,33459l0 5552 24749 0 0 10273zm-18666 -15790c3892,-6837 9250,-15071 18569,-28393l97 0 0 28524 -18666 0 0 -131z"/>
  <path id="3" class="fil1" d="M3151618 332705c11476,0 18071,-9941 18071,-25544 0,-15479 -6630,-25406 -18071,-25406 -11442,0 -18141,9997 -18141,25441 0,15603 6630,25509 18141,25509zm0 -5364c-7722,0 -11988,-7861 -11988,-20180 0,-12036 4369,-20027 11988,-20027 7618,0 11918,7922 11918,20062 0,12319 -4231,20145 -11918,20145z"/>
  <path class="fil1" d="M2588287 296791l0 42 5939 0 0 -42c0,-5496 4362,-9664 10114,-9664 5420,0 9741,3795 9741,8537 0,4100 -1563,6734 -8165,13716l-17318 18279 0 4217 32451 0 0 -5455 -23968 0 0 -124 12444 -12886c8213,-8517 10708,-12617 10708,-18120 0,-7549 -6934,-13529 -15713,-13529 -9278,0 -16233,6422 -16233,15029z"/>
  <path id="1" class="fil1" d="M2649843 331876l5938 0 0 -10273 6962 0 0 -5386 -6962 0 0 -33625 -9070 0c-11642,16681 -17408,25668 -21618,33459l0 5552 24750 0 0 10273zm-18666 -15790c3892,-6837 9250,-15071 18569,-28393l97 0 0 28524 -18666 0 0 -131z"/>
  <path id="2" class="fil1" d="M2685950 332705c11476,0 18071,-9941 18071,-25544 0,-15479 -6629,-25406 -18071,-25406 -11441,0 -18140,9997 -18140,25441 0,15603 6630,25509 18140,25509zm0 -5364c-7722,0 -11987,-7861 -11987,-20180 0,-12036 4369,-20027 11987,-20027 7619,0 11919,7922 11919,20062 0,12319 -4231,20145 -11919,20145z"/>
  <polygon class="fil1" points="2239882,331876 2246339,331876 2268226,288274 2268226,282592 2235630,282592 2235630,288046 2262149,288046 2262149,288170 "/>
  <path id="1" class="fil1" d="M2292194 332705c10453,0 17899,-5876 17899,-14137 0,-6111 -4238,-11158 -10626,-12651l0 -139c5351,-1700 8600,-5876 8600,-11012 0,-7536 -6650,-13004 -15873,-13004 -9139,0 -15866,5503 -15866,12969 0,5213 3298,9416 8600,11047l0 139c-6339,1458 -10556,6498 -10556,12651 0,8227 7411,14137 17822,14137zm0 -5364c-6754,0 -11600,-3851 -11600,-9216 0,-5392 4846,-9249 11600,-9249 6796,0 11608,3823 11608,9249 0,5365 -4812,9216 -11608,9216zm0 -23844c-5765,0 -9782,-3394 -9782,-8185 0,-4832 4017,-8255 9782,-8255 5773,0 9789,3388 9789,8255 0,4791 -4051,8185 -9789,8185z"/>
  <path id="2" class="fil1" d="M2334081 332712c10280,0 17553,-6920 17553,-16833 0,-9568 -6830,-16495 -16287,-16495 -4708,0 -8815,1770 -11027,4742l-138 0 1500 -16080 23138 0 0 -5454 -28178 0 -2703 27611 5766 0c2011,-3450 5938,-5531 10556,-5531 6547,0 11220,4750 11220,11379 0,6630 -4638,11283 -11323,11283 -5911,0 -10384,-3623 -10930,-8884l-6036 0c512,8407 7467,14262 16889,14262z"/>
  <polygon class="fil1" points="604257,331876 610713,331876 632601,288274 632601,282592 600005,282592 600005,288046 626524,288046 626524,288170 "/>
  <path id="1" class="fil1" d="M656569 332705c10453,0 17898,-5876 17898,-14137 0,-6111 -4238,-11158 -10625,-12651l0 -139c5350,-1700 8600,-5876 8600,-11012 0,-7536 -6651,-13004 -15873,-13004 -9139,0 -15866,5503 -15866,12969 0,5213 3298,9416 8600,11047l0 139c-6339,1458 -10556,6498 -10556,12651 0,8227 7411,14137 17822,14137zm0 -5364c-6754,0 -11601,-3851 -11601,-9216 0,-5392 4847,-9249 11601,-9249 6796,0 11607,3823 11607,9249 0,5365 -4811,9216 -11607,9216zm0 -23844c-5766,0 -9782,-3394 -9782,-8185 0,-4832 4016,-8255 9782,-8255 5772,0 9789,3388 9789,8255 0,4791 -4051,8185 -9789,8185z"/>
  <path id="2" class="fil1" d="M698456 332712c10280,0 17553,-6920 17553,-16833 0,-9568 -6831,-16495 -16288,-16495 -4708,0 -8814,1770 -11026,4742l-139 0 1500 -16080 23139 0 0 -5454 -28178 0 -2703 27611 5765 0c2012,-3450 5939,-5531 10557,-5531 6547,0 11220,4750 11220,11379 0,6630 -4639,11283 -11324,11283 -5911,0 -10384,-3623 -10930,-8884l-6035 0c512,8407 7466,14262 16889,14262z"/>
  <path class="fil1" d="M5284483 296791l0 42 5938 0 0 -42c0,-5496 4363,-9664 10115,-9664 5419,0 9740,3795 9740,8537 0,4100 -1562,6734 -8164,13716l-17318 18279 0 4217 32451 0 0 -5455 -23968 0 0 -124 12443 -12886c8213,-8517 10709,-12617 10709,-18120 0,-7549 -6934,-13529 -15714,-13529 -9277,0 -16232,6422 -16232,15029z"/>
  <path id="1" class="fil1" d="M5341241 332712c10279,0 17552,-6920 17552,-16833 0,-9568 -6830,-16495 -16287,-16495 -4708,0 -8815,1770 -11027,4742l-138 0 1500 -16080 23139 0 0 -5454 -28179 0 -2703 27611 5766 0c2012,-3450 5938,-5531 10556,-5531 6547,0 11220,4750 11220,11379 0,6630 -4638,11283 -11323,11283 -5911,0 -10384,-3623 -10930,-8884l-6035 0c511,8407 7466,14262 16889,14262z"/>
  <path id="2" class="fil1" d="M5383031 332712c10121,0 17428,-7079 17428,-16813 0,-9339 -6934,-16253 -16336,-16253 -6118,0 -11545,3174 -13771,7971 0,0 -97,0 -97,0 201,-13093 4888,-20421 13122,-20421 4880,0 8842,2876 10183,7362l6208 0c-1556,-7770 -7957,-12796 -16322,-12796 -12071,0 -19129,9741 -19129,26332 0,5324 795,9755 2419,13543 3042,7093 8919,11075 16295,11075zm-62 -5447c-6326,0 -11241,-5012 -11241,-11331 0,-6263 4811,-10902 11337,-10902 6533,0 11172,4639 11172,11082 0,6208 -4984,11151 -11268,11151z"/>
  <path id="3" class="fil1" d="M5424310 332705c11476,0 18071,-9941 18071,-25544 0,-15479 -6630,-25406 -18071,-25406 -11442,0 -18141,9997 -18141,25441 0,15603 6630,25509 18141,25509zm0 -5364c-7722,0 -11988,-7861 -11988,-20180 0,-12036 4369,-20027 11988,-20027 7618,0 11918,7922 11918,20062 0,12319 -4231,20145 -11918,20145z"/>
  <polygon class="fil1" points="4051781,133999 4057719,133999 4057719,84715 4051718,84715 4038611,94137 4038611,100629 4051649,91241 4051781,91241 "/>
  <path id="1" class="fil1" d="M4087418 134828c11476,0 18071,-9941 18071,-25544 0,-15479 -6629,-25406 -18071,-25406 -11441,0 -18140,9997 -18140,25441 0,15603 6630,25509 18140,25509zm0 -5364c-7722,0 -11987,-7861 -11987,-20180 0,-12036 4369,-20027 11987,-20027 7619,0 11919,7922 11919,20062 0,12319 -4231,20145 -11919,20145z"/>
  <path id="2" class="fil1" d="M4129499 134828c10453,0 17898,-5876 17898,-14137 0,-6111 -4238,-11158 -10625,-12651l0 -139c5350,-1700 8600,-5876 8600,-11012 0,-7536 -6651,-13004 -15873,-13004 -9139,0 -15866,5503 -15866,12969 0,5213 3298,9416 8600,11047l0 139c-6339,1458 -10556,6498 -10556,12651 0,8227 7411,14137 17822,14137zm0 -5364c-6754,0 -11600,-3851 -11600,-9216 0,-5392 4846,-9249 11600,-9249 6796,0 11607,3823 11607,9249 0,5365 -4811,9216 -11607,9216zm0 -23844c-5766,0 -9782,-3394 -9782,-8185 0,-4832 4016,-8255 9782,-8255 5772,0 9789,3388 9789,8255 0,4791 -4051,8185 -9789,8185z"/>
  <path id="3" class="fil1" d="M4154193 98914l0 42 5938 0 0 -42c0,-5496 4363,-9664 10114,-9664 5420,0 9741,3795 9741,8537 0,4100 -1562,6734 -8164,13716l-17318 18279 0 4217 32451 0 0 -5455 -23968 0 0 -124 12443 -12886c8213,-8517 10709,-12617 10709,-18120 0,-7549 -6934,-13529 -15714,-13529 -9277,0 -16232,6422 -16232,15029z"/>
  <path id="4" class="fil1" d="M4211268 134828c11476,0 18072,-9941 18072,-25544 0,-15479 -6630,-25406 -18072,-25406 -11441,0 -18140,9997 -18140,25441 0,15603 6630,25509 18140,25509zm0 -5364c-7722,0 -11987,-7861 -11987,-20180 0,-12036 4369,-20027 11987,-20027 7619,0 11919,7922 11919,20062 0,12319 -4231,20145 -11919,20145z"/>
  <rect class="fil0 str0" x="3349596" y="4151771" width="149224" height="708770"/>
  <line class="fil0 str0" x1="3498820" y1="4824125" x2="3463832" y2= "4859113" />
  <path class="fil0 str0" d="M3436795 4773984l-2613 2613m64638 -64639l-49616 49616m-26685 26685l-72285 72285"/>
  <path class="fil0 str0" d="M3415910 4682715l-2627 2627m85537 -85537l-71275 71268m-26678 26685l-51269 51269"/>
  <path class="fil0 str0" d="M3498820 4487631l-94863 94856m-11511 11518l-2627 2627m-12547 12547l-27674 27674"/>
  <path class="fil0 str0" d="M3480548 4393743l-103034 103034m-11511 11511l-2627 2627m-12547 12554l-1231 1231m145994 -146000l-2620 2620"/>
  <path class="fil0 str0" d="M3473200 4288911l-2613 2620m28233 -28234l-14103 14103m-26678 26678l-103041 103042"/>
  <path class="fil0 str0" d="M3457562 4192402l-2620 2613m43242 -43242l-29111 29112m-26679 26685l-92796 92796"/>
  <line class="fil0 str0" x1="3386010" y1="4151773" x2="3349598" y2= "4188185" />
  <line class="fil0 str0" x1="3495723" y1="4771128" x2="3406307" y2= "4860544" />
  <path class="fil0 str0" d="M3492702 4661989l-2627 2627m-127860 127860l-2613 2620m118057 -118063l-103042 103041"/>
  <path class="fil0 str0" d="M3498820 4543697l-18583 18583m-11517 11518l-2627 2627m-12548 12547l-103027 103035"/>
  <path class="fil0 str0" d="M3498820 4431544l-47922 47923m-11518 11517l-2627 2627m-12547 12548l-74608 74607"/>
  <path class="fil0 str0" d="M3406487 4411703l-56889 56882m71925 -71925l-2613 2620m79910 -79910l-65655 65655"/>
  <path class="fil0 str0" d="M3398993 4307037l-2613 2620m102440 -102447l-88309 88317m-26685 26678l-34228 34227"/>
  <path class="fil0 str0" d="M3382989 4210868l-2620 2620m61714 -61715l-47576 47577m-26685 26685l-18224 18223"/>
  <polygon class="fil0 str0" points="2557206,1352280 2723123,1352280 2723123,643510 2557206,643510 "/>
  <line class="fil0 str1" x1="2723123" y1="1307517" x2="2679791" y2= "1350849" />
  <path class="fil0 str1" d="M2652615 1265858l-2634 2634m73142 -73142l-57975 57975m-26671 26671l-72284 72284"/>
  <path class="fil0 str1" d="M2631094 1175226l-2620 2613m94649 -94642l-79627 79627m-26678 26678l-59612 59612"/>
  <path class="fil0 str1" d="M2608273 1085873l-2627 2627m117297 -117297l-103035 103028m-26678 26685l-36024 36025"/>
  <path class="fil0 str1" d="M2581830 1000156l-2627 2634m132471 -132478l-2627 2627m-12547 12554l-103035 103028m-26678 26678l-9581 9582"/>
  <path class="fil0 str1" d="M2673984 795829l-103028 103027m-11518 11518l-2232 2233m131821 -131821l-2620 2613m36716 -36709l-22454 22454"/>
  <path class="fil0 str1" d="M2658346 699313l-101140 101134m116176 -116177l-2613 2620m43380 -43380l-29125 29125"/>
  <line class="fil0 str1" x1="2601969" y1="643510" x2="2557206" y2= "688280" />
  <line class="fil0 str1" x1="2711681" y1="1262865" x2="2622259" y2= "1352280" />
  <path class="fil0 str1" d="M2707886 1154500l-2613 2620m-127245 127238l-2627 2627m147722 -147722l-2835 2835m-26678 26685l-103041 103034m-26672 26672l-6691 6692"/>
  <path class="fil0 str1" d="M2684547 1065665l-2627 2627m41203 -41196l-26934 26934m-26685 26678l-103042 103042"/>
  <path class="fil0 str1" d="M2655207 982852l-2627 2627m70543 -70543l-56274 56274m-26685 26685l-82958 82959"/>
  <path class="fil0 str1" d="M2723123 802763l-73999 73992m-11511 11517l-2627 2627m-12554 12548l-65226 65233"/>
  <path class="fil0 str1" d="M2599777 813948l-42571 42572m57614 -57608l-2620 2613m110923 -110922l-96668 96667"/>
  <path class="fil0 str1" d="M2583773 717778l-26567 26568m41610 -41611l-2620 2620m61846 -61845l-47591 47590"/>
  <polygon class="fil0 str0" points="400241,4226381 400241,5171694 230895,5171694 230895,3435571 400241,3435571 "/>
  <path class="fil0 str1" d="M400241 5169081l-2614 2613m2614 -40090l-40090 40090m40090 -77566l-77567 77566m77567 -115043l-115043 115043m115043 -152519l-152520 152519m152520 -189996l-169346 169346m169346 -206829l-169346 169353m169346 -206830l-169346 169353m169346 -206830l-169346 169354m169346 -206830l-169346 169353m169346 -206830l-169346 169353m169346 -206829l-169346 169346m169346 -206823l-169346 169346m169346 -206822l-169346 169346m169346 -206830l-169346 169353m169346 -206829l-169346 169353m169346 -206830l-169346 169353m169346 -206829l-169346 169353m151745 -189229l-151745 151752m114268 -151752l-114268 114269m76792 -114269l-76792 76792m39315 -76792l-39315 39316m1838 -39316l-1838 1839m169346 -56916l-55078 55077m55078 -92554l-92554 92554m92554 -130031l-130031 130031m130031 -167514l-167508 167514m167508 -204991l-169346 169354m169346 -206830l-169346 169353m169346 -206830l-169346 169353m169346 -206829l-169346 169353m169346 -206830l-169346 169346m169346 -206822l-169346 169346m169346 -206823l-169346 169346m169346 -206829l-169346 169353m169346 -206830l-169346 169353m169346 -206829l-169346 169353m169346 -206830l-169346 169353m169346 -206829l-169346 169346m169346 -206823l-169346 169346m169346 -206823l-169346 169347m169346 -206823l-169346 169346m169346 -206830l-169346 169354m169346 -206830l-169346 169353m169346 -206830l-169346 169353m169346 -206829l-169346 169353m144078 -181562l-144078 144078m106601 -144078l-106601 106602m69125 -106602l-69125 69125m31648 -69125l-31648 31649m169346 -56917l-25268 25268m25268 -62744l-62745 62744m62745 -100221l-100221 100221m100221 -137697l-137698 137697m137698 -175181l-169346 169353m141416 -178900l-141416 141424m103940 -141424l-103940 103947m66463 -103947l-66463 66471m28987 -66471l-28987 28987m169346 1029931l-17601 17601"/>
  <path class="fil0 str3" d="M5387061 1352280l91303 0 0 1010830 -91303 0c0,-687367 0,-285170 0,-1010830z"/>
  <path class="fil0 str2" d="M5478364 1637513l-19716 19716m19716 -57193l-57193 57193m57193 -94669l-91303 91302m91303 -128779l-91303 91303m91303 -128786l-91303 91309m91303 -128786l-91303 91310m91303 -128786l-91303 91302m91303 -128779l-91303 91303m76716 -114193l-76716 76716m39240 -76716l-39240 39240m1763 -39240l-1763 1763m34110 303186l-34110 34110m91303 583289l-88482 88482m88482 -125959l-91303 91303m91303 -128779l-91303 91303m91303 -128780l-91303 91303m91303 -128779l-91303 91302m91303 -128786l-91303 91310m91303 -128786l-91303 91309m91303 -128786l-91303 91310m91303 -128786l-91303 91302m91303 -128779l-91303 91303m91303 -128780l-91303 91303m91303 -128779l-91303 91303m91303 -128780l-91303 91303m91303 -128786l-91303 91310m91303 -128787l-91303 91310m91303 -128786l-91303 91303m91303 -128780l-91303 91303m71587 -109063l-71587 71587"/>
  <line class="fil0 str2" x1="5427870" y1="2363110" x2="5478364" y2= "2312616" />
  <path class="fil0 str3" d="M5478364 4151773l-91303 0 0 -1010829 91303 0c0,687367 0,285170 0,1010829z"/>
  <path class="fil0 str4" d="M5387061 3866541l19717 -19717m-19717 57193l57193 -57193m-57193 94670l91303 -91303m-91303 128780l91303 -91303m-91303 128786l91303 -91310m-91303 128787l91303 -91310m-91303 128786l91303 -91303m-91303 128780l91303 -91303m-76716 114192l76716 -76716m-39239 76716l39239 -39239m-1763 39239l1763 -1763m-34110 -303186l34110 -34109m-91303 -583289l88483 -88482m-88483 125958l91303 -91302m-91303 128779l91303 -91303m-91303 128780l91303 -91303m-91303 128779l91303 -91303m-91303 128787l91303 -91310m-91303 128786l91303 -91310m-91303 128787l91303 -91310m-91303 128786l91303 -91303m-91303 128780l91303 -91303m-91303 128779l91303 -91303m-91303 128780l91303 -91303m-91303 128779l91303 -91303m-91303 128787l91303 -91310m-91303 128786l91303 -91309m-91303 128786l91303 -91303m-91303 128779l91303 -91302m-71586 109062l71586 -71586"/>
  <line class="fil0 str4" x1="5440424" y1="3140944" x2="5385229" y2= "3196139" />
  <path class="fil0 str1" d="M4530127 1109834l-58216 58216m1294942 -58216l-242440 242446m1182520 -20746l-7 7m7 -37484l-7 7m7 -37483l-7 7m7 -37491l-7 7m7 -37483l-7 7m7 -37484l-7 7m-461672 199343l-8787 8786m8787 -46263l-46263 46263m46263 -83739l-83740 83739m83740 -121216l-121216 121216m-394662 -242446l-242439 242446m758317 -158699l-158693 158699m158693 -196176l-196169 196176m196169 -233653l-233646 233653m204963 -242446l-242439 242446m204963 -242446l-242440 242446m204963 -242446l-242439 242446m204963 -242446l-242440 242446m204963 -242446l-242440 242446m204963 -242446l-242439 242446m204963 -242446l-242440 242446m204963 -242446l-242439 242446m204963 -242446l-242440 242446m204963 -242446l-242439 242446m204963 -242446l-242440 242446m204963 -242446l-242439 242446m130010 -242446l-242440 242446m204963 -242446l-242440 242446m204964 -242446l-242440 242446m204963 -242446l-242440 242446m204963 -242446l-242439 242446m204963 -242446l-242440 242446m204963 -242446l-242439 242446m204963 -242446l-242440 242446m204963 -242446l-242439 242446m204963 -242446l-242440 242446m204963 -242446l-242439 242446m204963 -242446l-242440 242446m204963 -242446l-242440 242446m204964 -242446l-242440 242446m204963 -242446l-242440 242446m204963 -242446l-242439 242446m-394662 -242446l-20739 20740m620364 -20740l-242440 242446m204963 -242446l-242439 242446m204963 -242446l-242440 242446m204963 -242446l-242439 242446m204963 -242446l-242440 242446m204963 -242446l-242439 242446m204963 -242446l-242440 242446m204963 -242446l-242439 242446m204963 -242446l-242440 242446m204963 -242446l-242440 242446m204963 -242446l-242439 242446m204963 -242446l-208122 208129m170645 -208129l-170645 170653m133169 -170653l-133169 133176m95692 -133176l-95692 95693"/>
  <path class="fil0 str0" d="M6654586 4226381l-502439 0 0 405716 502439 0 0 -405716zm-539916 0l-211371 0 0 405716 211371 0 0 -405716zm-260835 0l-466774 0 0 -74608 1267525 0 52340 0 13 0 0 529788 -52353 0 -751287 0 -16198 0 -33266 0 0 -455180z"/>
  <path class="fil0 str5" d="M6122655 4151773l-74600 74608m658871 -21770l-21770 21770m21770 -59253l-59247 59253m-562500 -74608l-74601 74608m674225 -74608l-74600 74608m37124 -74608l-74601 74608m37124 -74608l-74600 74608m37124 -74608l-74601 74608m37124 -74608l-74600 74608m37124 -74608l-74601 74608m37124 -74608l-74600 74608m37124 -74608l-74601 74608m37124 -74608l-74601 74608m37124 -74608l-74600 74608m37124 -74608l-74601 74608m37124 -74608l-74600 74608m37124 -74608l-74601 74608m37124 -74608l-74600 74608m37124 -74608l-74601 74608m-37829 -74608l-74600 74608m37124 -74608l-74601 74608m37124 -74608l-74601 74608m37124 -74608l-74600 74608m37124 -74608l-74601 74608m37124 -74608l-74600 74608m37124 -74608l-74601 74608m37124 -74608l-74600 74608m37124 -74608l-74601 74608m37124 -74608l-74600 74608m37124 -74608l-74601 74608m37124 -74608l-74600 74608m37124 -74608l-74601 74608m37124 -74608l-74601 74608m37124 -74608l-74600 74608m37124 -74608l-74601 74608"/>
  <path class="fil0 str5" d="M5459636 4177691l-48683 48690m37124 -74608l-61016 61023m23540 -61023l-23540 23554"/>
  <path class="fil0 str5" d="M6706939 4654323l-27238 27238m27238 -64715l-52353 52354m52353 -89837l-52353 52360m52353 -89837l-52353 52354m52353 -89830l-52353 52353m52353 -89830l-52353 52354m52353 -89831l-52353 52354m52353 -89830l-52353 52354m52353 -89831l-52353 52354m52353 -89830l-52353 52354m52353 -89838l-52353 52361m52353 -89837l-52353 52354m30570 -68040l-30570 30563"/>
  <path class="fil0 str5" d="M5903347 4371095l-15928 15928m15928 -53404l-49464 49464m49464 -86941l-49464 49464m49464 -86941l-49464 49465m44265 -81749l-44265 44272m6789 -44272l-6789 6789"/>
  <path class="fil0 str5" d="M6654634 4669158l-12402 12403m11987 -49464l-49464 49464m11988 -49464l-49464 49464m11987 -49464l-49464 49464m11988 -49464l-49464 49464m11987 -49464l-49464 49464m11988 -49464l-49465 49464m11988 -49464l-49464 49464m11987 -49464l-49464 49464m11988 -49464l-49464 49464m11987 -49464l-49464 49464m11988 -49464l-49464 49464m11987 -49464l-49464 49464m11988 -49464l-49464 49464m11987 -49464l-49464 49464m11988 -49464l-49464 49464m11987 -49464l-49464 49464m11988 -49464l-49465 49464m11988 -49464l-49464 49464m11987 -49464l-49464 49464m11988 -49464l-49464 49464m11987 -49464l-49464 49464m48123 -85600l-49464 49464m49464 -86940l-49464 49464m49464 -86948l-49464 49471m49464 -86947l-49464 49464m49464 -86941l-49464 49464m49464 -86940l-49464 49464m33536 -71013l-33536 33536"/>
  <path class="fil0 str5" d="M6152140 4609497l-22599 22600m22599 -60076l-37477 37476m37477 -74953l-37477 37477m37477 -74953l-37477 37476m37477 -74953l-37477 37477m37477 -74953l-37477 37476m37477 -74953l-37477 37477m37477 -74960l-37477 37483m37477 -74960l-37477 37477m37477 -74953l-37477 37476m37477 -74953l-37477 37477m8345 -45821l-8345 8344"/>
  <polygon class="fil2 str6" points="5903299,4226381 6114670,4226381 5931429,4254511 5903299,4630700 "/>
  <polygon class="fil2 str3" points="6150750,4226381 6654586,4226381 6180277,4254511 6152147,4630700 "/>
  <path class="fil0 str5" d="M5459636 4177691l-48683 48690m37124 -74608l-61016 61023m23540 -61023l-23540 23554"/>
  <line class="fil0 str0" x1="381451" y1="3054204" x2="419031" y2= "3016623" />
  <line class="fil0 str1" x1="5387061" y1="3123391" x2="5387061" y2= "3034667" />
  <line class="fil0 str0" x1="5368271" y1="3053457" x2="5405851" y2= "3015877" />
  <line class="fil0 str1" x1="400241" y1="3034667" x2="5387061" y2= "3034667" />
  <line class="fil0 str0" x1="381451" y1="3053457" x2="419031" y2= "3015877" />
  <polygon class="fil1" points="2425205,2981193 2431662,2981193 2453549,2937591 2453549,2931909 2420953,2931909 2420953,2937363 2447472,2937363 2447472,2937488 "/>
  <path id="1" class="fil1" d="M2460324 2946108l0 42 5938 0 0 -42c0,-5496 4362,-9664 10114,-9664 5420,0 9741,3795 9741,8538 0,4099 -1562,6733 -8165,13715l-17317 18279 0 4217 32450 0 0 -5454 -23968 0 0 -125 12444 -12886c8213,-8517 10709,-12617 10709,-18120 0,-7549 -6934,-13529 -15714,-13529 -9278,0 -16232,6423 -16232,15029z"/>
  <polygon id="2" class="fil1" points="2512754,2981193 2518692,2981193 2518692,2931909 2512691,2931909 2499584,2941331 2499584,2947823 2512622,2938435 2512754,2938435 "/>
  <path id="3" class="fil1" d="M2548391 2982023c11476,0 18071,-9942 18071,-25545 0,-15478 -6629,-25406 -18071,-25406 -11441,0 -18140,9997 -18140,25441 0,15603 6630,25510 18140,25510zm0 -5365c-7722,0 -11987,-7860 -11987,-20180 0,-12036 4369,-20027 11987,-20027 7619,0 11919,7922 11919,20062 0,12319 -4231,20145 -11919,20145z"/>
  <line class="fil0 str0" x1="381451" y1="4524907" x2="419024" y2= "4487327" />
  <path class="fil1" d="M1863526 4469830l5939 0 0 -10273 6962 0 0 -5386 -6962 0 0 -33626 -9070 0c-11642,16682 -17408,25669 -21618,33460l0 5552 24749 0 0 10273zm-18665 -15790c3892,-6837 9250,-15071 18569,-28393l96 0 0 28524 -18665 0 0 -131z"/>
  <path id="1" class="fil1" d="M1892444 4447113l6174 0c7031,0 11400,3588 11400,9388 0,5171 -4673,8856 -11200,8856 -6615,0 -10812,-3484 -11358,-8545l-5911 0c443,8171 7038,13854 17339,13854 9657,0 17352,-5890 17352,-14366 0,-6940 -4757,-11545 -12188,-11987l0 -124c6153,-1086 10086,-5552 10086,-11760 0,-7445 -6630,-12720 -15423,-12720 -9250,0 -15472,5344 -16150,13757l5904 0c540,-5185 4300,-8448 9962,-8448 6250,0 9554,3325 9554,8241 0,5005 -3947,8676 -9623,8676l-5904 0 -14 5178z"/>
  <path id="2" class="fil1" d="M1941010 4470659c11476,0 18071,-9941 18071,-25544 0,-15479 -6630,-25406 -18071,-25406 -11442,0 -18140,9996 -18140,25440 0,15604 6629,25510 18140,25510zm0 -5364c-7722,0 -11988,-7861 -11988,-20180 0,-12036 4369,-20028 11988,-20028 7618,0 11918,7923 11918,20062 0,12320 -4231,20146 -11918,20146z"/>
  <path id="3" class="fil1" d="M1983409 4470659c11476,0 18071,-9941 18071,-25544 0,-15479 -6630,-25406 -18071,-25406 -11442,0 -18141,9996 -18141,25440 0,15604 6630,25510 18141,25510zm0 -5364c-7722,0 -11988,-7861 -11988,-20180 0,-12036 4369,-20028 11988,-20028 7618,0 11918,7923 11918,20062 0,12320 -4231,20146 -11918,20146z"/>
  <line class="fil0 str0" x1="3330801" y1="4524907" x2="3368382" y2= "4487327" />
  <line class="fil0 str1" x1="400234" y1="4506124" x2="3349598" y2= "4506124" />
  <line class="fil0 str1" x1="3340224" y1="4151773" x2="3245195" y2= "4151773" />
  <line class="fil0 str1" x1="3245195" y1="4151773" x2="3245195" y2= "1352280" />
  <line class="fil0 str0" x1="3226405" y1="1371070" x2="3263985" y2= "1333490" />
  <line class="fil0 str0" x1="3226405" y1="4170563" x2="3263985" y2= "4132983" />
  <path class="fil1" d="M3187781 2808390l0 -5938 -10273 0 0 -6962 -5386 0 0 6962 -33626 0 0 9070c16682,11642 25669,17407 33460,21618l5552 0 0 -24750 10273 0zm-15790 18666c-6837,-3892 -15071,-9250 -28393,-18569l0 -97 28524 0 0 18666 -131 0z"/>
  <path id="1" class="fil1" d="M3188610 2772283c0,-11476 -9941,-18072 -25544,-18072 -15479,0 -25406,6630 -25406,18072 0,11441 9996,18140 25440,18140 15604,0 25510,-6630 25510,-18140zm-5364 0c0,7722 -7861,11987 -20180,11987 -12036,0 -20028,-4369 -20028,-11987 0,-7619 7923,-11919 20062,-11919 12320,0 20146,4231 20146,11919z"/>
  <path id="2" class="fil1" d="M3188617 2730202c0,-10280 -6920,-17553 -16834,-17553 -9567,0 -16494,6830 -16494,16288 0,4708 1769,8814 4742,11026l0 139 -16080 -1501 0 -23138 -5455 0 0 28178 27612 2703 0 -5765c-3450,-2012 -5531,-5939 -5531,-10557 0,-6547 4750,-11220 11379,-11220 6630,0 11283,4639 11283,11324 0,5911 -3623,10383 -8884,10930l0 6035c8407,-512 14262,-7466 14262,-16889z"/>
  <path id="3" class="fil1" d="M3188610 2688985c0,-11476 -9941,-18071 -25544,-18071 -15479,0 -25406,6630 -25406,18071 0,11442 9996,18141 25440,18141 15604,0 25510,-6630 25510,-18141zm-5364 0c0,7722 -7861,11988 -20180,11988 -12036,0 -20028,-4369 -20028,-11988 0,-7618 7923,-11918 20062,-11918 12320,0 20146,4231 20146,11918z"/>
  <line class="fil0 str1" x1="2539826" y1="1352280" x2="2454745" y2= "1352280" />
  <line class="fil0 str1" x1="2454745" y1="1352280" x2="2454745" y2= "885949" />
  <line class="fil0 str0" x1="2435955" y1="1371070" x2="2473535" y2= "1333490" />
  <line class="fil0 str0" x1="2435955" y1="904739" x2="2473535" y2= "867159" />
  <polygon class="fil1" points="2412609,1171113 2412609,1164656 2369007,1142768 2363324,1142768 2363324,1175364 2368779,1175364 2368779,1148845 2368903,1148845 "/>
  <polygon id="1" class="fil1" points="2412609,1132883 2412609,1126426 2369007,1104538 2363324,1104538 2363324,1137134 2368779,1137134 2368779,1110615 2368903,1110615 "/>
  <path id="2" class="fil1" d="M2413438 1080937c0,-11476 -9941,-18072 -25544,-18072 -15479,0 -25406,6630 -25406,18072 0,11441 9996,18140 25440,18140 15604,0 25510,-6630 25510,-18140zm-5364 0c0,7722 -7861,11987 -20180,11987 -12036,0 -20028,-4369 -20028,-11987 0,-7619 7923,-11919 20062,-11919 12320,0 20146,4231 20146,11919z"/>
  <line class="fil0 str1" x1="509463" y1="3180231" x2="608073" y2= "3180231" />
  <line class="fil0 str1" x1="509463" y1="3434928" x2="608073" y2= "3434928" />
  <line class="fil0 str1" x1="608073" y1="3434928" x2="608073" y2= "3180231" />
  <line class="fil0 str0" x1="589283" y1="3199022" x2="626863" y2= "3161441" />
  <line class="fil0 str0" x1="589283" y1="3453718" x2="626863" y2= "3416138" />
  <path class="fil1" d="M548930 3356373l0 -6173c0,-7031 3588,-11400 9388,-11400 5171,0 8856,4673 8856,11199 0,6616 -3484,10813 -8545,11359l0 5910c8172,-442 13854,-7037 13854,-17338 0,-9658 -5890,-17352 -14365,-17352 -6941,0 -11545,4756 -11988,12188l-124 0c-1086,-6153 -5552,-10086 -11760,-10086 -7445,0 -12720,6629 -12720,15423 0,9250 5344,15472 13757,16149l0 -5904c-5185,-539 -8448,-4300 -8448,-9962 0,-6249 3326,-9554 8241,-9554 5005,0 8676,3948 8676,9624l0 5903 5178 14z"/>
  <path id="1" class="fil1" d="M572483 3307234c0,-10121 -7079,-17428 -16813,-17428 -9339,0 -16252,6934 -16252,16336 0,6118 3173,11545 7970,13771 0,0 0,97 0,97 -13093,-201 -20421,-4888 -20421,-13122 0,-4880 2876,-8842 7362,-10183l0 -6208c-7770,1556 -12796,7957 -12796,16322 0,12071 9741,19129 26332,19129 5324,0 9755,-795 13543,-2419 7093,-3042 11075,-8918 11075,-16295zm-5447 62c0,6326 -5012,11241 -11331,11241 -6263,0 -10902,-4811 -10902,-11337 0,-6533 4639,-11172 11082,-11172 6208,0 11151,4984 11151,11268z"/>
  <path id="2" class="fil1" d="M572477 3265955c0,-11476 -9942,-18071 -25545,-18071 -15479,0 -25406,6630 -25406,18071 0,11442 9997,18141 25441,18141 15603,0 25510,-6630 25510,-18141zm-5365 0c0,7722 -7860,11988 -20180,11988 -12036,0 -20027,-4369 -20027,-11988 0,-7618 7922,-11918 20062,-11918 12319,0 20145,4231 20145,11918z"/>
  <line class="fil0 str1" x1="608073" y1="885949" x2="608073" y2= "3180231" />
  <line class="fil0 str0" x1="589283" y1="904739" x2="626863" y2= "867159" />
  <line class="fil0 str1" x1="486234" y1="3457935" x2="486234" y2= "3557755" />
  <line class="fil0 str0" x1="466808" y1="3576545" x2="504388" y2= "3538965" />
  <line class="fil0 str1" x1="486234" y1="3557755" x2="5387061" y2= "3557755" />
  <polygon class="fil1" points="2511198,3504282 2517655,3504282 2539542,3460680 2539542,3454997 2506946,3454997 2506946,3460452 2533466,3460452 2533466,3460576 "/>
  <polygon id="1" class="fil1" points="2559183,3504282 2565121,3504282 2565121,3454997 2559120,3454997 2546013,3464420 2546013,3470911 2559051,3461523 2559183,3461523 "/>
  <polygon id="2" class="fil1" points="2590175,3504282 2596113,3504282 2596113,3454997 2590112,3454997 2577005,3464420 2577005,3470911 2590043,3461523 2590175,3461523 "/>
  <path id="3" class="fil1" d="M2625812 3505111c11476,0 18071,-9941 18071,-25544 0,-15479 -6629,-25406 -18071,-25406 -11441,0 -18140,9996 -18140,25440 0,15603 6630,25510 18140,25510zm0 -5365c-7722,0 -11987,-7860 -11987,-20179 0,-12036 4369,-20028 11987,-20028 7619,0 11919,7923 11919,20062 0,12320 -4231,20145 -11919,20145z"/>
  <line class="fil0 str0" x1="5368271" y1="3576545" x2="5405851" y2= "3538965" />
  <line class="fil0 str0" x1="381451" y1="1371064" x2="419024" y2= "1333483" />
  <path class="fil1" d="M1361219 1293269l6174 0c7030,0 11400,3588 11400,9388 0,5171 -4674,8856 -11200,8856 -6616,0 -10812,-3484 -11358,-8545l-5911 0c442,8172 7038,13854 17338,13854 9658,0 17352,-5890 17352,-14365 0,-6941 -4756,-11545 -12188,-11988l0 -124c6153,-1086 10087,-5551 10087,-11760 0,-7445 -6630,-12720 -15424,-12720 -9249,0 -15471,5344 -16149,13757l5904 0c539,-5184 4300,-8447 9962,-8447 6250,0 9554,3325 9554,8240 0,5005 -3947,8676 -9623,8676l-5904 0 -14 5178z"/>
  <polygon id="1" class="fil1" points="1405139,1315986 1411077,1315986 1411077,1266702 1405077,1266702 1391969,1276124 1391969,1282616 1405007,1273228 1405139,1273228 "/>
  <polygon id="2" class="fil1" points="1426376,1315986 1432833,1315986 1454720,1272384 1454720,1266702 1422125,1266702 1422125,1272156 1448644,1272156 1448644,1272281 "/>
  <path id="3" class="fil1" d="M1478322 1316816c11476,0 18071,-9942 18071,-25545 0,-15478 -6630,-25406 -18071,-25406 -11441,0 -18140,9997 -18140,25441 0,15603 6630,25510 18140,25510zm0 -5365c-7722,0 -11987,-7860 -11987,-20180 0,-12036 4369,-20027 11987,-20027 7618,0 11918,7922 11918,20062 0,12319 -4230,20145 -11918,20145z"/>
  <line class="fil0 str1" x1="400234" y1="1352280" x2="2454745" y2= "1352280" />
  <polygon class="fil1" points="3594409,4568073 3594409,4562135 3545125,4562135 3545125,4568136 3554548,4581243 3561039,4581243 3551651,4568205 3551651,4568073 "/>
  <path id="1" class="fil1" d="M3595239 4532436c0,-11476 -9941,-18071 -25545,-18071 -15478,0 -25406,6629 -25406,18071 0,11441 9997,18140 25441,18140 15603,0 25510,-6630 25510,-18140zm-5365 0c0,7722 -7860,11987 -20180,11987 -12036,0 -20027,-4369 -20027,-11987 0,-7619 7922,-11919 20062,-11919 12319,0 20145,4231 20145,11919z"/>
  <path id="2" class="fil1" d="M3595246 4490355c0,-10280 -6921,-17553 -16834,-17553 -9568,0 -16495,6831 -16495,16288 0,4708 1770,8814 4742,11026l0 139 -16080 -1500 0 -23139 -5454 0 0 28178 27611 2703 0 -5765c-3450,-2012 -5530,-5939 -5530,-10557 0,-6547 4749,-11220 11379,-11220 6630,0 11282,4639 11282,11324 0,5911 -3622,10384 -8883,10930l0 6035c8406,-512 14262,-7466 14262,-16889z"/>
  <path id="3" class="fil1" d="M3595239 4449138c0,-11476 -9941,-18071 -25545,-18071 -15478,0 -25406,6630 -25406,18071 0,11442 9997,18141 25441,18141 15603,0 25510,-6630 25510,-18141zm-5365 0c0,7722 -7860,11988 -20180,11988 -12036,0 -20027,-4369 -20027,-11988 0,-7618 7922,-11918 20062,-11918 12319,0 20145,4231 20145,11918z"/>
  <line class="fil0 str1" x1="3638108" y1="4151773" x2="3638108" y2= "4860544" />
  <line class="fil0 str1" x1="3509508" y1="4151773" x2="3638108" y2= "4151773" />
  <line class="fil0 str0" x1="3619317" y1="4170563" x2="3656898" y2= "4132983" />
  <line class="fil0 str0" x1="3619317" y1="4879334" x2="3656898" y2= "4841754" />
  <line class="fil0 str1" x1="3509508" y1="4860544" x2="3638108" y2= "4860544" />
  <line class="fil0 str1" x1="3498820" y1="4871750" x2="3498820" y2= "5000350" />
  <line class="fil0 str1" x1="3350234" y1="5000350" x2="3498820" y2= "5000350" />
  <polygon class="fil1" points="5571437,3706182 5571437,3700244 5522152,3700244 5522152,3706244 5531575,3719352 5538067,3719352 5528679,3706313 5528679,3706182 "/>
  <path id="1" class="fil1" d="M5571437 3664357l0 -5938 -10273 0 0 -6962 -5386 0 0 6962 -33626 0 0 9070c16682,11642 25669,17407 33460,21617l5552 0 0 -24749 10273 0zm-15790 18666c-6837,-3892 -15071,-9250 -28393,-18569l0 -97 28524 0 0 18666 -131 0z"/>
  <polygon id="2" class="fil1" points="5571437,3643334 5571437,3636877 5527835,3614990 5522152,3614990 5522152,3647586 5527607,3647586 5527607,3621066 5527731,3621066 "/>
  <path id="3" class="fil1" d="M5572266 3591388c0,-11476 -9941,-18071 -25544,-18071 -15479,0 -25406,6630 -25406,18071 0,11441 9996,18140 25441,18140 15603,0 25509,-6629 25509,-18140zm-5364 0c0,7722 -7861,11988 -20180,11988 -12036,0 -20028,-4370 -20028,-11988 0,-7618 7923,-11918 20063,-11918 12319,0 20145,4231 20145,11918z"/>
  <line class="fil0 str1" x1="5615135" y1="3140916" x2="5615135" y2= "4151746" />
  <line class="fil0 str1" x1="5499850" y1="3140916" x2="5615135" y2= "3140916" />
  <line class="fil0 str0" x1="5596345" y1="3159706" x2="5633925" y2= "3122126" />
  <line class="fil0 str0" x1="5596345" y1="4170536" x2="5633925" y2= "4132956" />
  <polygon class="fil1" points="5575481,1917519 5575481,1911580 5526197,1911580 5526197,1917581 5535619,1930688 5542111,1930688 5532723,1917650 5532723,1917519 "/>
  <path id="1" class="fil1" d="M5575481 1875694l0 -5939 -10273 0 0 -6961 -5385 0 0 6961 -33626 0 0 9070c16681,11642 25668,17408 33460,21618l5551 0 0 -24749 10273 0zm-15790 18665c-6837,-3892 -15071,-9249 -28392,-18568l0 -97 28524 0 0 18665 -132 0z"/>
  <polygon id="2" class="fil1" points="5575481,1854671 5575481,1848214 5531879,1826326 5526197,1826326 5526197,1858922 5531651,1858922 5531651,1832403 5531776,1832403 "/>
  <path id="3" class="fil1" d="M5576311 1802725c0,-11476 -9942,-18071 -25545,-18071 -15478,0 -25406,6629 -25406,18071 0,11441 9997,18140 25441,18140 15603,0 25510,-6630 25510,-18140zm-5365 0c0,7722 -7860,11987 -20180,11987 -12036,0 -20027,-4369 -20027,-11987 0,-7619 7922,-11919 20062,-11919 12319,0 20145,4231 20145,11919z"/>
  <line class="fil0 str1" x1="5615135" y1="1352253" x2="5615135" y2= "2363082" />
  <line class="fil0 str1" x1="5499850" y1="2363082" x2="5615135" y2= "2363082" />
  <line class="fil0 str1" x1="5387061" y1="2464907" x2="5478364" y2= "2464907" />
  <line class="fil0 str1" x1="5387061" y1="2464907" x2="5387061" y2= "2381824" />
  <line class="fil0 str1" x1="5478364" y1="2464907" x2="5478364" y2= "2381824" />
  <line class="fil0 str0" x1="5368271" y1="2483697" x2="5405851" y2= "2446117" />
  <line class="fil0 str0" x1="5459574" y1="2483697" x2="5497154" y2= "2446117" />
  <polygon class="fil1" points="5392661,2567893 5398599,2567893 5398599,2518609 5392599,2518609 5379491,2528032 5379491,2534523 5392530,2525135 5392661,2525135 "/>
  <path id="1" class="fil1" d="M5410787 2532809l0 41 5939 0 0 -41c0,-5496 4362,-9665 10114,-9665 5420,0 9741,3795 9741,8538 0,4099 -1563,6733 -8165,13716l-17317 18278 0 4217 32450 0 0 -5454 -23968 0 0 -125 12444 -12886c8213,-8517 10708,-12616 10708,-18119 0,-7550 -6933,-13530 -15713,-13530 -9278,0 -16233,6423 -16233,15030z"/>
  <path id="2" class="fil1" d="M5467863 2568723c11476,0 18071,-9941 18071,-25544 0,-15479 -6630,-25406 -18071,-25406 -11441,0 -18140,9996 -18140,25440 0,15603 6629,25510 18140,25510zm0 -5365c-7722,0 -11988,-7860 -11988,-20179 0,-12036 4370,-20028 11988,-20028 7618,0 11918,7923 11918,20062 0,12320 -4231,20145 -11918,20145z"/>
  <line class="fil0 str0" x1="5596345" y1="1371043" x2="5633925" y2= "1333463" />
  <line class="fil0 str1" x1="5387061" y1="4820565" x2="5853883" y2= "4820565" />
  <line class="fil0 str0" x1="5835093" y1="4839355" x2="5872673" y2= "4801775" />
  <line class="fil0 str0" x1="5368271" y1="4839355" x2="5405851" y2= "4801775" />
  <path class="fil1" d="M5579470 4788460c10121,0 17428,-7079 17428,-16813 0,-9340 -6934,-16253 -16336,-16253 -6118,0 -11545,3173 -13771,7971 0,0 -97,0 -97,0 201,-13094 4888,-20422 13122,-20422 4880,0 8842,2876 10183,7363l6208 0c-1556,-7771 -7957,-12797 -16322,-12797 -12071,0 -19129,9741 -19129,26333 0,5323 795,9754 2420,13543 3041,7093 8918,11075 16294,11075zm-62 -5448c-6326,0 -11241,-5012 -11241,-11331 0,-6263 4811,-10902 11338,-10902 6533,0 11171,4639 11171,11082 0,6208 -4984,11151 -11268,11151z"/>
  <path id="1" class="fil1" d="M5619186 4788453c12050,0 19074,-9699 19074,-26277 0,-5372 -795,-9824 -2427,-13619 -3000,-7073 -8862,-11055 -16273,-11055 -10101,0 -17442,7093 -17442,16848 0,9367 6968,16288 16349,16288 6278,0 11670,-3174 13758,-8054 34,0 34,0 55,0 0,0 41,0 41,0 -165,13059 -4873,20504 -13065,20504 -4881,0 -8877,-2931 -10170,-7404l-6242 0c1500,7708 7943,12769 16342,12769zm339 -23201c-6443,0 -11185,-4680 -11185,-11116 0,-6195 4977,-11110 11289,-11110 6353,0 11255,4950 11255,11289 0,6291 -4833,10937 -11359,10937z"/>
  <path id="2" class="fil1" d="M5662601 4788453c11476,0 18072,-9941 18072,-25544 0,-15479 -6630,-25407 -18072,-25407 -11441,0 -18140,9997 -18140,25441 0,15603 6630,25510 18140,25510zm0 -5365c-7722,0 -11987,-7860 -11987,-20179 0,-12036 4369,-20028 11987,-20028 7619,0 11919,7922 11919,20062 0,12319 -4231,20145 -11919,20145z"/>
  <line class="fil0 str1" x1="5387061" y1="4820565" x2="5387061" y2= "4243353" />
  <line class="fil0 str1" x1="5853835" y1="4820565" x2="6706939" y2= "4820565" />
  <line class="fil0 str0" x1="6688149" y1="4839355" x2="6725730" y2= "4801775" />
  <line class="fil0 str0" x1="5835045" y1="4839355" x2="5872625" y2= "4801775" />
  <polygon class="fil1" points="6220042,4787623 6225980,4787623 6225980,4738339 6219979,4738339 6206872,4747762 6206872,4754253 6219910,4744865 6220042,4744865 "/>
  <path id="1" class="fil1" d="M6238168 4752539l0 41 5939 0 0 -41c0,-5496 4362,-9665 10114,-9665 5420,0 9740,3795 9740,8538 0,4099 -1562,6733 -8164,13716l-17318 18278 0 4217 32451 0 0 -5454 -23968 0 0 -125 12443 -12886c8213,-8517 10709,-12617 10709,-18119 0,-7550 -6934,-13530 -15714,-13530 -9277,0 -16232,6423 -16232,15030z"/>
  <path id="2" class="fil1" d="M6299723 4787623l5939 0 0 -10273 6961 0 0 -5385 -6961 0 0 -33626 -9070 0c-11642,16682 -17408,25669 -21618,33460l0 5551 24749 0 0 10273zm-18665 -15789c3892,-6838 9250,-15071 18569,-28393l96 0 0 28524 -18665 0 0 -131z"/>
  <path id="3" class="fil1" d="M6335831 4788453c11476,0 18071,-9941 18071,-25544 0,-15479 -6630,-25407 -18071,-25407 -11441,0 -18140,9997 -18140,25441 0,15603 6630,25510 18140,25510zm0 -5365c-7722,0 -11987,-7860 -11987,-20179 0,-12036 4369,-20028 11987,-20028 7618,0 11918,7922 11918,20062 0,12319 -4230,20145 -11918,20145z"/>
  <line class="fil0 str1" x1="5853835" y1="4820565" x2="5853835" y2= "4698837" />
  <line class="fil0 str1" x1="6706939" y1="4820565" x2="6706939" y2= "4704098" />
  <line class="fil0 str1" x1="5712432" y1="4681561" x2="5835349" y2= "4681561" />
  <line class="fil0 str0" x1="5693642" y1="4700351" x2="5731222" y2= "4662771" />
  <line class="fil0 str0" x1="5693642" y1="4245171" x2="5731222" y2= "4207591" />
  <line class="fil0 str1" x1="5712432" y1="4681561" x2="5712432" y2= "4226381" />
  <path class="fil1" d="M5676559 4495215c0,-10121 -7079,-17428 -16813,-17428 -9340,0 -16253,6934 -16253,16336 0,6118 3173,11545 7971,13771 0,0 0,97 0,97 -13093,-201 -20421,-4888 -20421,-13122 0,-4880 2875,-8842 7362,-10183l0 -6208c-7770,1556 -12796,7957 -12796,16322 0,12071 9740,19129 26332,19129 5323,0 9755,-795 13543,-2420 7093,-3041 11075,-8918 11075,-16294zm-5447 62c0,6326 -5013,11241 -11331,11241 -6264,0 -10902,-4812 -10902,-11338 0,-6533 4638,-11171 11082,-11171 6208,0 11151,4984 11151,11268z"/>
  <path id="1" class="fil1" d="M5676559 4453362c0,-10121 -7079,-17428 -16813,-17428 -9340,0 -16253,6934 -16253,16336 0,6118 3173,11545 7971,13771 0,0 0,97 0,97 -13093,-200 -20421,-4888 -20421,-13121 0,-4881 2875,-8842 7362,-10183l0 -6209c-7770,1556 -12796,7958 -12796,16323 0,12070 9740,19128 26332,19128 5323,0 9755,-795 13543,-2419 7093,-3042 11075,-8918 11075,-16295zm-5447 63c0,6325 -5013,11240 -11331,11240 -6264,0 -10902,-4811 -10902,-11337 0,-6533 4638,-11172 11082,-11172 6208,0 11151,4984 11151,11269z"/>
  <path id="2" class="fil1" d="M5676552 4412084c0,-11476 -9941,-18072 -25544,-18072 -15479,0 -25406,6630 -25406,18072 0,11441 9996,18140 25440,18140 15604,0 25510,-6630 25510,-18140zm-5364 0c0,7722 -7861,11987 -20180,11987 -12036,0 -20028,-4369 -20028,-11987 0,-7619 7923,-11919 20062,-11919 12320,0 20146,4231 20146,11919z"/>
  <line class="fil0 str1" x1="3350234" y1="4871750" x2="3350234" y2= "5000350" />
  <line class="fil0 str0" x1="3480030" y1="5019140" x2="3517610" y2= "4981560" />
  <line class="fil0 str0" x1="3331444" y1="5019140" x2="3369024" y2= "4981560" />
  <path class="fil1" d="M3366971 4925611l0 42 5939 0 0 -42c0,-5496 4362,-9665 10114,-9665 5420,0 9740,3796 9740,8538 0,4100 -1562,6734 -8164,13716l-17318 18279 0 4217 32451 0 0 -5455 -23968 0 0 -124 12444 -12887c8213,-8517 10708,-12616 10708,-18119 0,-7549 -6934,-13529 -15714,-13529 -9277,0 -16232,6422 -16232,15029z"/>
  <path id="1" class="fil1" d="M3428527 4960696l5938 0 0 -10273 6962 0 0 -5386 -6962 0 0 -33626 -9070 0c-11642,16682 -17408,25669 -21618,33460l0 5552 24750 0 0 10273zm-18666 -15790c3892,-6837 9250,-15071 18569,-28393l97 0 0 28524 -18666 0 0 -131z"/>
  <path id="2" class="fil1" d="M3464634 4961525c11476,0 18071,-9941 18071,-25544 0,-15479 -6629,-25406 -18071,-25406 -11441,0 -18140,9996 -18140,25440 0,15604 6630,25510 18140,25510zm0 -5364c-7722,0 -11987,-7861 -11987,-20180 0,-12036 4369,-20028 11987,-20028 7619,0 11919,7923 11919,20062 0,12320 -4231,20146 -11919,20146z"/>
  <line class="fil0 str1" x1="2557206" y1="2464907" x2="5387061" y2= "2464907" />
  <line class="fil0 str1" x1="2557206" y1="2464907" x2="2557206" y2= "1371070" />
  <line class="fil0 str0" x1="2538415" y1="2483697" x2="2575996" y2= "2446117" />
  <path class="fil1" d="M3920727 2413231l5938 0 0 -10273 6962 0 0 -5386 -6962 0 0 -33625 -9070 0c-11642,16681 -17407,25668 -21618,33460l0 5551 24750 0 0 10273zm-18666 -15790c3892,-6837 9250,-15071 18569,-28392l97 0 0 28523 -18666 0 0 -131z"/>
  <polygon id="1" class="fil1" points="3952189,2413231 3958127,2413231 3958127,2363947 3952127,2363947 3939019,2373369 3939019,2379861 3952057,2370473 3952189,2370473 "/>
  <path id="2" class="fil1" d="M3987826 2414060c11476,0 18072,-9941 18072,-25544 0,-15479 -6630,-25406 -18072,-25406 -11441,0 -18140,9997 -18140,25441 0,15603 6630,25509 18140,25509zm0 -5364c-7722,0 -11987,-7861 -11987,-20180 0,-12036 4369,-20027 11987,-20027 7619,0 11919,7922 11919,20062 0,12319 -4231,20145 -11919,20145z"/>
  <path id="3" class="fil1" d="M4030225 2414060c11476,0 18071,-9941 18071,-25544 0,-15479 -6629,-25406 -18071,-25406 -11441,0 -18140,9997 -18140,25441 0,15603 6630,25509 18140,25509zm0 -5364c-7722,0 -11987,-7861 -11987,-20180 0,-12036 4369,-20027 11987,-20027 7619,0 11919,7922 11919,20062 0,12319 -4231,20145 -11919,20145z"/>
  <line class="fil0 str1" x1="5615135" y1="3140916" x2="5615135" y2= "2363082" />
  <polygon class="fil1" points="5575481,2814605 5575481,2808667 5526197,2808667 5526197,2814667 5535619,2827775 5542111,2827775 5532723,2814737 5532723,2814605 "/>
  <polygon id="1" class="fil1" points="5575481,2783613 5575481,2777675 5526197,2777675 5526197,2783676 5535619,2796783 5542111,2796783 5532723,2783745 5532723,2783613 "/>
  <polygon id="2" class="fil1" points="5575481,2752621 5575481,2746683 5526197,2746683 5526197,2752684 5535619,2765791 5542111,2765791 5532723,2752753 5532723,2752621 "/>
  <path id="3" class="fil1" d="M5576311 2716984c0,-11476 -9942,-18071 -25545,-18071 -15478,0 -25406,6629 -25406,18071 0,11441 9997,18140 25441,18140 15603,0 25510,-6630 25510,-18140zm-5365 0c0,7722 -7860,11987 -20180,11987 -12036,0 -20027,-4369 -20027,-11987 0,-7619 7922,-11919 20062,-11919 12319,0 20145,4231 20145,11919z"/>
  <line class="fil0 str0" x1="5959130" y1="1371043" x2="5996710" y2= "1333463" />
  <line class="fil0 str0" x1="5596345" y1="2381873" x2="5633925" y2= "2344292" />
  <path class="fil1" d="M3854028 2788155l5938 0 0 -21147c0,-6443 4176,-10674 10384,-10674 5849,0 9333,3546 9333,9416l0 22405 5945 0 0 -23463c0,-8178 -5433,-13647 -13494,-13647 -5641,0 -9741,2157 -12036,6319l-132 0 0 -20588 -5938 0 0 51379z"/>
  <path id="1" class="fil1" d="M3927315 2777882l0 -5247 -33349 0 0 5247 33349 0zm0 -13073l0 -5247 -33349 0 0 5247 33349 0z"/>
  <path id="2" class="fil1" d="M3935493 2753071l0 41 5939 0 0 -41c0,-5496 4362,-9665 10114,-9665 5420,0 9741,3795 9741,8538 0,4099 -1563,6733 -8165,13716l-17318 18278 0 4217 32451 0 0 -5454 -23968 0 0 -125 12444 -12886c8213,-8517 10708,-12617 10708,-18119 0,-7550 -6934,-13530 -15713,-13530 -9278,0 -16233,6423 -16233,15030z"/>
  <polygon id="3" class="fil1" points="3978169,2788155 3984626,2788155 4006513,2744554 4006513,2738871 3973917,2738871 3973917,2744326 4000436,2744326 4000436,2744450 "/>
  <path id="4" class="fil1" d="M4023609 2765438l6174 0c7030,0 11400,3588 11400,9389 0,5171 -4674,8855 -11200,8855 -6616,0 -10812,-3484 -11358,-8544l-5911 0c442,8171 7038,13854 17338,13854 9658,0 17353,-5890 17353,-14366 0,-6941 -4757,-11545 -12188,-11987l0 -125c6152,-1085 10086,-5551 10086,-11759 0,-7446 -6630,-12721 -15423,-12721 -9250,0 -15472,5344 -16150,13758l5904 0c539,-5185 4300,-8448 9962,-8448 6250,0 9554,3325 9554,8240 0,5006 -3947,8676 -9623,8676l-5904 0 -14 5178z"/>
  <path id="5" class="fil1" d="M4072175 2788985c11476,0 18071,-9941 18071,-25544 0,-15479 -6630,-25407 -18071,-25407 -11442,0 -18141,9997 -18141,25441 0,15603 6630,25510 18141,25510zm0 -5365c-7722,0 -11988,-7860 -11988,-20179 0,-12036 4369,-20028 11988,-20028 7618,0 11918,7923 11918,20062 0,12319 -4231,20145 -11918,20145z"/>
  <rect class="fil0 str0" x="3786935" y="2670914" width="370403" height="185205"/>
  <path class="fil0 str0" d="M1110802 954259l8662 0 0 28842 -8662 0 0 -28842zm42067 0l8662 0 0 28842 -8662 0 0 -28842zm42067 0l8662 0 0 28842 -8662 0 0 -28842zm42066 0l8663 0 0 28842 -8663 0 0 -28842zm42067 0l8663 0 0 28842 -8663 0 0 -28842zm42067 0l8663 0 0 28842 -8663 0 0 -28842zm42067 0l8662 0 0 28842 -8662 0 0 -28842zm42067 0l8662 0 0 28842 -8662 0 0 -28842zm42067 0l8662 0 0 28842 -8662 0 0 -28842zm42067 0l8662 0 0 28842 -8662 0 0 -28842zm42067 0l8662 0 0 28842 -8662 0 0 -28842zm42067 0l8662 0 0 28842 -8662 0 0 -28842zm42067 0l8662 0 0 28842 -8662 0 0 -28842zm42067 0l8662 0 0 28842 -8662 0 0 -28842zm42067 0l8662 0 0 28842 -8662 0 0 -28842zm42067 0l8662 0 0 28842 -8662 0 0 -28842zm42066 0l8663 0 0 28842 -8663 0 0 -28842zm42067 0l8663 0 0 28842 -8663 0 0 -28842zm42067 0l8663 0 0 28842 -8663 0 0 -28842z"/>
  <path class="fil0 str0" d="M1893371 923772l0 0c9188,0 16702,7514 16702,16695l0 56426c0,9180 -7514,16695 -16702,16695l0 0c-9188,0 -16702,-7515 -16702,-16695l0 -56426c0,-9181 7514,-16695 16702,-16695zm-42067 0l0 0c9188,0 16702,7514 16702,16695l0 56426c0,9180 -7514,16695 -16702,16695l0 0c-9188,0 -16702,-7515 -16702,-16695l0 -56426c0,-9181 7514,-16695 16702,-16695zm-42067 0l0 0c9188,0 16702,7514 16702,16695l0 56426c0,9180 -7514,16695 -16702,16695l0 0c-9188,0 -16702,-7515 -16702,-16695l0 -56426c0,-9181 7514,-16695 16702,-16695zm-42067 0l0 0c9188,0 16702,7514 16702,16695l0 56426c0,9180 -7514,16695 -16702,16695l0 0c-9188,0 -16702,-7515 -16702,-16695l0 -56426c0,-9181 7514,-16695 16702,-16695zm-42067 0l0 0c9188,0 16703,7514 16703,16695l0 56426c0,9180 -7515,16695 -16703,16695l0 0c-9187,0 -16702,-7515 -16702,-16695l0 -56426c0,-9181 7515,-16695 16702,-16695zm-42067 0l0 0c9188,0 16703,7514 16703,16695l0 56426c0,9180 -7515,16695 -16703,16695l0 0c-9187,0 -16702,-7515 -16702,-16695l0 -56426c0,-9181 7515,-16695 16702,-16695zm-42067 0l0 0c9188,0 16703,7514 16703,16695l0 56426c0,9180 -7515,16695 -16703,16695l0 0c-9187,0 -16702,-7515 -16702,-16695l0 -56426c0,-9181 7515,-16695 16702,-16695zm-42067 0l0 0c9188,0 16703,7514 16703,16695l0 56426c0,9180 -7515,16695 -16703,16695l0 0c-9187,0 -16702,-7515 -16702,-16695l0 -56426c0,-9181 7515,-16695 16702,-16695zm-42067 0l0 0c9188,0 16703,7514 16703,16695l0 56426c0,9180 -7515,16695 -16703,16695l0 0c-9187,0 -16702,-7515 -16702,-16695l0 -56426c0,-9181 7515,-16695 16702,-16695zm-42066 0l0 0c9187,0 16702,7514 16702,16695l0 56426c0,9180 -7515,16695 -16702,16695l0 0c-9188,0 -16703,-7515 -16703,-16695l0 -56426c0,-9181 7515,-16695 16703,-16695zm-42067 0l0 0c9187,0 16702,7514 16702,16695l0 56426c0,9180 -7515,16695 -16702,16695l0 0c-9188,0 -16703,-7515 -16703,-16695l0 -56426c0,-9181 7515,-16695 16703,-16695zm-42067 0l0 0c9187,0 16702,7514 16702,16695l0 56426c0,9180 -7515,16695 -16702,16695l0 0c-9188,0 -16703,-7515 -16703,-16695l0 -56426c0,-9181 7515,-16695 16703,-16695zm-42067 0l0 0c9187,0 16702,7514 16702,16695l0 56426c0,9180 -7515,16695 -16702,16695l0 0c-9188,0 -16703,-7515 -16703,-16695l0 -56426c0,-9181 7515,-16695 16703,-16695zm-42067 0l0 0c9188,0 16702,7514 16702,16695l0 56426c0,9180 -7514,16695 -16702,16695l0 0c-9188,0 -16702,-7515 -16702,-16695l0 -56426c0,-9181 7514,-16695 16702,-16695zm-42067 0l0 0c9188,0 16702,7514 16702,16695l0 56426c0,9180 -7514,16695 -16702,16695l0 0c-9188,0 -16702,-7515 -16702,-16695l0 -56426c0,-9181 7514,-16695 16702,-16695zm-42067 0l0 0c9188,0 16702,7514 16702,16695l0 56426c0,9180 -7514,16695 -16702,16695l0 0c-9188,0 -16702,-7515 -16702,-16695l0 -56426c0,-9181 7514,-16695 16702,-16695zm-42067 0l0 0c9188,0 16702,7514 16702,16695l0 56426c0,9180 -7514,16695 -16702,16695l0 0c-9188,0 -16702,-7515 -16702,-16695l0 -56426c0,-9181 7514,-16695 16702,-16695zm-42067 0l0 0c9188,0 16703,7514 16703,16695l0 56426c0,9180 -7515,16695 -16703,16695l0 0c-9187,0 -16702,-7515 -16702,-16695l0 -56426c0,-9181 7515,-16695 16702,-16695zm-42067 0l0 0c9188,0 16703,7514 16703,16695l0 56426c0,9180 -7515,16695 -16703,16695l0 0c-9187,0 -16702,-7515 -16702,-16695l0 -56426c0,-9181 7515,-16695 16702,-16695zm-42067 0l0 0c9188,0 16703,7514 16703,16695l0 56426c0,9180 -7515,16695 -16703,16695l0 0c-9187,0 -16702,-7515 -16702,-16695l0 -56426c0,-9181 7515,-16695 16702,-16695z"/>
  <path class="fil0 str0" d="M3602428 1420590l8663 0 0 28842 -8663 0 0 -28842zm42067 0l8663 0 0 28842 -8663 0 0 -28842zm42067 0l8663 0 0 28842 -8663 0 0 -28842zm42067 0l8662 0 0 28842 -8662 0 0 -28842zm42067 0l8662 0 0 28842 -8662 0 0 -28842zm42067 0l8662 0 0 28842 -8662 0 0 -28842zm42067 0l8662 0 0 28842 -8662 0 0 -28842zm42067 0l8662 0 0 28842 -8662 0 0 -28842zm42067 0l8662 0 0 28842 -8662 0 0 -28842zm42067 0l8662 0 0 28842 -8662 0 0 -28842zm42067 0l8662 0 0 28842 -8662 0 0 -28842zm42067 0l8662 0 0 28842 -8662 0 0 -28842zm42066 0l8663 0 0 28842 -8663 0 0 -28842zm42067 0l8663 0 0 28842 -8663 0 0 -28842zm42067 0l8663 0 0 28842 -8663 0 0 -28842zm42067 0l8662 0 0 28842 -8662 0 0 -28842zm42067 0l8662 0 0 28842 -8662 0 0 -28842zm42067 0l8662 0 0 28842 -8662 0 0 -28842zm42067 0l8662 0 0 28842 -8662 0 0 -28842z"/>
  <path class="fil0 str0" d="M4384998 1390103l0 0c9187,0 16702,7514 16702,16695l0 56426c0,9180 -7515,16695 -16702,16695l0 0c-9188,0 -16703,-7515 -16703,-16695l0 -56426c0,-9181 7515,-16695 16703,-16695zm-42067 0l0 0c9187,0 16702,7514 16702,16695l0 56426c0,9180 -7515,16695 -16702,16695l0 0c-9188,0 -16703,-7515 -16703,-16695l0 -56426c0,-9181 7515,-16695 16703,-16695zm-42067 0l0 0c9187,0 16702,7514 16702,16695l0 56426c0,9180 -7515,16695 -16702,16695l0 0c-9188,0 -16703,-7515 -16703,-16695l0 -56426c0,-9181 7515,-16695 16703,-16695zm-42067 0l0 0c9187,0 16702,7514 16702,16695l0 56426c0,9180 -7515,16695 -16702,16695l0 0c-9188,0 -16703,-7515 -16703,-16695l0 -56426c0,-9181 7515,-16695 16703,-16695zm-42067 0l0 0c9188,0 16702,7514 16702,16695l0 56426c0,9180 -7514,16695 -16702,16695l0 0c-9188,0 -16702,-7515 -16702,-16695l0 -56426c0,-9181 7514,-16695 16702,-16695zm-42067 0l0 0c9188,0 16702,7514 16702,16695l0 56426c0,9180 -7514,16695 -16702,16695l0 0c-9188,0 -16702,-7515 -16702,-16695l0 -56426c0,-9181 7514,-16695 16702,-16695zm-42067 0l0 0c9188,0 16702,7514 16702,16695l0 56426c0,9180 -7514,16695 -16702,16695l0 0c-9188,0 -16702,-7515 -16702,-16695l0 -56426c0,-9181 7514,-16695 16702,-16695zm-42067 0l0 0c9188,0 16702,7514 16702,16695l0 56426c0,9180 -7514,16695 -16702,16695l0 0c-9188,0 -16702,-7515 -16702,-16695l0 -56426c0,-9181 7514,-16695 16702,-16695zm-42067 0l0 0c9188,0 16703,7514 16703,16695l0 56426c0,9180 -7515,16695 -16703,16695l0 0c-9187,0 -16702,-7515 -16702,-16695l0 -56426c0,-9181 7515,-16695 16702,-16695zm-42067 0l0 0c9188,0 16703,7514 16703,16695l0 56426c0,9180 -7515,16695 -16703,16695l0 0c-9187,0 -16702,-7515 -16702,-16695l0 -56426c0,-9181 7515,-16695 16702,-16695zm-42067 0l0 0c9188,0 16703,7514 16703,16695l0 56426c0,9180 -7515,16695 -16703,16695l0 0c-9187,0 -16702,-7515 -16702,-16695l0 -56426c0,-9181 7515,-16695 16702,-16695zm-42067 0l0 0c9188,0 16703,7514 16703,16695l0 56426c0,9180 -7515,16695 -16703,16695l0 0c-9187,0 -16702,-7515 -16702,-16695l0 -56426c0,-9181 7515,-16695 16702,-16695zm-42066 0l0 0c9187,0 16702,7514 16702,16695l0 56426c0,9180 -7515,16695 -16702,16695l0 0c-9188,0 -16703,-7515 -16703,-16695l0 -56426c0,-9181 7515,-16695 16703,-16695zm-42067 0l0 0c9187,0 16702,7514 16702,16695l0 56426c0,9180 -7515,16695 -16702,16695l0 0c-9188,0 -16703,-7515 -16703,-16695l0 -56426c0,-9181 7515,-16695 16703,-16695zm-42067 0l0 0c9187,0 16702,7514 16702,16695l0 56426c0,9180 -7515,16695 -16702,16695l0 0c-9188,0 -16703,-7515 -16703,-16695l0 -56426c0,-9181 7515,-16695 16703,-16695zm-42067 0l0 0c9187,0 16702,7514 16702,16695l0 56426c0,9180 -7515,16695 -16702,16695l0 0c-9188,0 -16703,-7515 -16703,-16695l0 -56426c0,-9181 7515,-16695 16703,-16695zm-42067 0l0 0c9188,0 16702,7514 16702,16695l0 56426c0,9180 -7514,16695 -16702,16695l0 0c-9188,0 -16702,-7515 -16702,-16695l0 -56426c0,-9181 7514,-16695 16702,-16695zm-42067 0l0 0c9188,0 16702,7514 16702,16695l0 56426c0,9180 -7514,16695 -16702,16695l0 0c-9188,0 -16702,-7515 -16702,-16695l0 -56426c0,-9181 7514,-16695 16702,-16695zm-42067 0l0 0c9188,0 16702,7514 16702,16695l0 56426c0,9180 -7514,16695 -16702,16695l0 0c-9188,0 -16702,-7515 -16702,-16695l0 -56426c0,-9181 7514,-16695 16702,-16695zm-42067 0l0 0c9188,0 16702,7514 16702,16695l0 56426c0,9180 -7514,16695 -16702,16695l0 0c-9188,0 -16702,-7515 -16702,-16695l0 -56426c0,-9181 7514,-16695 16702,-16695z"/>
  <path class="fil0 str0" d="M6345033 1420590l8662 0 0 28842 -8662 0 0 -28842zm42066 0l8663 0 0 28842 -8663 0 0 -28842zm42067 0l8663 0 0 28842 -8663 0 0 -28842zm42067 0l8663 0 0 28842 -8663 0 0 -28842zm42067 0l8663 0 0 28842 -8663 0 0 -28842zm42067 0l8662 0 0 28842 -8662 0 0 -28842zm42067 0l8662 0 0 28842 -8662 0 0 -28842zm42067 0l8662 0 0 28842 -8662 0 0 -28842zm42067 0l8662 0 0 28842 -8662 0 0 -28842z"/>
  <path class="fil0 str0" d="M6706933 1390103l0 0 0 89816 0 0c-9188,0 -16703,-7515 -16703,-16695l0 -56426c0,-9181 7515,-16695 16703,-16695zm-42067 0l0 0c9187,0 16702,7514 16702,16695l0 56426c0,9180 -7515,16695 -16702,16695l0 0c-9188,0 -16703,-7515 -16703,-16695l0 -56426c0,-9181 7515,-16695 16703,-16695zm-42067 0l0 0c9187,0 16702,7514 16702,16695l0 56426c0,9180 -7515,16695 -16702,16695l0 0c-9188,0 -16703,-7515 -16703,-16695l0 -56426c0,-9181 7515,-16695 16703,-16695zm-42067 0l0 0c9187,0 16702,7514 16702,16695l0 56426c0,9180 -7515,16695 -16702,16695l0 0c-9188,0 -16703,-7515 -16703,-16695l0 -56426c0,-9181 7515,-16695 16703,-16695zm-42067 0l0 0c9188,0 16702,7514 16702,16695l0 56426c0,9180 -7514,16695 -16702,16695l0 0c-9188,0 -16702,-7515 -16702,-16695l0 -56426c0,-9181 7514,-16695 16702,-16695zm-42067 0l0 0c9188,0 16702,7514 16702,16695l0 56426c0,9180 -7514,16695 -16702,16695l0 0c-9188,0 -16702,-7515 -16702,-16695l0 -56426c0,-9181 7514,-16695 16702,-16695zm-42067 0l0 0c9188,0 16702,7514 16702,16695l0 56426c0,9180 -7514,16695 -16702,16695l0 0c-9188,0 -16702,-7515 -16702,-16695l0 -56426c0,-9181 7514,-16695 16702,-16695zm-42067 0l0 0c9188,0 16702,7514 16702,16695l0 56426c0,9180 -7514,16695 -16702,16695l0 0c-9188,0 -16702,-7515 -16702,-16695l0 -56426c0,-9181 7514,-16695 16702,-16695zm-42067 0l0 0c9188,0 16702,7514 16702,16695l0 56426c0,9180 -7514,16695 -16702,16695l0 0c-9187,0 -16702,-7515 -16702,-16695l0 -56426c0,-9181 7515,-16695 16702,-16695zm-42067 0l0 0c9188,0 16703,7514 16703,16695l0 56426c0,9180 -7515,16695 -16703,16695l0 0c-9187,0 -16702,-7515 -16702,-16695l0 -56426c0,-9181 7515,-16695 16702,-16695z"/>
  <rect class="fil0 str0" x="4305489" y="4470666" width="633520" height="185205"/>
  <path class="fil1" d="M4388109 4583912c10501,0 16688,-5158 16688,-13813 0,-6554 -4286,-11262 -10978,-12112l0 -277c4694,-850 8462,-5641 8462,-10757 0,-7383 -5711,-12298 -14138,-12298l-19281 0 0 49257 19247 0zm-13094 -43830l11732 0c5966,0 9312,2703 9312,7584 0,5337 -3955,8240 -11220,8240l-9824 0 0 -15824zm0 38403l0 -17290 11559 0c7902,0 11932,2903 11932,8600 0,5682 -3892,8690 -11317,8690l-12174 0z"/>
  <path id="1" class="fil1" d="M4423705 4579114c-4625,0 -7584,-2212 -7584,-5628 0,-3539 2855,-5558 8365,-5897l9602 -615 0 2973c0,5275 -4390,9167 -10383,9167zm-1259 5150c5137,0 9741,-2620 11815,-6726l138 0 0 6387 5628 0 0 -25212c0,-7259 -5593,-11898 -14269,-11898 -7701,0 -13737,4743 -13903,10965l5690 0c719,-3485 3878,-5676 8144,-5676 5406,0 8399,2530 8399,7120l0 3077 -10280 615c-8925,539 -13771,4231 -13771,10536 0,6512 4957,10812 12409,10812z"/>
  <polygon id="2" class="fil1" points="4472975,4583925 4478851,4583925 4478851,4547154 4472975,4547154 4472975,4562398 4454240,4562398 4454240,4547154 4448371,4547154 4448371,4583925 4454240,4583925 4454240,4567285 4472975,4567285 "/>
  <polygon id="3" class="fil1" points="4512159,4583925 4518036,4583925 4518036,4547154 4512159,4547154 4512159,4562398 4493424,4562398 4493424,4547154 4487555,4547154 4487555,4583925 4493424,4583925 4493424,4567285 4512159,4567285 "/>
  <path id="4" class="fil1" d="M4538796 4579114c-4625,0 -7584,-2212 -7584,-5628 0,-3539 2855,-5558 8365,-5897l9603 -615 0 2973c0,5275 -4390,9167 -10384,9167zm-1258 5150c5136,0 9740,-2620 11814,-6726l139 0 0 6387 5627 0 0 -25212c0,-7259 -5593,-11898 -14269,-11898 -7701,0 -13736,4743 -13902,10965l5689 0c719,-3485 3879,-5676 8144,-5676 5406,0 8400,2530 8400,7120l0 3077 -10280 615c-8925,539 -13772,4231 -13772,10536 0,6512 4957,10812 12410,10812z"/>
  <path id="5" class="fil1" d="M4576618 4565820c-4839,0 -7985,-2759 -7985,-6651 0,-4466 3111,-7120 7985,-7120l7114 0 0 13771 -7114 0zm7114 18105l5876 0 0 -36771 -12990 0c-8462,0 -13854,4577 -13854,12153 0,5047 3146,8856 8330,10308l-10280 14310 6831 0 9416 -13211 6671 0 0 13211z"/>
  <polygon id="6" class="fil1" points="4627126,4564610 4644423,4547154 4637053,4547154 4621146,4563511 4620877,4563511 4620877,4547154 4615007,4547154 4615007,4583925 4620877,4583925 4620877,4566172 4621146,4566172 4637226,4583925 4644907,4583925 "/>
  <path id="7" class="fil1" d="M4665335 4584264c10363,0 16952,-7342 16952,-18721 0,-11420 -6589,-18728 -16952,-18728 -10356,0 -16951,7308 -16951,18728 0,11379 6595,18721 16951,18721zm0 -5288c-6837,0 -10936,-5013 -10936,-13433 0,-8427 4065,-13439 10936,-13439 6879,0 10944,4977 10944,13439 0,8420 -4065,13433 -10944,13433z"/>
  <polygon id="8" class="fil1" points="4695055,4583925 4695055,4557766 4695325,4557766 4707375,4582875 4711965,4582875 4724008,4557759 4724277,4557759 4724277,4583925 4730154,4583925 4730154,4547154 4723323,4547154 4709946,4576024 4709670,4576024 4696314,4547154 4689186,4547154 4689186,4583925 "/>
  <polygon id="9" class="fil1" points="4763462,4583925 4769338,4583925 4769338,4547154 4763462,4547154 4763462,4562398 4744727,4562398 4744727,4547154 4738857,4547154 4738857,4583925 4744727,4583925 4744727,4567285 4763462,4567285 "/>
  <path id="10" class="fil1" d="M4790098 4579114c-4625,0 -7584,-2212 -7584,-5628 0,-3539 2856,-5558 8365,-5897l9603 -615 0 2973c0,5275 -4390,9167 -10384,9167zm-1258 5150c5137,0 9741,-2620 11815,-6726l138 0 0 6387 5627 0 0 -25212c0,-7259 -5592,-11898 -14269,-11898 -7701,0 -13736,4743 -13902,10965l5690 0c719,-3485 3878,-5676 8143,-5676 5406,0 8400,2530 8400,7120l0 3077 -10280 615c-8925,539 -13771,4231 -13771,10536 0,6512 4957,10812 12409,10812z"/>
  <polygon id="11" class="fil1" points="4841526,4547154 4811771,4547154 4811771,4552049 4823710,4552049 4823710,4583925 4829587,4583925 4829587,4552049 4841526,4552049 "/>
  <path id="12" class="fil1" d="M4859313 4579114c-4625,0 -7583,-2212 -7583,-5628 0,-3539 2855,-5558 8365,-5897l9602 -615 0 2973c0,5275 -4390,9167 -10384,9167zm-1258 5150c5137,0 9741,-2620 11815,-6726l138 0 0 6387 5627 0 0 -25212c0,-7259 -5592,-11898 -14268,-11898 -7702,0 -13737,4743 -13903,10965l5690 0c719,-3485 3878,-5676 8143,-5676 5407,0 8400,2530 8400,7120l0 3077 -10280 615c-8925,539 -13771,4231 -13771,10536 0,6512 4957,10812 12409,10812z"/>
  <rect class="fil0 str0" x="1567551" y="4654150" width="379487" height="185205"/>
  <path class="fil1" d="M1641550 4749283l1611 -25635 18873 0 0 38237 -23934 0 0 -269c2427,-2931 3111,-6699 3450,-12333zm-9029 18126l36094 0 0 9727 5711 0 0 -15251 -6139 0 0 -43760 -30536 0 -1880 31012c-374,6471 -1708,10840 -5303,12748l-3657 0 0 15251 5710 0 0 -9727z"/>
  <path id="1" class="fil1" d="M1695404 4735518c5793,0 9755,4148 9879,10363l-20200 0c407,-6180 4569,-10363 10321,-10363zm9755 21369c-1065,3450 -4639,5641 -9243,5641 -6547,0 -10833,-4542 -10833,-11559l0 -338 26353 0 0 -2330c0,-11082 -6118,-18002 -15928,-18002 -10018,0 -16578,7473 -16578,18831 0,11414 6526,18618 16847,18618 7840,0 14193,-4542 15216,-10861l-5834 0z"/>
  <polygon id="2" class="fil1" points="1745117,4730638 1715362,4730638 1715362,4735532 1727302,4735532 1727302,4767409 1733178,4767409 1733178,4735532 1745117,4735532 "/>
  <path id="3" class="fil1" d="M1781190 4741892c-1065,-6159 -6561,-11593 -15333,-11593 -10066,0 -16758,7432 -16758,18728 0,11552 6727,18721 16827,18721 8164,0 14096,-4674 15333,-11504l-5911 0c-1196,4038 -4507,6215 -9388,6215 -6422,0 -10847,-5081 -10847,-13432 0,-8109 4370,-13439 10778,-13439 5192,0 8400,2730 9388,6304l5911 0z"/>
  <polygon id="4" class="fil1" points="1799759,4748094 1817056,4730638 1809686,4730638 1793779,4746994 1793509,4746994 1793509,4730638 1787640,4730638 1787640,4767409 1793509,4767409 1793509,4749656 1793779,4749656 1809859,4767409 1817540,4767409 "/>
  <path id="5" class="fil1" d="M1834823 4762597c-4625,0 -7584,-2212 -7584,-5627 0,-3539 2855,-5558 8365,-5897l9602 -615 0 2973c0,5274 -4389,9166 -10383,9166zm-1258 5151c5136,0 9740,-2620 11814,-6727l139 0 0 6388 5627 0 0 -25212c0,-7259 -5593,-11898 -14269,-11898 -7701,0 -13737,4742 -13902,10964l5689 0c719,-3484 3878,-5675 8144,-5675 5406,0 8399,2530 8399,7120l0 3077 -10279 615c-8925,539 -13772,4231 -13772,10536 0,6512 4957,10812 12410,10812z"/>
  <path id="6" class="fil1" d="M1872645 4749303c-4839,0 -7985,-2758 -7985,-6650 0,-4466 3111,-7121 7985,-7121l7114 0 0 13771 -7114 0zm7114 18106l5876 0 0 -36771 -12990 0c-8462,0 -13854,4576 -13854,12153 0,5047 3145,8856 8330,10308l-10280 14310 6831 0 9415 -13211 6672 0 0 13211z"/>
  <rect class="fil0 str0" x="5841031" y="2696728" width="640295" height="185205"/>
  <polygon class="fil1" points="5917319,2784284 5939711,2760703 5931982,2760703 5910827,2783434 5910558,2783434 5910558,2760703 5904405,2760703 5904405,2809987 5910558,2809987 5910558,2786068 5910827,2786068 5933558,2809987 5941992,2809987 "/>
  <path id="1" class="fil1" d="M5950440 2823337c6526,0 9464,-2551 12596,-11068l14414 -39053 -6250 0 -10307 30757 -138 0 -10315 -30757 -6312 0 13619 36827 -712 2191c-1500,4438 -3353,6070 -6768,6070 -781,0 -1735,-55 -2426,-194l0 4950c726,173 1852,277 2599,277z"/>
  <polygon id="2" class="fil1" points="5995901,2795898 6004819,2809987 6011435,2809987 5999157,2791370 6011608,2773216 6004992,2773216 5996116,2787104 5995970,2787104 5987004,2773216 5980374,2773216 5992770,2791605 5980174,2809987 5986790,2809987 5995777,2795898 "/>
  <polygon id="3" class="fil1" points="6042075,2809987 6047951,2809987 6047951,2773216 6042075,2773216 6042075,2788459 6023340,2788459 6023340,2773216 6017471,2773216 6017471,2809987 6023340,2809987 6023340,2793347 6042075,2793347 "/>
  <path id="4" class="fil1" d="M6069811 2791882c-4840,0 -7985,-2759 -7985,-6651 0,-4466 3111,-7121 7985,-7121l7113 0 0 13772 -7113 0zm7113 18105l5876 0 0 -36771 -12989 0c-8462,0 -13855,4576 -13855,12153 0,5047 3146,8856 8331,10308l-10280 14310 6830 0 9416 -13211 6671 0 0 13211z"/>
  <polygon id="5" class="fil1" points="6113281,2793347 6113281,2787823 6090910,2787823 6090910,2793347 "/>
  <polygon id="6" class="fil1" points="6128359,2809987 6128359,2766296 6151393,2766296 6151393,2760703 6122206,2760703 6122206,2809987 "/>
  <path id="7" class="fil1" d="M6173205 2810326c10363,0 16951,-7342 16951,-18721 0,-11421 -6588,-18728 -16951,-18728 -10356,0 -16952,7307 -16952,18728 0,11379 6596,18721 16952,18721zm0 -5289c-6838,0 -10937,-5012 -10937,-13432 0,-8427 4065,-13439 10937,-13439 6878,0 10943,4977 10943,13439 0,8420 -4065,13432 -10943,13432z"/>
  <path id="8" class="fil1" d="M6227397 2784471c-1064,-6160 -6560,-11594 -15333,-11594 -10066,0 -16758,7432 -16758,18728 0,11552 6727,18721 16827,18721 8164,0 14096,-4673 15333,-11504l-5910 0c-1196,4038 -4508,6215 -9389,6215 -6422,0 -10846,-5081 -10846,-13432 0,-8109 4369,-13439 10777,-13439 5192,0 8400,2730 9388,6305l5911 0z"/>
  <polygon id="9" class="fil1" points="6260608,2773216 6230854,2773216 6230854,2778110 6242793,2778110 6242793,2809987 6248669,2809987 6248669,2778110 6260608,2778110 "/>
  <polygon id="10" class="fil1" points="6272209,2809987 6291165,2782397 6291434,2782397 6291434,2809987 6297311,2809987 6297311,2773216 6291434,2773216 6272478,2800806 6272209,2800806 6272209,2773216 6266339,2773216 6266339,2809987 "/>
  <polygon id="11" class="fil1" points="6330639,2809987 6336515,2809987 6336515,2773216 6330639,2773216 6330639,2788459 6311904,2788459 6311904,2773216 6306035,2773216 6306035,2809987 6311904,2809987 6311904,2793347 6330639,2793347 "/>
  <path id="12" class="fil1" d="M6357276 2805176c-4625,0 -7584,-2213 -7584,-5628 0,-3539 2855,-5558 8365,-5897l9603 -615 0 2973c0,5275 -4390,9167 -10384,9167zm-1258 5150c5136,0 9740,-2620 11814,-6727l139 0 0 6388 5627 0 0 -25212c0,-7259 -5593,-11898 -14269,-11898 -7701,0 -13736,4743 -13902,10964l5689 0c719,-3484 3879,-5675 8144,-5675 5406,0 8400,2530 8400,7120l0 3077 -10280 615c-8925,539 -13772,4231 -13772,10536 0,6512 4957,10812 12410,10812z"/>
  <path id="13" class="fil1" d="M6395098 2791882c-4839,0 -7985,-2759 -7985,-6651 0,-4466 3111,-7121 7985,-7121l7114 0 0 13772 -7114 0zm7114 18105l5876 0 0 -36771 -12990 0c-8462,0 -13854,4576 -13854,12153 0,5047 3146,8856 8330,10308l-10280 14310 6831 0 9416 -13211 6671 0 0 13211z"/>
  <rect class="fil0 str0" x="1178876" y="1908981" width="707201" height="185205"/>
  <path class="fil1" d="M1262526 2023077c10646,0 17885,-5185 20304,-14553l-6277 0c-1950,5641 -7003,8891 -13992,8891 -9734,0 -15908,-7722 -15908,-19827 0,-12016 6250,-19807 15873,-19807 6754,0 12257,3927 14027,10017l6277 0c-1804,-9471 -9830,-15679 -20304,-15679 -13481,0 -22164,9969 -22164,25469 0,15623 8580,25489 22164,25489z"/>
  <polygon id="1" class="fil1" points="1314244,2022240 1320113,2022240 1320113,1985469 1289985,1985469 1289985,2022240 1295855,2022240 1295855,1990363 1314244,1990363 "/>
  <path id="2" class="fil1" d="M1340887 2017429c-4625,0 -7583,-2213 -7583,-5628 0,-3539 2855,-5558 8365,-5897l9602 -615 0 2973c0,5274 -4390,9167 -10384,9167zm-1258 5150c5137,0 9741,-2620 11815,-6727l138 0 0 6388 5627 0 0 -25212c0,-7259 -5592,-11898 -14268,-11898 -7702,0 -13737,4742 -13903,10964l5690 0c719,-3484 3878,-5675 8143,-5675 5407,0 8400,2530 8400,7120l0 3077 -10280 615c-8925,539 -13771,4231 -13771,10536 0,6512 4957,10812 12409,10812z"/>
  <path id="3" class="fil1" d="M1375225 2006070l1162 -15707 12865 0 0 31877 5870 0 0 -36771 -24058 0 -1431 20484c-477,6788 -1881,11054 -5538,11054 -850,0 -1535,-173 -1839,-263l0 5392c408,159 1092,374 2157,374 7639,0 10066,-6354 10812,-16440z"/>
  <path id="4" class="fil1" d="M1416622 2002178c4825,0 7957,2973 7957,7584 0,4576 -3111,7584 -7957,7584l-6934 0 0 -15168 6934 0zm-12804 20062l12804 0c8434,0 13833,-4825 13833,-12478 0,-7653 -5399,-12479 -13833,-12479l-6934 0 0 -11814 -5870 0 0 36771z"/>
  <polygon id="5" class="fil1" points="1461800,2022240 1467676,2022240 1467676,1985469 1461800,1985469 1461800,2000712 1443065,2000712 1443065,1985469 1437195,1985469 1437195,2022240 1443065,2022240 1443065,2005600 1461800,2005600 "/>
  <path id="6" class="fil1" d="M1488436 2017429c-4625,0 -7584,-2213 -7584,-5628 0,-3539 2855,-5558 8365,-5897l9603 -615 0 2973c0,5274 -4390,9167 -10384,9167zm-1258 5150c5136,0 9741,-2620 11815,-6727l138 0 0 6388 5627 0 0 -25212c0,-7259 -5593,-11898 -14269,-11898 -7701,0 -13736,4742 -13902,10964l5689 0c719,-3484 3879,-5675 8144,-5675 5406,0 8400,2530 8400,7120l0 3077 -10280 615c-8925,539 -13771,4231 -13771,10536 0,6512 4956,10812 12409,10812z"/>
  <path id="7" class="fil1" d="M1526258 2004134c-4839,0 -7984,-2758 -7984,-6650 0,-4466 3111,-7121 7984,-7121l7114 0 0 13771 -7114 0zm7114 18106l5876 0 0 -36771 -12990 0c-8461,0 -13854,4576 -13854,12153 0,5047 3146,8856 8331,10308l-10280 14310 6830 0 9416 -13211 6671 0 0 13211z"/>
  <polygon id="8" class="fil1" points="1576766,2002925 1594063,1985469 1586694,1985469 1570786,2001825 1570517,2001825 1570517,1985469 1564647,1985469 1564647,2022240 1570517,2022240 1570517,2004487 1570786,2004487 1586867,2022240 1594547,2022240 "/>
  <path id="9" class="fil1" d="M1614976 2022579c10363,0 16951,-7342 16951,-18721 0,-11421 -6588,-18728 -16951,-18728 -10356,0 -16952,7307 -16952,18728 0,11379 6596,18721 16952,18721zm0 -5289c-6838,0 -10937,-5012 -10937,-13432 0,-8427 4065,-13439 10937,-13439 6878,0 10943,4977 10943,13439 0,8420 -4065,13432 -10943,13432z"/>
  <polygon id="10" class="fil1" points="1644696,2022240 1644696,1996081 1644965,1996081 1657015,2021189 1661605,2021189 1673648,1996074 1673918,1996074 1673918,2022240 1679794,2022240 1679794,1985469 1672964,1985469 1659587,2014338 1659310,2014338 1645954,1985469 1638826,1985469 1638826,2022240 "/>
  <polygon id="11" class="fil1" points="1713102,2022240 1718978,2022240 1718978,1985469 1713102,1985469 1713102,2000712 1694367,2000712 1694367,1985469 1688498,1985469 1688498,2022240 1694367,2022240 1694367,2005600 1713102,2005600 "/>
  <path id="12" class="fil1" d="M1739738 2017429c-4624,0 -7583,-2213 -7583,-5628 0,-3539 2855,-5558 8365,-5897l9602 -615 0 2973c0,5274 -4390,9167 -10384,9167zm-1258 5150c5137,0 9741,-2620 11815,-6727l138 0 0 6388 5628 0 0 -25212c0,-7259 -5593,-11898 -14269,-11898 -7702,0 -13737,4742 -13903,10964l5690 0c719,-3484 3878,-5675 8144,-5675 5406,0 8399,2530 8399,7120l0 3077 -10280 615c-8925,539 -13771,4231 -13771,10536 0,6512 4957,10812 12409,10812z"/>
  <polygon id="13" class="fil1" points="1791166,1985469 1761411,1985469 1761411,1990363 1773351,1990363 1773351,2022240 1779227,2022240 1779227,1990363 1791166,1990363 "/>
  <path id="14" class="fil1" d="M1808954 2017429c-4625,0 -7584,-2213 -7584,-5628 0,-3539 2855,-5558 8365,-5897l9602 -615 0 2973c0,5274 -4390,9167 -10383,9167zm-1259 5150c5137,0 9741,-2620 11815,-6727l138 0 0 6388 5628 0 0 -25212c0,-7259 -5593,-11898 -14269,-11898 -7702,0 -13737,4742 -13903,10964l5690 0c719,-3484 3878,-5675 8144,-5675 5406,0 8399,2530 8399,7120l0 3077 -10280 615c-8925,539 -13771,4231 -13771,10536 0,6512 4957,10812 12409,10812z"/>
  <path class="fil1" d="M548930 2097249l0 -6174c0,-7031 3588,-11400 9388,-11400 5171,0 8856,4673 8856,11200 0,6615 -3484,10812 -8545,11358l0 5911c8172,-443 13854,-7038 13854,-17339 0,-9657 -5890,-17352 -14365,-17352 -6941,0 -11545,4757 -11988,12188l-124 0c-1086,-6153 -5552,-10086 -11760,-10086 -7445,0 -12720,6630 -12720,15423 0,9250 5344,15472 13757,16149l0 -5903c-5185,-540 -8448,-4300 -8448,-9962 0,-6250 3326,-9554 8241,-9554 5005,0 8676,3947 8676,9623l0 5904 5178 14z"/>
  <path id="1" class="fil1" d="M548930 2055873l0 -6174c0,-7030 3588,-11399 9388,-11399 5171,0 8856,4673 8856,11199 0,6616 -3484,10812 -8545,11358l0 5911c8172,-442 13854,-7038 13854,-17338 0,-9658 -5890,-17352 -14365,-17352 -6941,0 -11545,4756 -11988,12188l-124 0c-1086,-6153 -5552,-10087 -11760,-10087 -7445,0 -12720,6630 -12720,15424 0,9250 5344,15471 13757,16149l0 -5904c-5185,-539 -8448,-4300 -8448,-9962 0,-6249 3326,-9554 8241,-9554 5005,0 8676,3947 8676,9623l0 5904 5178 14z"/>
  <polygon id="2" class="fil1" points="571647,2011953 571647,2006015 522363,2006015 522363,2012015 531785,2025123 538277,2025123 528889,2012085 528889,2011953 "/>
  <path id="3" class="fil1" d="M572477 1976316c0,-11476 -9942,-18072 -25545,-18072 -15479,0 -25406,6630 -25406,18072 0,11441 9997,18140 25441,18140 15603,0 25510,-6630 25510,-18140zm-5365 0c0,7722 -7860,11987 -20180,11987 -12036,0 -20027,-4369 -20027,-11987 0,-7619 7922,-11919 20062,-11919 12319,0 20145,4231 20145,11919z"/>
  <line class="fil0 str1" x1="608073" y1="3434928" x2="608073" y2= "5171687" />
  <line class="fil0 str0" x1="2030080" y1="739251" x2="935890" y2= "739251" />
  <line class="fil0 str0" x1="2030080" y1="790201" x2="935890" y2= "790201" />
  <line class="fil0 str0" x1="2030080" y1="885949" x2="935890" y2= "885949" />
  <line class="fil0 str0" x1="400241" y1="643503" x2="935890" y2= "643503" />
  <line class="fil0 str0" x1="400241" y1="885949" x2="935890" y2= "885949" />
  <line class="fil0 str0" x1="935877" y1="885949" x2="935877" y2= "643503" />
  <line class="fil0 str0" x1="2030066" y1="885949" x2="2030066" y2= "643503" />
  <line class="fil0 str0" x1="2030080" y1="643503" x2="2560392" y2= "643503" />
  <line class="fil0 str0" x1="2030080" y1="885949" x2="2560392" y2= "885949" />
  <line class="fil0 str0" x1="3498813" y1="1109834" x2="2723123" y2= "1109834" />
  <line class="fil0 str0" x1="3498813" y1="1352280" x2="2723123" y2= "1352280" />
  <line class="fil0 str0" x1="3498813" y1="1352280" x2="3498813" y2= "1109834" />
  <line class="fil0 str0" x1="4471904" y1="1352280" x2="4471904" y2= "1109834" />
  <line class="fil0 str0" x1="3498813" y1="1109834" x2="4471904" y2= "1109834" />
  <line class="fil0 str0" x1="3498813" y1="1352280" x2="4471904" y2= "1352280" />
  <line class="fil0 str0" x1="6245254" y1="1109834" x2="4471904" y2= "1109834" />
  <line class="fil0 str0" x1="6245254" y1="1352280" x2="4471904" y2= "1352280" />
  <line class="fil0 str0" x1="6245254" y1="1352280" x2="6245254" y2= "1109834" />
  <line class="fil0 str0" x1="6245254" y1="1109834" x2="6706939" y2= "1109834" />
  <line class="fil0 str0" x1="6245254" y1="1352280" x2="6706939" y2= "1352280" />
  <line class="fil0 str0" x1="6245254" y1="1256546" x2="6706939" y2= "1256546" />
  <line class="fil0 str0" x1="6245254" y1="1205596" x2="6706939" y2= "1205596" />
 </g>
</svg>
