<?xml version="1.0" encoding="UTF-8"?>
<!DOCTYPE svg PUBLIC "-//W3C//DTD SVG 1.1//EN" "http://www.w3.org/Graphics/SVG/1.1/DTD/svg11.dtd">
<!-- Creator: CorelDRAW X7 -->
<svg xmlns="http://www.w3.org/2000/svg" xml:space="preserve" width="1146px" height="445px" version="1.1" style="shape-rendering:geometricPrecision; text-rendering:geometricPrecision; image-rendering:optimizeQuality; fill-rule:evenodd; clip-rule:evenodd"
viewBox="0 0 6690173 2599691"
 xmlns:xlink="http://www.w3.org/1999/xlink">
 <defs>
  <style type="text/css">
   <![CDATA[
    .str6 {stroke:#2B2A29;stroke-width:2061.65}
    .str3 {stroke:#2B2A29;stroke-width:13790.3}
    .str5 {stroke:#2B2A29;stroke-width:6895.17}
    .str2 {stroke:#D9DADA;stroke-width:3447.58}
    .str1 {stroke:#2B2A29;stroke-width:3447.58}
    .str0 {stroke:#2B2A29;stroke-width:5254.12}
    .str4 {stroke:#2B2A29;stroke-width:5254.12}
    .fil0 {fill:none}
    .fil1 {fill:#FEFEFE}
    .fil2 {fill:#2B2A29}
    .fil3 {fill:#E6E8ED}
    .fil4 {fill:#2B2A29;fill-rule:nonzero}
   ]]>
  </style>
 </defs>
 <g id="Слой_x0020_1">
  <metadata id="CorelCorpID_0Corel-Layer"/>
  <rect class="fil0" width="6689428" height="2579095"/>
  <line class="fil0 str0" x1="403705" y1="713939" x2="403705" y2= "2579095" />
  <line class="fil0 str0" x1="230181" y1="713077" x2="230181" y2= "2579095" />
  <path class="fil0 str1" d="M403705 2579068l-28 27m28 -37406l-38427 37406m38427 -74785l-76833 74785m76833 -112163l-115232 112163m115232 -149542l-153631 149542m153631 -186921l-173524 168904m173524 -206289l-173524 168911m173524 -206290l-173524 168911m173524 -206290l-173524 168911m173524 -206289l-173524 168911m164919 -197912l-164919 160533m126513 -160533l-126513 123147m88114 -123147l-88114 85769m49714 -85769l-49714 48390m11315 -48390l-11315 11011m173524 -467947l-173524 168911m173524 -206290l-173524 168911m173524 -206290l-173524 168911m173524 -206289l-173524 168911m173524 -206290l-173524 168911m173524 -206290l-173524 168904m173524 -206282l-173524 168904m173524 -206283l-173524 168904m173524 -206290l-173524 168911m173524 -206289l-173524 168911m173524 -206290l-173524 168911m173524 -206290l-173524 168911m157058 -190265l-157058 152887m118659 -152887l-118659 115501m80260 -115501l-80260 78122m41861 -78122l-41861 40744m3455 -40744l-3455 3365m173524 -393183l-173524 168904m173524 -206283l-173524 168904m173524 242269l-16466 16024m16466 -53403l-54865 53403m54865 -90782l-93264 90782m93264 -128160l-131663 128160m131663 -165546l-170069 165546m170069 -202925l-173524 168911m173524 -206289l-173524 168910m173524 -206289l-173524 168911m173524 -206290l-173524 168911m173524 -206289l-173524 168903m173524 -281046l-173524 168910m173524 -206289l-173524 168911m173524 -206290l-173524 168911m173524 -206290l-173524 168911m169573 -202442l-169573 165057m131167 -165057l-131167 127678m92768 -127678l-92768 90299m54369 -90299l-54369 52921m15963 -52921l-15963 15542m173524 1101999l-173524 168904m173524 -206283l-173524 168904m173524 242269l-8605 8378m8605 -45757l-47011 45757m47011 -83135l-85410 83135m85410 -120514l-123810 120514m123810 -157900l-162209 157900m162209 -195278l-173524 168910m173524 -206289l-173524 168911m173524 -206290l-173524 168911m173524 -206289l-173524 168910m173524 -206289l-173524 168904"/>
  <rect class="fil0 str0" x="1527386" y="713939" width="557055" height="1865156"/>
  <rect class="fil0 str0" x="970331" y="713939" width="557055" height="1865156"/>
  <rect class="fil0 str0" x="413276" y="713939" width="557055" height="1865156"/>
  <path class="fil0 str0" d="M945100 1751579l25229 -6206 0 391563 -25229 -6895c-3441,-945 -6606,-2972 -6606,-6606l0 -365250c0,-3634 3075,-5737 6606,-6606z"/>
  <path class="fil0 str0" d="M995559 1751579l-25230 -6206 0 391563 25230 -6895c3440,-945 6605,-2972 6605,-6606l0 -365250c0,-3634 -3075,-5737 -6605,-6606z"/>
  <g id="_1070905184">
   <polygon class="fil0 str2" points="3744151,713939 3514266,713939 3514266,785497 3744151,785497 "/>
   <polygon class="fil0 str2" points="3974036,713939 3744151,713939 3744151,785497 3974036,785497 "/>
   <polygon class="fil0 str2" points="4203921,713939 3974036,713939 3974036,785497 4203921,785497 "/>
   <path class="fil0 str2" d="M4420629 713939l-216708 0 0 71558 229884 0 0 -53506 -34 0c-7233,0 -13142,-4241 -13142,-9426l0 -8626z"/>
   <polygon class="fil0 str2" points="4433805,731991 4433805,785497 4663690,785497 4663690,731991 "/>
   <path class="fil0 str2" d="M4893575 713939l-197140 0 0 8626c0,5185 -5909,9426 -13142,9426l-19603 0 0 53506 229885 0 0 -71558z"/>
   <polygon class="fil0 str2" points="5123460,713939 4893575,713939 4893575,785497 5123460,785497 "/>
   <polygon class="fil0 str2" points="5353345,713939 5123460,713939 5123460,785497 5353345,785497 "/>
   <path class="fil0 str2" d="M5503556 713939l-150211 0 0 71558 229885 0 0 -53506 -66532 0c-7233,0 -13142,-4241 -13142,-9426l0 -8626z"/>
   <path class="fil0 str2" d="M5813114 713939l-33752 0 0 8626c0,5185 -5909,9426 -13142,9426l-182990 0 0 53506 229884 0 0 -71558z"/>
   <polygon class="fil0 str2" points="3629208,785497 3514266,785497 3514266,857055 3629208,857055 "/>
   <polygon class="fil0 str2" points="3859093,785497 3629208,785497 3629208,857055 3859093,857055 "/>
   <polygon class="fil0 str2" points="4088978,785497 3859093,785497 3859093,857055 4088978,857055 "/>
   <polygon class="fil0 str2" points="4318863,785497 4088978,785497 4088978,857055 4318863,857055 "/>
   <polygon class="fil0 str2" points="4548748,785497 4318863,785497 4318863,857055 4548748,857055 "/>
   <polygon class="fil0 str2" points="4778633,785497 4548748,785497 4548748,857055 4778633,857055 "/>
   <polygon class="fil0 str2" points="5008517,785497 4778633,785497 4778633,857055 5008517,857055 "/>
   <polygon class="fil0 str2" points="5238402,785497 5008517,785497 5008517,857055 5238402,857055 "/>
   <polygon class="fil0 str2" points="5468287,785497 5238402,785497 5238402,857055 5468287,857055 "/>
   <polygon class="fil0 str2" points="5698172,785497 5468287,785497 5468287,857055 5698172,857055 "/>
   <polygon class="fil0 str2" points="5813114,785497 5698172,785497 5698172,857055 5813114,857055 "/>
   <polygon class="fil0 str2" points="3744151,857055 3514266,857055 3514266,928613 3744151,928613 "/>
   <polygon class="fil0 str2" points="3974036,857055 3744151,857055 3744151,928613 3974036,928613 "/>
   <polygon class="fil0 str2" points="4203921,857055 3974036,857055 3974036,928613 4203921,928613 "/>
   <polygon class="fil0 str2" points="4433805,857055 4203921,857055 4203921,928613 4433805,928613 "/>
   <polygon class="fil0 str2" points="4663690,857055 4433805,857055 4433805,928613 4663690,928613 "/>
   <polygon class="fil0 str2" points="4893575,857055 4663690,857055 4663690,928613 4893575,928613 "/>
   <polygon class="fil0 str2" points="5123460,857055 4893575,857055 4893575,928613 5123460,928613 "/>
   <polygon class="fil0 str2" points="5353345,857055 5123460,857055 5123460,928613 5353345,928613 "/>
   <polygon class="fil0 str2" points="5583230,857055 5353345,857055 5353345,928613 5583230,928613 "/>
   <polygon class="fil0 str2" points="5813114,857055 5583230,857055 5583230,928613 5813114,928613 "/>
   <polygon class="fil0 str2" points="3629208,928613 3514266,928613 3514266,1000171 3629208,1000171 "/>
   <path class="fil0 str2" d="M3859093 928613l-229885 0 0 71558 229885 0 0 -7122 -200732 0c-448,0 -827,-373 -827,-828l0 -22478c0,-455 379,-827 827,-827l200732 0 0 -40303z"/>
   <path class="fil0 str2" d="M4088978 928613l-229885 0 0 40303 62622 0c448,0 828,372 828,827l0 22478c0,455 -380,828 -828,828l-62622 0 0 7122 229885 0 0 -71558z"/>
   <polygon class="fil0 str2" points="4318863,928613 4088978,928613 4088978,1000171 4318863,1000171 "/>
   <polygon class="fil0 str2" points="4548748,928613 4318863,928613 4318863,1000171 4548748,1000171 "/>
   <polygon class="fil0 str2" points="4778633,928613 4548748,928613 4548748,1000171 4778633,1000171 "/>
   <polygon class="fil0 str2" points="5008517,928613 4778633,928613 4778633,1000171 5008517,1000171 "/>
   <polygon class="fil0 str2" points="5238402,928613 5008517,928613 5008517,1000171 5238402,1000171 "/>
   <polygon class="fil0 str2" points="5468287,928613 5238402,928613 5238402,1000171 5468287,1000171 "/>
   <polygon class="fil0 str2" points="5698172,928613 5468287,928613 5468287,1000171 5698172,1000171 "/>
   <polygon class="fil0 str2" points="5813114,928613 5698172,928613 5698172,1000171 5813114,1000171 "/>
   <polygon class="fil0 str2" points="3744151,1000171 3514266,1000171 3514266,1071729 3744151,1071729 "/>
   <polygon class="fil0 str2" points="3974036,1000171 3744151,1000171 3744151,1071729 3974036,1071729 "/>
   <polygon class="fil0 str2" points="4203921,1000171 3974036,1000171 3974036,1071729 4203921,1071729 "/>
   <polygon class="fil0 str2" points="4433805,1000171 4203921,1000171 4203921,1071729 4433805,1071729 "/>
   <polygon class="fil0 str2" points="4663690,1000171 4433805,1000171 4433805,1071729 4663690,1071729 "/>
   <polygon class="fil0 str2" points="4893575,1000171 4663690,1000171 4663690,1071729 4893575,1071729 "/>
   <polygon class="fil0 str2" points="5123460,1000171 4893575,1000171 4893575,1071729 5123460,1071729 "/>
   <polygon class="fil0 str2" points="5353345,1000171 5123460,1000171 5123460,1071729 5353345,1071729 "/>
   <polygon class="fil0 str2" points="5583230,1000171 5353345,1000171 5353345,1071729 5583230,1071729 "/>
   <polygon class="fil0 str2" points="5813114,1000171 5583230,1000171 5583230,1071729 5813114,1071729 "/>
   <polygon class="fil0 str2" points="3629208,1071729 3514266,1071729 3514266,1143287 3629208,1143287 "/>
   <polygon class="fil0 str2" points="3859093,1071729 3629208,1071729 3629208,1143287 3859093,1143287 "/>
   <polygon class="fil0 str2" points="4088978,1071729 3859093,1071729 3859093,1143287 4088978,1143287 "/>
   <polygon class="fil0 str2" points="4318863,1071729 4088978,1071729 4088978,1143287 4318863,1143287 "/>
   <polygon class="fil0 str2" points="4548748,1071729 4318863,1071729 4318863,1143287 4548748,1143287 "/>
   <polygon class="fil0 str2" points="4778633,1071729 4548748,1071729 4548748,1143287 4778633,1143287 "/>
   <polygon class="fil0 str2" points="5008517,1071729 4778633,1071729 4778633,1143287 5008517,1143287 "/>
   <polygon class="fil0 str2" points="5238402,1071729 5008517,1071729 5008517,1143287 5238402,1143287 "/>
   <polygon class="fil0 str2" points="5468287,1071729 5238402,1071729 5238402,1143287 5468287,1143287 "/>
   <polygon class="fil0 str2" points="5698172,1071729 5468287,1071729 5468287,1143287 5698172,1143287 "/>
   <polygon class="fil0 str2" points="5813114,1071729 5698172,1071729 5698172,1143287 5813114,1143287 "/>
   <polygon class="fil0 str2" points="3744151,1143287 3514266,1143287 3514266,1214845 3744151,1214845 "/>
   <polygon class="fil0 str2" points="3974036,1143287 3744151,1143287 3744151,1214845 3974036,1214845 "/>
   <polygon class="fil0 str2" points="4203921,1143287 3974036,1143287 3974036,1214845 4203921,1214845 "/>
   <polygon class="fil0 str2" points="4433805,1143287 4203921,1143287 4203921,1214845 4433805,1214845 "/>
   <polygon class="fil0 str2" points="4663690,1143287 4433805,1143287 4433805,1214845 4663690,1214845 "/>
   <polygon class="fil0 str2" points="4893575,1143287 4663690,1143287 4663690,1214845 4893575,1214845 "/>
   <polygon class="fil0 str2" points="5123460,1143287 4893575,1143287 4893575,1214845 5123460,1214845 "/>
   <polygon class="fil0 str2" points="5353345,1143287 5123460,1143287 5123460,1214845 5353345,1214845 "/>
   <polygon class="fil0 str2" points="5583230,1143287 5353345,1143287 5353345,1214845 5583230,1214845 "/>
   <polygon class="fil0 str2" points="5813114,1143287 5583230,1143287 5583230,1214845 5813114,1214845 "/>
   <polygon class="fil0 str2" points="3629208,1214845 3514266,1214845 3514266,1286404 3629208,1286404 "/>
   <polygon class="fil0 str2" points="3859093,1214845 3629208,1214845 3629208,1286404 3859093,1286404 "/>
   <polygon class="fil0 str2" points="4088978,1214845 3859093,1214845 3859093,1286404 4088978,1286404 "/>
   <polygon class="fil0 str2" points="4318863,1214845 4088978,1214845 4088978,1286404 4318863,1286404 "/>
   <polygon class="fil0 str2" points="4548748,1214845 4318863,1214845 4318863,1286404 4548748,1286404 "/>
   <polygon class="fil0 str2" points="4778633,1214845 4548748,1214845 4548748,1286404 4778633,1286404 "/>
   <polygon class="fil0 str2" points="5008517,1214845 4778633,1214845 4778633,1286404 4821272,1286404 4821272,1239592 5008517,1239592 "/>
   <polygon class="fil0 str2" points="5238402,1214845 5008517,1214845 5008517,1239592 5238402,1239592 "/>
   <polygon class="fil0 str2" points="5468287,1214845 5238402,1214845 5238402,1239592 5374727,1239592 5374727,1286404 5468287,1286404 "/>
   <polygon class="fil0 str2" points="5698172,1214845 5468287,1214845 5468287,1286404 5698172,1286404 "/>
   <polygon class="fil0 str2" points="5813114,1214845 5698172,1214845 5698172,1286404 5813114,1286404 "/>
   <polygon class="fil0 str2" points="3744151,1286404 3514266,1286404 3514266,1357962 3744151,1357962 "/>
   <path class="fil0 str2" d="M3974036 1286404l-229885 0 0 71558 85210 0c5778,-3841 12708,-6082 20169,-6082 7460,0 14404,2241 20182,6082l104324 0 0 -71558z"/>
   <polygon class="fil0 str2" points="4203921,1286404 3974036,1286404 3974036,1357962 4203921,1357962 "/>
   <polygon class="fil0 str2" points="4433805,1286404 4203921,1286404 4203921,1357962 4433805,1357962 "/>
   <polygon class="fil0 str2" points="4663690,1286404 4433805,1286404 4433805,1357962 4663690,1357962 "/>
   <polygon class="fil0 str2" points="4821272,1286404 4663690,1286404 4663690,1357962 4821272,1357962 "/>
   <polygon class="fil0 str2" points="5583230,1286404 5374727,1286404 5374727,1357962 5583230,1357962 "/>
   <polygon class="fil0 str2" points="5813114,1286404 5583230,1286404 5583230,1357962 5813114,1357962 "/>
   <polygon class="fil0 str2" points="3629208,1357962 3514266,1357962 3514266,1429520 3629208,1429520 "/>
   <path class="fil0 str2" d="M3829361 1357962l-200153 0 0 71558 205456 0c-3572,-5654 -8447,-11577 -13804,-18604l-28 -34 -490 -648c-4571,-6096 -7288,-13660 -7288,-21872 0,-12694 6482,-23864 16307,-30400z"/>
   <path class="fil0 str2" d="M4088978 1357962l-219266 0c9825,6536 16300,17706 16300,30400 0,8206 -2710,15776 -7281,21872l-497 648 -20 34c-5358,7027 -10233,12950 -13805,18604l224569 0 0 -71558z"/>
   <polygon class="fil0 str2" points="4318863,1357962 4088978,1357962 4088978,1429520 4318863,1429520 "/>
   <polygon class="fil0 str2" points="4548748,1357962 4318863,1357962 4318863,1429520 4548748,1429520 "/>
   <polygon class="fil0 str2" points="4778633,1357962 4548748,1357962 4548748,1429520 4778633,1429520 "/>
   <polygon class="fil0 str2" points="4821272,1357962 4778633,1357962 4778633,1429520 4821272,1429520 "/>
   <polygon class="fil0 str2" points="5468287,1357962 5374727,1357962 5374727,1429520 5468287,1429520 "/>
   <polygon class="fil0 str2" points="5698172,1357962 5468287,1357962 5468287,1429520 5698172,1429520 "/>
   <polygon class="fil0 str2" points="5813114,1357962 5698172,1357962 5698172,1429520 5813114,1429520 "/>
   <polygon class="fil0 str2" points="3744151,1429520 3514266,1429520 3514266,1501078 3744151,1501078 "/>
   <path class="fil0 str2" d="M3974036 1429520l-109627 0c-3654,5798 -5936,11315 -5936,17451l0 4144 -17873 0 0 -4144c0,-6136 -2282,-11653 -5936,-17451l-90513 0 0 71558 96449 0 0 -19590 17873 0 0 19590 115563 0 0 -71558z"/>
   <polygon class="fil0 str2" points="4203921,1429520 3974036,1429520 3974036,1501078 4203921,1501078 "/>
   <polygon class="fil0 str2" points="4433805,1429520 4203921,1429520 4203921,1501078 4433805,1501078 "/>
   <polygon class="fil0 str2" points="4663690,1429520 4433805,1429520 4433805,1501078 4663690,1501078 "/>
   <polygon class="fil0 str2" points="4821272,1429520 4663690,1429520 4663690,1501078 4821272,1501078 "/>
   <polygon class="fil0 str2" points="5583230,1429520 5374727,1429520 5374727,1501078 5583230,1501078 "/>
   <polygon class="fil0 str2" points="5813114,1429520 5583230,1429520 5583230,1501078 5813114,1501078 "/>
   <polygon class="fil0 str2" points="3629208,1501078 3514266,1501078 3514266,1572636 3629208,1572636 "/>
   <path class="fil0 str2" d="M3859093 1501078l-620 0 0 5109 0 6364c0,3634 -2993,6613 -6613,6613l-2323 0 -2324 0c-3620,0 -6613,-2972 -6613,-6613l0 -11473 -211392 0 0 71558 229885 0 0 -71558z"/>
   <polygon class="fil0 str2" points="4088978,1501078 3859093,1501078 3859093,1572636 4088978,1572636 "/>
   <polygon class="fil0 str2" points="4318863,1501078 4088978,1501078 4088978,1572636 4318863,1572636 "/>
   <polygon class="fil0 str2" points="4548748,1501078 4318863,1501078 4318863,1572636 4548748,1572636 "/>
   <polygon class="fil0 str2" points="4778633,1501078 4548748,1501078 4548748,1572636 4778633,1572636 "/>
   <polygon class="fil0 str2" points="4821272,1501078 4778633,1501078 4778633,1572636 4821272,1572636 "/>
   <polygon class="fil0 str2" points="5468287,1501078 5374727,1501078 5374727,1572636 5468287,1572636 "/>
   <polygon class="fil0 str2" points="5698172,1501078 5468287,1501078 5468287,1572636 5698172,1572636 "/>
   <polygon class="fil0 str2" points="5813114,1501078 5698172,1501078 5698172,1572636 5813114,1572636 "/>
   <polygon class="fil0 str2" points="3744151,1572636 3514266,1572636 3514266,1644194 3744151,1644194 "/>
   <polygon class="fil0 str2" points="3974036,1572636 3744151,1572636 3744151,1644194 3974036,1644194 "/>
   <polygon class="fil0 str2" points="4203921,1572636 3974036,1572636 3974036,1644194 4203921,1644194 "/>
   <polygon class="fil0 str2" points="4433805,1572636 4203921,1572636 4203921,1644194 4433805,1644194 "/>
   <polygon class="fil0 str2" points="4663690,1572636 4433805,1572636 4433805,1644194 4663690,1644194 "/>
   <polygon class="fil0 str2" points="4821272,1572636 4663690,1572636 4663690,1644194 4821272,1644194 "/>
   <polygon class="fil0 str2" points="5583230,1572636 5374727,1572636 5374727,1644194 5583230,1644194 "/>
   <polygon class="fil0 str2" points="5813114,1572636 5583230,1572636 5583230,1644194 5813114,1644194 "/>
   <polygon class="fil0 str2" points="3629208,1644194 3514266,1644194 3514266,1715752 3629208,1715752 "/>
   <polygon class="fil0 str2" points="3859093,1644194 3629208,1644194 3629208,1715752 3859093,1715752 "/>
   <polygon class="fil0 str2" points="4088978,1644194 3859093,1644194 3859093,1715752 4088978,1715752 "/>
   <polygon class="fil0 str2" points="4318863,1644194 4088978,1644194 4088978,1715752 4318863,1715752 "/>
   <polygon class="fil0 str2" points="4548748,1644194 4318863,1644194 4318863,1715752 4548748,1715752 "/>
   <polygon class="fil0 str2" points="4778633,1644194 4548748,1644194 4548748,1715752 4778633,1715752 "/>
   <polygon class="fil0 str2" points="4821272,1644194 4778633,1644194 4778633,1715752 4821272,1715752 "/>
   <polygon class="fil0 str2" points="5468287,1644194 5374727,1644194 5374727,1715752 5468287,1715752 "/>
   <polygon class="fil0 str2" points="5698172,1644194 5468287,1644194 5468287,1715752 5698172,1715752 "/>
   <polygon class="fil0 str2" points="5813114,1644194 5698172,1644194 5698172,1715752 5813114,1715752 "/>
   <polygon class="fil0 str2" points="3744151,1715752 3514266,1715752 3514266,1787310 3744151,1787310 "/>
   <polygon class="fil0 str2" points="3974036,1715752 3744151,1715752 3744151,1787310 3974036,1787310 "/>
   <polygon class="fil0 str2" points="4203921,1715752 3974036,1715752 3974036,1787310 4203921,1787310 "/>
   <polygon class="fil0 str2" points="4433805,1715752 4203921,1715752 4203921,1787310 4433805,1787310 "/>
   <path class="fil0 str2" d="M4663690 1715752l-229885 0 0 71558 229885 0c0,-24754 0,-46805 0,-71558z"/>
   <path class="fil0 str2" d="M4821272 1715752l-157582 0c0,24753 0,46804 0,71558l157582 0 0 -71558z"/>
   <polygon class="fil0 str2" points="5583230,1715752 5374727,1715752 5374727,1787310 5583230,1787310 "/>
   <polygon class="fil0 str2" points="5813114,1715752 5583230,1715752 5583230,1787310 5813114,1787310 "/>
   <polygon class="fil0 str2" points="3629208,1787310 3514266,1787310 3514266,1858868 3629208,1858868 "/>
   <polygon class="fil0 str2" points="3859093,1787310 3629208,1787310 3629208,1858868 3859093,1858868 "/>
   <polygon class="fil0 str2" points="4088978,1787310 3859093,1787310 3859093,1858868 4088978,1858868 "/>
   <polygon class="fil0 str2" points="4318863,1787310 4088978,1787310 4088978,1858868 4318863,1858868 "/>
   <polygon class="fil0 str2" points="4548748,1787310 4318863,1787310 4318863,1858868 4548748,1858868 "/>
   <polygon class="fil0 str2" points="4778633,1787310 4548748,1787310 4548748,1858868 4778633,1858868 "/>
   <polygon class="fil0 str2" points="4821272,1787310 4778633,1787310 4778633,1858868 4821272,1858868 "/>
   <polygon class="fil0 str2" points="5468287,1787310 5374727,1787310 5374727,1858868 5468287,1858868 "/>
   <polygon class="fil0 str2" points="5698172,1787310 5468287,1787310 5468287,1858868 5698172,1858868 "/>
   <polygon class="fil0 str2" points="5813114,1787310 5698172,1787310 5698172,1858868 5813114,1858868 "/>
   <polygon class="fil0 str2" points="3744151,1858868 3514266,1858868 3514266,1930426 3744151,1930426 "/>
   <polygon class="fil0 str2" points="3974036,1858868 3744151,1858868 3744151,1930426 3974036,1930426 "/>
   <polygon class="fil0 str2" points="4203921,1858868 3974036,1858868 3974036,1930426 4203921,1930426 "/>
   <polygon class="fil0 str2" points="4433805,1858868 4203921,1858868 4203921,1930426 4433805,1930426 "/>
   <polygon class="fil0 str2" points="4663690,1858868 4433805,1858868 4433805,1930426 4663690,1930426 "/>
   <polygon class="fil0 str2" points="4821272,1858868 4663690,1858868 4663690,1930426 4821272,1930426 "/>
   <polygon class="fil0 str2" points="5583230,1858868 5374727,1858868 5374727,1930426 5583230,1930426 "/>
   <polygon class="fil0 str2" points="5813114,1858868 5583230,1858868 5583230,1930426 5813114,1930426 "/>
   <polygon class="fil0 str2" points="3629208,1930426 3514266,1930426 3514266,2001984 3629208,2001984 "/>
   <path class="fil0 str2" d="M3859093 1930426l-229885 0 0 71558 104428 0c3247,-3124 7653,-5047 12514,-5047 4862,0 9268,1923 12515,5047l100428 0 0 -71558z"/>
   <polygon class="fil0 str2" points="4088978,1930426 3859093,1930426 3859093,2001984 4088978,2001984 "/>
   <polygon class="fil0 str2" points="4318863,1930426 4088978,1930426 4088978,2001984 4318863,2001984 "/>
   <polygon class="fil0 str2" points="4548748,1930426 4318863,1930426 4318863,2001984 4548748,2001984 "/>
   <polygon class="fil0 str2" points="4778633,1930426 4548748,1930426 4548748,2001984 4778633,2001984 "/>
   <polygon class="fil0 str2" points="4821272,1930426 4778633,1930426 4778633,2001984 4821272,2001984 "/>
   <polygon class="fil0 str2" points="5468287,1930426 5374727,1930426 5374727,2001984 5468287,2001984 "/>
   <polygon class="fil0 str2" points="5698172,1930426 5468287,1930426 5468287,2001984 5527379,2001984 5527379,1944237 5698172,1944237 "/>
   <polygon class="fil0 str2" points="5813114,1930426 5698172,1930426 5698172,1944237 5803013,1944237 5803013,2001984 5813114,2001984 "/>
   <path class="fil0 str2" d="M3733636 2001984l-219370 0 0 71558 218487 0c-2896,-3200 -4654,-7440 -4654,-12094l0 -46460c0,-5109 2131,-9722 5537,-13004z"/>
   <path class="fil0 str2" d="M3974036 2001984l-215371 0c3406,3282 5537,7895 5537,13004l0 46460c0,4654 -1758,8894 -4654,12094l214488 0 0 -71558z"/>
   <polygon class="fil0 str2" points="4203921,2001984 3974036,2001984 3974036,2073542 4203921,2073542 "/>
   <polygon class="fil0 str2" points="4433805,2001984 4203921,2001984 4203921,2073542 4433805,2073542 "/>
   <polygon class="fil0 str2" points="4663690,2001984 4433805,2001984 4433805,2073542 4663690,2073542 "/>
   <polygon class="fil0 str2" points="4821272,2001984 4663690,2001984 4663690,2073542 4821272,2073542 "/>
   <polygon class="fil0 str2" points="5527379,2001984 5374727,2001984 5374727,2073542 5527379,2073542 "/>
   <polygon class="fil0 str2" points="5813114,2001984 5803013,2001984 5803013,2073542 5813114,2073542 "/>
   <polygon class="fil0 str2" points="3629208,2073542 3514266,2073542 3514266,2145100 3629208,2145100 "/>
   <path class="fil0 str2" d="M3859093 2073542l-99545 0c-3303,3661 -8081,5957 -13398,5957 -5316,0 -10094,-2296 -13397,-5957l-103545 0 0 71558 229885 0 0 -71558z"/>
   <polygon class="fil0 str2" points="4088978,2073542 3859093,2073542 3859093,2145100 4088978,2145100 "/>
   <polygon class="fil0 str2" points="4318863,2073542 4088978,2073542 4088978,2145100 4318863,2145100 "/>
   <polygon class="fil0 str2" points="4548748,2073542 4318863,2073542 4318863,2145100 4548748,2145100 "/>
   <polygon class="fil0 str2" points="4778633,2073542 4548748,2073542 4548748,2145100 4778633,2145100 "/>
   <polygon class="fil0 str2" points="4821272,2073542 4778633,2073542 4778633,2145100 4821272,2145100 "/>
   <polygon class="fil0 str2" points="5468287,2073542 5374727,2073542 5374727,2145100 5468287,2145100 "/>
   <polygon class="fil0 str2" points="5527379,2073542 5468287,2073542 5468287,2145100 5510499,2145100 5510499,2079086 5527379,2079086 "/>
   <polygon class="fil0 str2" points="5813114,2073542 5803013,2073542 5803013,2145100 5813114,2145100 "/>
   <polygon class="fil0 str2" points="3514721,2156091 3514266,2216658 3547356,2216658 3538703,2178176 3537248,2163558 3529739,2156401 3519672,2155829 "/>
   <polygon class="fil0 str2" points="4433805,2145100 4203921,2145100 4203921,2216658 4433805,2216658 "/>
   <polygon class="fil0 str2" points="4663690,2145100 4433805,2145100 4433805,2216658 4663690,2216658 "/>
   <polygon class="fil0 str2" points="4821272,2145100 4663690,2145100 4663690,2216658 4821272,2216658 "/>
   <polygon class="fil0 str2" points="5510499,2145100 5374727,2145100 5374727,2216658 5510499,2216658 "/>
   <polygon class="fil0 str2" points="5813114,2145100 5803013,2145100 5803013,2216658 5813114,2216658 "/>
   <polygon class="fil0 str2" points="3547356,2216658 3514266,2216658 3514266,2288216 3563449,2288216 "/>
   <polygon class="fil0 str2" points="4088978,2216658 4032962,2216658 4016979,2288216 4088978,2288216 "/>
   <polygon class="fil0 str2" points="4318863,2216658 4088978,2216658 4088978,2288216 4318863,2288216 "/>
   <polygon class="fil0 str2" points="4548748,2216658 4318863,2216658 4318863,2288216 4548748,2288216 "/>
   <polygon class="fil0 str2" points="4778633,2216658 4548748,2216658 4548748,2288216 4778633,2288216 "/>
   <polygon class="fil0 str2" points="4821272,2216658 4778633,2216658 4778633,2288216 4821272,2288216 "/>
   <polygon class="fil0 str2" points="5468287,2216658 5374727,2216658 5374727,2288216 5468287,2288216 "/>
   <polygon class="fil0 str2" points="5510499,2216658 5468287,2216658 5468287,2288216 5510499,2288216 "/>
   <polygon class="fil0 str2" points="5813114,2216658 5803013,2216658 5803013,2288216 5813114,2288216 "/>
   <polygon class="fil0 str2" points="3563449,2288216 3514266,2288216 3514266,2359774 3579536,2359774 "/>
   <polygon class="fil0 str2" points="4203921,2288216 4016979,2288216 4000996,2359774 4203921,2359774 "/>
   <polygon class="fil0 str2" points="4433805,2288216 4203921,2288216 4203921,2359774 4433805,2359774 "/>
   <polygon class="fil0 str2" points="4663690,2288216 4433805,2288216 4433805,2359774 4663690,2359774 "/>
   <polygon class="fil0 str2" points="4821272,2288216 4663690,2288216 4663690,2359774 4821272,2359774 "/>
   <polygon class="fil0 str2" points="5510499,2288216 5374727,2288216 5374727,2359774 5510499,2359774 "/>
   <polygon class="fil0 str2" points="5813114,2288216 5803013,2288216 5803013,2359774 5813114,2359774 "/>
   <polygon class="fil0 str2" points="3579536,2359774 3514266,2359774 3514266,2431332 3583204,2431332 3582749,2374054 "/>
   <polygon class="fil0 str2" points="4088978,2359774 4000996,2359774 3997659,2415094 3997528,2431332 4088978,2431332 "/>
   <polygon class="fil0 str2" points="4318863,2359774 4088978,2359774 4088978,2431332 4318863,2431332 "/>
   <polygon class="fil0 str2" points="4548748,2359774 4318863,2359774 4318863,2431332 4548748,2431332 "/>
   <polygon class="fil0 str2" points="4778633,2359774 4548748,2359774 4548748,2431332 4778633,2431332 "/>
   <polygon class="fil0 str2" points="4821272,2359774 4778633,2359774 4778633,2431332 4821272,2431332 "/>
   <polygon class="fil0 str2" points="5468287,2359774 5374727,2359774 5374727,2431332 5468287,2431332 "/>
   <polygon class="fil0 str2" points="5510499,2359774 5468287,2359774 5468287,2431332 5510499,2431332 "/>
   <polygon class="fil0 str2" points="5813114,2359774 5803013,2359774 5803013,2431332 5813114,2431332 "/>
   <polygon class="fil0 str2" points="4203921,2431332 3997528,2431332 3996962,2502890 4203921,2502890 "/>
   <polygon class="fil0 str2" points="4433805,2431332 4203921,2431332 4203921,2502890 4433805,2502890 "/>
   <polygon class="fil0 str2" points="4663690,2431332 4433805,2431332 4433805,2502890 4663690,2502890 "/>
   <polygon class="fil0 str2" points="4821272,2431332 4663690,2431332 4663690,2502890 4821272,2502890 "/>
   <polygon class="fil0 str2" points="5510499,2431332 5374727,2431332 5374727,2502890 5527379,2502890 5527379,2435545 5510499,2435545 "/>
   <polygon class="fil0 str2" points="5813114,2431332 5803013,2431332 5803013,2502890 5813114,2502890 "/>
   <polygon class="fil0 str2" points="3583769,2502890 3514266,2502890 3514266,2574448 3629208,2574448 3629208,2509820 3607047,2553073 3584162,2553073 "/>
   <polygon class="fil0 str2" points="3675654,2502890 3632759,2502890 3629208,2509820 3629208,2574448 3675654,2574448 "/>
   <polygon class="fil0 str2" points="4088978,2502890 3996962,2502890 3996569,2553073 3973684,2553073 3947972,2502890 3905077,2502890 3905077,2574448 4088978,2574448 "/>
   <polygon class="fil0 str2" points="4318863,2502890 4088978,2502890 4088978,2574448 4318863,2574448 "/>
   <polygon class="fil0 str2" points="4548748,2502890 4318863,2502890 4318863,2574448 4548748,2574448 "/>
   <polygon class="fil0 str2" points="4778633,2502890 4548748,2502890 4548748,2574448 4778633,2574448 "/>
   <polygon class="fil0 str2" points="4821272,2502890 4778633,2502890 4778633,2574448 4821272,2574448 "/>
   <polygon class="fil0 str2" points="5468287,2502890 5374727,2502890 5374727,2574448 5468287,2574448 "/>
   <polygon class="fil0 str2" points="5527379,2502890 5468287,2502890 5468287,2574448 5527379,2574448 "/>
   <polygon class="fil0 str2" points="5813114,2502890 5803013,2502890 5803013,2574448 5813114,2574448 "/>
  </g>
  <line class="fil0 str0" x1="3514266" y1="713939" x2="3514266" y2= "2579095" />
  <rect class="fil0 str0" x="4859713" y="1278033" width="471926" height="1301063"/>
  <rect class="fil0 str0" x="4923342" y="1845915" width="349479" height="164510"/>
  <rect class="fil0 str0" x="4923342" y="2079083" width="349479" height="421640"/>
  <rect class="fil0 str0" x="4948744" y="2103217" width="298675" height="373372"/>
  <rect class="fil0 str0" x="4923342" y="1362075" width="349479" height="413641"/>
  <rect class="fil0 str0" x="4948744" y="1386209" width="298675" height="365373"/>
  <rect class="fil0 str0" x="4948744" y="1871911" width="298675" height="114057"/>
  <circle class="fil0 str0" cx="5302368" cy="1955964" r="12479"/>
  <circle class="fil0 str0" cx="5302368" cy="1914432" r="12479"/>
  <line class="fil0 str0" x1="4948743" y1="1871913" x2="4923341" y2= "1845912" />
  <line class="fil0 str0" x1="5247421" y1="1871913" x2="5272823" y2= "1845912" />
  <line class="fil0 str0" x1="4948743" y1="1985966" x2="4923341" y2= "2011968" />
  <line class="fil0 str0" x1="5247421" y1="1985966" x2="5272823" y2= "2011968" />
  <line class="fil0 str0" x1="4948743" y1="2476585" x2="4923341" y2= "2500725" />
  <line class="fil0 str0" x1="5247421" y1="2476585" x2="5272823" y2= "2500725" />
  <line class="fil0 str0" x1="4948743" y1="2103219" x2="4923341" y2= "2079086" />
  <line class="fil0 str0" x1="5247421" y1="2103219" x2="5272823" y2= "2079086" />
  <line class="fil0 str0" x1="4948743" y1="1751586" x2="4923341" y2= "1775719" />
  <line class="fil0 str0" x1="5247421" y1="1751586" x2="5272823" y2= "1775719" />
  <line class="fil0 str0" x1="4948743" y1="1386211" x2="4923341" y2= "1362078" />
  <line class="fil0 str0" x1="5247421" y1="1386211" x2="5272823" y2= "1362078" />
  <path class="fil1 str0" d="M5309898 1907727l0 13411 -76626 0 0 -13411c25540,0 51087,0 76626,0z"/>
  <rect class="fil0 str0" x="4821272" y="1239599" width="38441" height="1339503"/>
  <rect class="fil0 str0" transform="matrix(9.35457E-015 1 -0.350223 2.62607E-014 5.33164E+006 1.23959E+006)" width="38441" height="1347502"/>
  <rect class="fil0 str0" x="5331639" y="1239599" width="38441" height="1339503"/>
  <path class="fil0 str0" d="M4696435 713939l0 8626c0,5185 -5909,9426 -13142,9426l-249522 0c-7233,0 -13142,-4241 -13142,-9426l0 -8626 275806 0z"/>
  <path class="fil0 str0" d="M5779362 713939l0 8626c0,5185 -5909,9426 -13142,9426l-249522 0c-7233,0 -13142,-4241 -13142,-9426l0 -8626 275806 0z"/>
  <rect class="fil0 str0" x="5527379" y="1944244" width="275634" height="634859"/>
  <rect class="fil0 str0" x="5510499" y="2079089" width="16879" height="356459"/>
  <path class="fil0 str0" d="M5510499 2114003c-5867,28373 -9825,81914 -9825,143316 0,61394 3958,114935 9825,143309l0 -286625z"/>
  <line class="fil0 str0" x1="4065879" y1="2155629" x2="4065879" y2= "2579095" />
  <path class="fil0 str0" d="M4065879 2155629c-3330,0 -8060,0 -13328,0 -6164,0 -9219,4385 -11108,13094 -3641,16783 -11101,53927 -19507,95863 -5495,27450 -25160,108565 -37489,155672 -4854,18548 -19678,33401 -46742,33401 -42005,0 -113867,0 -147632,0 -33766,0 -105627,0 -147633,0 -27063,0 -41888,-14853 -46742,-33401 -12329,-47107 -31994,-128222 -37489,-155672 -8405,-41936 -15866,-79080 -19506,-95863 -1890,-8709 -4944,-13094 -11109,-13094 -5268,0 -9998,0 -13328,0 0,-7937 4634,-10515 10494,-10515 3048,0 6510,0 10791,0 5937,0 8881,4385 10695,13094 3503,16776 10694,53927 18782,95863 5289,27443 26057,108571 37910,155672 4668,18534 15748,33400 41805,33400 40440,0 112819,0 145330,0 32510,0 104889,0 145329,0 26057,0 37137,-14866 41805,-33400 11853,-47101 32622,-128229 37910,-155672 8088,-41936 15280,-79087 18783,-95863 1813,-8709 4757,-13094 10694,-13094 4282,0 7743,0 10791,0 5861,0 10494,2985 10494,10515z"/>
  <path class="fil0 str0" d="M3639289 2453659l17217 0 -49459 98800 -22885 0 -1413 -183239c4640,19072 8502,37303 14459,56472 627,13714 1048,27422 1889,41150 297,4696 3868,10688 11536,13639 7260,2048 15935,3833 21058,-7861l7598 -18961z"/>
  <polygon class="fil0 str0" points="3648749,2469152 3790073,2469152 3931396,2469152 3937147,2480639 3790073,2480639 3642999,2480639 "/>
  <rect class="fil2 str0" x="3574482" y="2568565" width="41054" height="10530"/>
  <line class="fil0 str3" x1="3595581" y1="2568566" x2="3595581" y2= "2550646" />
  <path class="fil0 str0" d="M3941442 2453659l-17217 0 49459 98800 22885 0 1414 -183239c-4641,19072 -8502,37303 -14460,56472 -627,13714 -1048,27422 -1889,41150 -296,4696 -3868,10688 -11535,13639 -7261,2048 -15935,3833 -21058,-7861l-7599 -18961z"/>
  <rect class="fil2 str0" x="3965196" y="2568565" width="41054" height="10530"/>
  <line class="fil0 str3" x1="3985151" y1="2568566" x2="3985151" y2= "2550646" />
  <path class="fil0 str0" d="M3675654 2460099l229423 0 0 9053 -115004 0 -114419 0 0 -9053zm229423 20540l0 38958 -229423 0 0 -38958 114419 0 115004 0z"/>
  <rect class="fil0 str0" x="3675654" y="2519599" width="229423" height="59497"/>
  <path class="fil0 str0" d="M3675654 2460099l229423 0 0 -862 -115004 0 -114419 0 0 862zm229423 -1965l0 -3745 -229423 0 0 3745 114419 0 115004 0z"/>
  <line class="fil0 str0" x1="3535551" y1="2145114" x2="4044594" y2= "2145114" />
  <ellipse class="fil0 str0" cx="3790073" cy="2204109" rx="26753" ry="27053"/>
  <rect class="fil0 str0" x="3769373" y="2434602" width="41399" height="8540"/>
  <path class="fil0 str0" d="M3833995 1996937c8088,0 17720,7819 18038,17562 -255,-5013 -4434,-9033 -9509,-9033l-9991 0 -241 0 -1241 0 -1641 0 -1635 0 -1641 0 -1641 0 -1641 0 -1634 0 -1641 0 -924 0c3186,-5123 7123,-8529 15342,-8529zm18038 18541c-318,9743 -9957,17562 -18038,17562 -8219,0 -12156,-3407 -15342,-8530l924 0 1641 0 1634 0 1641 0 1641 0 1641 0 1635 0 1641 0 1241 0 248 0 9984 0c5075,0 9247,-4020 9509,-9032z"/>
  <path class="fil0 str0" d="M3761492 2005466l81032 0c5241,0 9522,4282 9522,9522l0 0c0,5240 -4281,9522 -9522,9522l-78322 0 0 -9522c0,-3496 -993,-6757 -2710,-9522z"/>
  <path class="fil0 str0" d="M3833995 2046844l0 0c-5399,0 -9805,-2427 -9805,-5406l0 -16928 19610 0 0 16928c0,2979 -4406,5406 -9805,5406z"/>
  <rect class="fil0 str0" x="3773283" y="1969363" width="33069" height="36103"/>
  <rect class="fil0 str0" x="3773283" y="1969363" width="33069" height="10398"/>
  <path class="fil0 str0" d="M3795251 1969363l-10867 0 0 -487875 10867 0 0 487875zm-10867 -518248l0 -109143 10867 0 0 109143 -10867 0zm0 -124651l0 -333415 10867 0 0 333415 -10867 0z"/>
  <rect class="fil0 str0" x="3779937" y="1326464" width="19762" height="15507"/>
  <path class="fil0 str0" d="M3728099 2061448c0,9970 8081,18051 18051,18051 9971,0 18052,-8081 18052,-18051l0 -46460c0,-9970 -8081,-18051 -18052,-18051 -9970,0 -18051,8081 -18051,18051l0 46460z"/>
  <rect class="fil0 str4" x="3657534" y="968916" width="265009" height="24133" rx="9155" ry="834"/>
  <rect class="fil0 str0" x="3772200" y="1451115" width="101042" height="30376"/>
  <path class="fil0 str0" d="M3789818 952340l0 0c2992,0 5433,2441 5433,5433l0 11143 -10867 0 0 -11143c0,-2992 2441,-5433 5434,-5433z"/>
  <path class="fil0 str5" d="M3833995 2046844c0,75674 65407,64276 65407,7453 0,-102993 -49865,-256858 -49865,-537457"/>
  <path class="fil0 str0" d="M3849530 1351880c20154,0 36482,16328 36482,36482 0,8206 -2710,15776 -7281,21872l-497 648 -20 34c-10853,14232 -19741,23940 -19741,36055l0 4144 -17873 0 0 -4144c0,-12115 -8887,-21823 -19740,-36055l-28 -34 -490 -648c-4571,-6096 -7288,-13660 -7288,-21872 0,-20154 16335,-36482 36476,-36482zm8943 129608l0 24699 0 6364c0,3634 -2993,6613 -6613,6613l-2323 0 -2324 0c-3620,0 -6613,-2972 -6613,-6613l0 -31063 17873 0z"/>
  <circle class="fil0 str0" cx="3849533" cy="1388359" r="26888"/>
  <line class="fil0 str0" x1="3806807" y1="1451115" x2="3806807" y2= "1481488" />
  <path class="fil0 str0" d="M3795251 1315563c8178,2269 14183,9757 14183,18658 0,8902 -6005,16390 -14183,18659l0 -10908 4447 0 0 -15508 -4447 0 0 -10901zm-10867 37172c-7915,-2427 -13673,-9798 -13673,-18514 0,-8715 5758,-16086 13673,-18513l0 10756 -4447 0 0 15508 4447 0 0 10763z"/>
  <line class="fil0 str0" x1="4058398" y1="2155629" x2="4058398" y2= "2579095" />
  <g id="_1065473440">
   <polygon class="fil0 str2" points="6042999,713939 5813114,713939 5813114,785497 6042999,785497 "/>
   <polygon class="fil0 str2" points="6272884,713939 6042999,713939 6042999,785497 6272884,785497 "/>
   <polygon class="fil0 str2" points="6502769,713939 6272884,713939 6272884,785497 6502769,785497 "/>
   <polygon class="fil0 str2" points="6611768,713939 6502769,713939 6502769,785497 6611768,785497 "/>
   <polygon class="fil0 str2" points="5928057,785497 5813114,785497 5813114,857055 5928057,857055 "/>
   <polygon class="fil0 str2" points="6157942,785497 5928057,785497 5928057,857055 6157942,857055 "/>
   <polygon class="fil0 str2" points="6387826,785497 6157942,785497 6157942,857055 6387826,857055 "/>
   <polygon class="fil0 str2" points="6611768,785497 6387826,785497 6387826,857055 6611768,857055 "/>
   <polygon class="fil0 str2" points="6042999,857055 5813114,857055 5813114,928613 6042999,928613 "/>
   <polygon class="fil0 str2" points="6272884,857055 6042999,857055 6042999,928613 6272884,928613 "/>
   <polygon class="fil0 str2" points="6502769,857055 6272884,857055 6272884,928613 6502769,928613 "/>
   <polygon class="fil0 str2" points="6611768,857055 6502769,857055 6502769,928613 6611768,928613 "/>
   <polygon class="fil0 str2" points="5928057,928613 5813114,928613 5813114,1000171 5928057,1000171 "/>
   <polygon class="fil0 str2" points="6157942,928613 5928057,928613 5928057,1000171 6157942,1000171 "/>
   <polygon class="fil0 str2" points="6387826,928613 6157942,928613 6157942,1000171 6387826,1000171 "/>
   <polygon class="fil0 str2" points="6611768,928613 6387826,928613 6387826,1000171 6611768,1000171 "/>
   <polygon class="fil0 str2" points="6042999,1000171 5813114,1000171 5813114,1071729 6042999,1071729 "/>
   <polygon class="fil0 str2" points="6272884,1000171 6042999,1000171 6042999,1071729 6272884,1071729 "/>
   <polygon class="fil0 str2" points="6502769,1000171 6272884,1000171 6272884,1071729 6502769,1071729 "/>
   <polygon class="fil0 str2" points="6611768,1000171 6502769,1000171 6502769,1071729 6611768,1071729 "/>
   <polygon class="fil0 str2" points="5928057,1071729 5813114,1071729 5813114,1143287 5928057,1143287 "/>
   <polygon class="fil0 str2" points="6157942,1071729 5928057,1071729 5928057,1143287 6157942,1143287 "/>
   <polygon class="fil0 str2" points="6387826,1071729 6157942,1071729 6157942,1143287 6387826,1143287 "/>
   <polygon class="fil0 str2" points="6611768,1071729 6387826,1071729 6387826,1143287 6611768,1143287 "/>
   <polygon class="fil0 str2" points="6042999,1143287 5813114,1143287 5813114,1214845 6042999,1214845 "/>
   <polygon class="fil0 str2" points="6272884,1143287 6042999,1143287 6042999,1214845 6272884,1214845 "/>
   <polygon class="fil0 str2" points="6502769,1143287 6272884,1143287 6272884,1214845 6502769,1214845 "/>
   <polygon class="fil0 str2" points="6611768,1143287 6502769,1143287 6502769,1214845 6611768,1214845 "/>
   <polygon class="fil0 str2" points="5928057,1214845 5813114,1214845 5813114,1286404 5928057,1286404 "/>
   <polygon class="fil0 str2" points="6157942,1214845 5928057,1214845 5928057,1286404 6157942,1286404 "/>
   <polygon class="fil0 str2" points="6387826,1214845 6157942,1214845 6157942,1286404 6387826,1286404 "/>
   <polygon class="fil0 str2" points="6611768,1214845 6387826,1214845 6387826,1286404 6611768,1286404 "/>
   <polygon class="fil0 str2" points="6042999,1286404 5813114,1286404 5813114,1357962 6042999,1357962 "/>
   <polygon class="fil0 str2" points="6272884,1286404 6042999,1286404 6042999,1357962 6272884,1357962 "/>
   <polygon class="fil0 str2" points="6502769,1286404 6272884,1286404 6272884,1357962 6502769,1357962 "/>
   <polygon class="fil0 str2" points="6611768,1286404 6502769,1286404 6502769,1357962 6611768,1357962 "/>
   <polygon class="fil0 str2" points="5928057,1357962 5813114,1357962 5813114,1429520 5928057,1429520 "/>
   <polygon class="fil0 str2" points="6157942,1357962 5928057,1357962 5928057,1429520 6157942,1429520 "/>
   <polygon class="fil0 str2" points="6387826,1357962 6157942,1357962 6157942,1429520 6387826,1429520 "/>
   <polygon class="fil0 str2" points="6611768,1357962 6387826,1357962 6387826,1429520 6611768,1429520 "/>
   <polygon class="fil0 str2" points="6042999,1429520 5813114,1429520 5813114,1501078 6042999,1501078 "/>
   <polygon class="fil0 str2" points="6272884,1429520 6042999,1429520 6042999,1501078 6272884,1501078 "/>
   <polygon class="fil0 str2" points="6502769,1429520 6272884,1429520 6272884,1501078 6502769,1501078 "/>
   <polygon class="fil0 str2" points="6611768,1429520 6502769,1429520 6502769,1501078 6611768,1501078 "/>
   <polygon class="fil0 str2" points="5928057,1501078 5813114,1501078 5813114,1572636 5928057,1572636 "/>
   <polygon class="fil0 str2" points="6157942,1501078 5928057,1501078 5928057,1572636 6157942,1572636 "/>
   <polygon class="fil0 str2" points="6387826,1501078 6157942,1501078 6157942,1572636 6387826,1572636 "/>
   <polygon class="fil0 str2" points="6611768,1501078 6387826,1501078 6387826,1572636 6611768,1572636 "/>
   <polygon class="fil0 str2" points="6042999,1572636 5813114,1572636 5813114,1644194 6042999,1644194 "/>
   <polygon class="fil0 str2" points="6272884,1572636 6042999,1572636 6042999,1644194 6272884,1644194 "/>
   <polygon class="fil0 str2" points="6502769,1572636 6272884,1572636 6272884,1644194 6502769,1644194 "/>
   <polygon class="fil0 str2" points="6611768,1572636 6502769,1572636 6502769,1644194 6611768,1644194 "/>
   <polygon class="fil0 str2" points="5928057,1644194 5813114,1644194 5813114,1715752 5928057,1715752 "/>
   <polygon class="fil0 str2" points="6157942,1644194 5928057,1644194 5928057,1715752 6157942,1715752 "/>
   <polygon class="fil0 str2" points="6387826,1644194 6157942,1644194 6157942,1715752 6387826,1715752 "/>
   <polygon class="fil0 str2" points="6611768,1644194 6387826,1644194 6387826,1715752 6611768,1715752 "/>
   <polygon class="fil0 str2" points="6042999,1715752 5813114,1715752 5813114,1787310 6042999,1787310 "/>
   <polygon class="fil0 str2" points="6272884,1715752 6042999,1715752 6042999,1787310 6272884,1787310 "/>
   <polygon class="fil0 str2" points="6502769,1715752 6272884,1715752 6272884,1787310 6502769,1787310 "/>
   <polygon class="fil0 str2" points="6611768,1715752 6502769,1715752 6502769,1787310 6611768,1787310 "/>
   <polygon class="fil0 str2" points="5928057,1787310 5813114,1787310 5813114,1858868 5928057,1858868 "/>
   <polygon class="fil0 str2" points="6157942,1787310 5928057,1787310 5928057,1858868 6157942,1858868 "/>
   <polygon class="fil0 str2" points="6387826,1787310 6157942,1787310 6157942,1858868 6387826,1858868 "/>
   <polygon class="fil0 str2" points="6611768,1787310 6387826,1787310 6387826,1858868 6611768,1858868 "/>
   <polygon class="fil0 str2" points="6042999,1858868 5813114,1858868 5813114,1930426 6042999,1930426 "/>
   <polygon class="fil0 str2" points="6272884,1858868 6042999,1858868 6042999,1930426 6272884,1930426 "/>
   <polygon class="fil0 str2" points="6502769,1858868 6272884,1858868 6272884,1930426 6502769,1930426 "/>
   <polygon class="fil0 str2" points="6611768,1858868 6502769,1858868 6502769,1930426 6611768,1930426 "/>
   <polygon class="fil0 str2" points="5928057,1930426 5813114,1930426 5813114,2001984 5928057,2001984 "/>
   <polygon class="fil0 str2" points="6157942,1930426 5928057,1930426 5928057,2001984 6157942,2001984 "/>
   <polygon class="fil0 str2" points="6387826,1930426 6157942,1930426 6157942,2001984 6387826,2001984 "/>
   <polygon class="fil0 str2" points="6611768,1930426 6387826,1930426 6387826,2001984 6611768,2001984 "/>
   <polygon class="fil0 str2" points="6042999,2001984 5813114,2001984 5813114,2073542 6042999,2073542 "/>
   <polygon class="fil0 str2" points="6272884,2001984 6042999,2001984 6042999,2073542 6272884,2073542 "/>
   <polygon class="fil0 str2" points="6502769,2001984 6272884,2001984 6272884,2073542 6502769,2073542 "/>
   <polygon class="fil0 str2" points="6611768,2001984 6502769,2001984 6502769,2073542 6611768,2073542 "/>
   <polygon class="fil0 str2" points="5928057,2073542 5813114,2073542 5813114,2145100 5928057,2145100 "/>
   <polygon class="fil0 str2" points="6157942,2073542 5928057,2073542 5928057,2145100 6157942,2145100 "/>
   <polygon class="fil0 str2" points="6387826,2073542 6157942,2073542 6157942,2145100 6387826,2145100 "/>
   <polygon class="fil0 str2" points="6611768,2073542 6387826,2073542 6387826,2145100 6611768,2145100 "/>
   <polygon class="fil0 str2" points="6042999,2145100 5813114,2145100 5813114,2216658 6042999,2216658 "/>
   <polygon class="fil0 str2" points="6272884,2145100 6042999,2145100 6042999,2216658 6272884,2216658 "/>
   <polygon class="fil0 str2" points="6502769,2145100 6272884,2145100 6272884,2216658 6502769,2216658 "/>
   <polygon class="fil0 str2" points="6611768,2145100 6502769,2145100 6502769,2216658 6611768,2216658 "/>
   <polygon class="fil0 str2" points="5928057,2216658 5813114,2216658 5813114,2288216 5928057,2288216 "/>
   <polygon class="fil0 str2" points="6157942,2216658 5928057,2216658 5928057,2288216 6157942,2288216 "/>
   <path class="fil0 str2" d="M6387826 2216658l-229884 0 0 71558 229884 0 0 -4020 -147239 0 0 -21320c0,-2137 1524,-3875 3406,-3875l143833 0 0 -42343z"/>
   <path class="fil0 str2" d="M6611768 2216658l-223942 0 0 42343 154493 0c1883,0 3407,1751 3407,3875l0 21320 -157900 0 0 4020 223942 0 0 -71558z"/>
   <polygon class="fil0 str2" points="6042999,2288216 5813114,2288216 5813114,2359774 6042999,2359774 "/>
   <path class="fil0 str2" d="M6272884 2288216l-229885 0 0 71558 217232 0 -17700 -56940c-1668,-6227 1255,-9978 6199,-9978l24154 0 0 -4640z"/>
   <polygon class="fil0 str2" points="6502769,2288216 6272884,2288216 6272884,2292856 6502769,2292856 "/>
   <polygon class="fil0 str2" points="6611768,2288216 6502769,2288216 6502769,2292856 6611768,2292856 "/>
   <polygon class="fil0 str2" points="5928057,2359774 5813114,2359774 5813114,2431332 5928057,2431332 "/>
   <polygon class="fil0 str2" points="6157942,2359774 5928057,2359774 5928057,2431332 6157942,2431332 "/>
   <polygon class="fil0 str2" points="6260231,2359774 6157942,2359774 6157942,2431332 6282482,2431332 "/>
   <polygon class="fil0 str2" points="6042999,2431332 5813114,2431332 5813114,2502890 6042999,2502890 "/>
   <polygon class="fil0 str2" points="6272884,2431332 6042999,2431332 6042999,2502890 6272884,2502890 "/>
   <path class="fil0 str2" d="M6282482 2431332l-9598 0 0 71558 47749 0c-15859,-13011 -25795,-31807 -32297,-52714l-5854 -18844z"/>
   <polygon class="fil0 str2" points="5928057,2502890 5813114,2502890 5813114,2574448 5928057,2574448 "/>
   <polygon class="fil0 str2" points="6157942,2502890 5928057,2502890 5928057,2574448 6157942,2574448 "/>
   <path class="fil0 str2" d="M6320633 2502890l-162691 0 0 71558 229884 0 0 -52472 -16362 -841c-21609,-1110 -38123,-7819 -50831,-18245z"/>
   <polygon class="fil0 str2" points="6387826,2521976 6387826,2574448 6611768,2574448 6611768,2533436 "/>
  </g>
  <line class="fil0 str0" x1="6611768" y1="713939" x2="6611768" y2= "2579095" />
  <path class="fil0 str0" d="M6288336 2450176c-15266,-49114 -30539,-98228 -45805,-147342 -1668,-6227 1255,-9978 6199,-9978l363038 0 0 240580c-85576,-4379 -154728,-7923 -240304,-12301 -48583,-2490 -71420,-33297 -83128,-70959z"/>
  <path class="fil0 str0" d="M6240587 2284196l0 -21320c0,-2137 1524,-3875 3406,-3875l298326 0c1883,0 3407,1751 3407,3875l0 21320 -305139 0z"/>
  <rect class="fil0 str0" x="6497722" y="2327525" width="66138" height="57926" rx="10956" ry="10956"/>
  <rect class="fil2 str4" x="6592876" y="1919924" width="18886" height="83921"/>
  <line class="fil0 str0" x1="5813107" y1="713939" x2="5813107" y2= "2579095" />
  <line class="fil0 str0" x1="6689428" y1="713939" x2="230181" y2= "713939" />
  <line class="fil0 str0" x1="413276" y1="713939" x2="413276" y2= "2579095" />
  <polygon class="fil3" points="3267529,2494009 3340742,2494009 3340742,1239592 3340742,713939 2641497,713939 2641497,1239592 2641497,2494009 2718723,2494009 2718723,1239592 3267529,1239592 "/>
  <line class="fil0 str0" x1="2641497" y1="713939" x2="2641497" y2= "2579095" />
  <rect class="fil0 str0" x="2757163" y="1278033" width="471926" height="1301063"/>
  <rect class="fil0 str0" x="2820792" y="1845915" width="349479" height="164510"/>
  <rect class="fil0 str0" x="2820792" y="2079083" width="349479" height="421640"/>
  <rect class="fil0 str0" x="2846194" y="2103217" width="298675" height="373372"/>
  <rect class="fil0 str0" x="2820792" y="1362075" width="349479" height="413641"/>
  <rect class="fil0 str0" x="2846194" y="1386209" width="298675" height="365373"/>
  <rect class="fil0 str0" x="2846194" y="1871911" width="298675" height="114057"/>
  <circle class="fil0 str0" cx="3199818" cy="1955964" r="12479"/>
  <circle class="fil0 str0" cx="3199818" cy="1914432" r="12479"/>
  <line class="fil0 str0" x1="2846193" y1="1871913" x2="2820792" y2= "1845912" />
  <line class="fil0 str0" x1="3144871" y1="1871913" x2="3170273" y2= "1845912" />
  <line class="fil0 str0" x1="2846193" y1="1985966" x2="2820792" y2= "2011968" />
  <line class="fil0 str0" x1="3144871" y1="1985966" x2="3170273" y2= "2011968" />
  <line class="fil0 str0" x1="2846193" y1="2476585" x2="2820792" y2= "2500725" />
  <line class="fil0 str0" x1="3144871" y1="2476585" x2="3170273" y2= "2500725" />
  <line class="fil0 str0" x1="2846193" y1="2103219" x2="2820792" y2= "2079086" />
  <line class="fil0 str0" x1="3144871" y1="2103219" x2="3170273" y2= "2079086" />
  <line class="fil0 str0" x1="2846193" y1="1751586" x2="2820792" y2= "1775719" />
  <line class="fil0 str0" x1="3144871" y1="1751586" x2="3170273" y2= "1775719" />
  <line class="fil0 str0" x1="2846193" y1="1386211" x2="2820792" y2= "1362078" />
  <line class="fil0 str0" x1="3144871" y1="1386211" x2="3170273" y2= "1362078" />
  <path class="fil1 str0" d="M3207348 1907727l0 13411 -76626 0 0 -13411c25540,0 51087,0 76626,0z"/>
  <rect class="fil0 str0" x="2718723" y="1239599" width="38441" height="1339503"/>
  <rect class="fil0 str0" transform="matrix(9.35457E-015 1 -0.350223 2.62607E-014 3.22909E+006 1.23959E+006)" width="38441" height="1347502"/>
  <rect class="fil0 str0" x="3229089" y="1239599" width="38441" height="1339503"/>
  <rect class="fil0 str0" x="2084441" y="713939" width="557055" height="1865156"/>
  <path class="fil0 str0" d="M2059214 1751579l25229 -6206 0 391563 -25229 -6895c-3441,-945 -6606,-2972 -6606,-6606l0 -365250c0,-3634 3075,-5737 6606,-6606z"/>
  <path class="fil0 str0" d="M2109673 1751579l-25230 -6206 0 391563 25230 -6895c3440,-945 6605,-2972 6605,-6606l0 -365250c0,-3634 -3075,-5737 -6605,-6606z"/>
  <line class="fil0 str0" x1="2641497" y1="2494009" x2="2718723" y2= "2494009" />
  <line class="fil0 str0" x1="2641497" y1="2504545" x2="2718723" y2= "2504545" />
  <line class="fil0 str0" x1="3340742" y1="713939" x2="3340742" y2= "2579095" />
  <path class="fil0 str1" d="M3503330 2579068l-27 27m27 -37406l-36006 37406m36006 -74785l-71985 74785m71985 -112163l-107971 112163m107971 -149542l-143950 149542m143950 -186921l-162588 168904m162588 -206289l-162588 168911m162588 -206290l-162588 168911m162588 -206290l-162588 168911m162588 -206289l-162588 168911m154521 -197912l-154521 160533m118542 -160533l-118542 123147m82563 -123147l-82563 85769m46584 -85769l-46584 48390m10598 -48390l-10598 11011m162588 -467947l-162588 168911m162588 -206290l-162588 168911m162588 -206290l-162588 168911m162588 -206289l-162588 168911m162588 -206290l-162588 168911m162588 -206290l-162588 168904m162588 -206282l-162588 168904m162588 -206283l-162588 168904m162588 -206290l-162588 168911m162588 -206289l-162588 168911m162588 -206290l-162588 168911m162588 -206290l-162588 168911m147164 -190265l-147164 152887m111185 -152887l-111185 115501m75199 -115501l-75199 78122m39220 -78122l-39220 40744m3241 -40744l-3241 3365m162588 -393183l-162588 168904m162588 -206283l-162588 168904m162588 242269l-15424 16024m15424 -53403l-51403 53403m51403 -90782l-87389 90782m87389 -128160l-123368 128160m123368 -165546l-159347 165546m159347 -202925l-162588 168911m162588 -206289l-162588 168910m162588 -206289l-162588 168911m162588 -206290l-162588 168911m162588 -206289l-162588 168903m162588 -281046l-162588 168910m162588 -206289l-162588 168911m162588 -206290l-162588 168911m162588 -206290l-162588 168911m158886 -202442l-158886 165057m122907 -165057l-122907 127678m86921 -127678l-86921 90299m50942 -90299l-50942 52921m14963 -52921l-14963 15542m162588 1101999l-162588 168904m162588 -206283l-162588 168904m162588 242269l-8067 8378m8067 -45757l-44046 45757m44046 -83135l-80025 83135m80025 -120514l-116004 120514m116004 -157900l-151990 157900m151990 -195278l-162588 168910m162588 -206289l-162588 168911m162588 -206290l-162588 168911m162588 -206289l-162588 168910m162588 -206289l-162588 168904"/>
  <line class="fil0 str0" x1="3267529" y1="2494009" x2="3340742" y2= "2494009" />
  <line class="fil0 str0" x1="3267529" y1="2504545" x2="3340742" y2= "2504545" />
  <line class="fil0 str0" x1="3503330" y1="713939" x2="3503330" y2= "2579095" />
  <line class="fil0 str0" x1="2641497" y1="713939" x2="3340742" y2= "713939" />
  <path class="fil1 str0" d="M4251456 1826288l441415 0c4771,0 8770,-3944 8770,-8771l0 0c0,-4826 -3944,-8770 -8770,-8770l-441415 0c-24471,0 -44309,-19838 -44309,-44309 0,-24470 19838,-44308 44309,-44308l416585 0c34159,0 61850,-27691 61850,-61850 0,-34158 -27691,-61849 -61850,-61849l-416585 0c-24471,0 -44309,-19838 -44309,-44308 0,-24471 19838,-44309 44309,-44309l416585 7c34159,0 61850,-27698 61850,-61856 0,-34159 -27691,-61850 -61850,-61850l-441415 0c-4826,0 -8770,3944 -8770,8771l0 0c0,4826 3999,8770 8770,8770l441415 0c24471,0 44308,19838 44308,44309 0,24470 -19837,44315 -44308,44315l-416585 0c-34159,0 -61850,27684 -61850,61843 0,34158 27691,61849 61850,61849l416585 0c24471,0 44308,19838 44308,44308 0,24471 -19837,44309 -44308,44309l-416585 0c-34159,0 -61850,27691 -61850,61849 0,34159 27691,61850 61850,61850z"/>
  <path class="fil0 str0" d="M4309699 1378778c4475,0 8474,2082 11053,5337l-22106 0c2579,-3255 6578,-5337 11053,-5337zm11053 22878c-2579,3255 -6578,5337 -11053,5337 -4475,0 -8474,-2082 -11053,-5337l22106 0zm299319 -22878c4475,0 8475,2082 11053,5337l-22106 0c2579,-3255 6578,-5337 11053,-5337zm11053 22878c-2578,3255 -6578,5337 -11053,5337 -4475,0 -8474,-2082 -11053,-5337l22106 0z"/>
  <path class="fil0 str0" d="M4620071 1803410c4475,0 8475,2082 11053,5337l-22106 0c2579,-3255 6578,-5337 11053,-5337zm11053 22878c-2578,3255 -6578,5337 -11053,5337 -4475,0 -8474,-2082 -11053,-5337l22106 0zm-321425 -22878c4475,0 8474,2082 11053,5337l-22106 0c2579,-3255 6578,-5337 11053,-5337zm11053 22878c-2579,3255 -6578,5337 -11053,5337 -4475,0 -8474,-2082 -11053,-5337l22106 0z"/>
  <path class="fil1 str0" d="M6017411 2187678l131 0 4213 0 131 0 85666 0c2744,0 4971,-2235 4971,-4972l0 -7c0,-2737 -2255,-4971 -4971,-4971l-7454 0 -58561 0 -2537 0 -17114 0 -131 0 -4213 0 -131 0 -2537 0c-2745,0 -4979,2248 -4979,4978l90 945c448,2282 2469,4027 4889,4027l2537 0z"/>
  <rect class="fil1 str0" x="6025306" y="2150568" width="80280" height="64270"/>
  <line class="fil0 str0" x1="6623427" y1="713939" x2="6623427" y2= "2579095" />
  <path class="fil0 str6" d="M6689428 2567270l-11384 11825m11384 -49204l-47363 49204m47363 -86582l-66001 68565m66001 -105944l-66001 68566m66001 -105945l-66001 68566m66001 -105944l-66001 68565m66001 -105944l-66001 68566m66001 -105945l-66001 68566m66001 -105951l-66001 68565m66001 -105944l-66001 68566m46584 -85769l-46584 48390m10598 -48390l-10598 11011m66001 -367602l-66001 68566m66001 -105944l-66001 68565m66001 -105944l-66001 68565m66001 -105944l-66001 68566m66001 -105945l-66001 68566m66001 -105951l-66001 68565m66001 -105944l-66001 68566m66001 -105945l-66001 68566m66001 -105944l-66001 68565m66001 -105944l-66001 68566m66001 -105945l-66001 68566m66001 -105944l-66001 68565m66001 -105944l-66001 68566m66001 -105952l-66001 68566m66001 -105944l-66001 68565m39220 -78122l-39220 40744m3241 -40744l-3241 3365m66001 -292845l-66001 68566m66001 -105944l-66001 68565m66001 230471l-26781 27822m26781 -65201l-62760 65201m62760 -102579l-66001 68565m66001 -105944l-66001 68565m66001 -105944l-66001 68566m66001 -105944l-66001 68565m66001 -105951l-66001 68565m66001 -180701l-66001 68565m66001 -105944l-66001 68566m66001 -105945l-66001 68566m66001 -105944l-66001 68565m66001 -105951l-66001 68566m66001 -105944l-66001 68565m66001 -105944l-66001 68565m50942 -90299l-50942 52921m14963 -52921l-14963 15542m66001 1202338l-66001 68565m66001 -105944l-66001 68565m66001 230478l-19417 20169m19417 -57554l-55403 57554m55403 -94933l-66001 68565m66001 -105944l-66001 68566m66001 -105944l-66001 68565m66001 -105944l-66001 68565m66001 -105951l-66001 68566"/>
  <line class="fil0 str0" x1="230181" y1="2579095" x2="6689428" y2= "2579095" />
  <line class="fil0 str1" x1="6109703" y1="2579095" x2="6109703" y2= "2288216" />
  <line class="fil0 str1" x1="6194782" y1="2288216" x2="6109703" y2= "2288216" />
  <line class="fil0 str0" x1="6090962" y1="2597836" x2="6128444" y2= "2560354" />
  <line class="fil0 str0" x1="6090962" y1="2305902" x2="6128444" y2= "2268420" />
  <path class="fil4" d="M6067677 2464015l0 -5923 -10246 0 0 -6943 -5372 0 0 6943 -33538 0 0 9047c16638,11611 25602,17362 33373,21561l5537 0 0 -24685 10246 0zm-15749 18617c-6819,-3882 -15031,-9226 -28318,-18520l0 -97 28449 0 0 18617 -131 0z"/>
  <path id="1" class="fil4" d="M6068504 2428002c0,-11446 -9915,-18024 -25477,-18024 -15439,0 -25340,6612 -25340,18024 0,11411 9970,18093 25374,18093 15563,0 25443,-6613 25443,-18093zm-5350 0c0,7702 -7840,11956 -20127,11956 -12005,0 -19976,-4358 -19976,-11956 0,-7599 7902,-11888 20010,-11888 12287,0 20093,4220 20093,11888z"/>
  <path id="2" class="fil4" d="M6068504 2385714c0,-11446 -9915,-18024 -25477,-18024 -15439,0 -25340,6612 -25340,18024 0,11411 9970,18092 25374,18092 15563,0 25443,-6612 25443,-18092zm-5350 0c0,7701 -7840,11956 -20127,11956 -12005,0 -19976,-4358 -19976,-11956 0,-7599 7902,-11888 20010,-11888 12287,0 20093,4220 20093,11888z"/>
  <line class="fil0 str1" x1="4173582" y1="2579095" x2="4173582" y2= "2145100" />
  <line class="fil0 str0" x1="4154841" y1="2597836" x2="4192323" y2= "2560354" />
  <line class="fil0 str0" x1="4154841" y1="2163841" x2="4192323" y2= "2126359" />
  <line class="fil0 str1" x1="4173582" y1="2145100" x2="4072954" y2= "2145100" />
  <path class="fil4" d="M4268542 2401179c0,-10094 -7061,-17382 -16769,-17382 -9315,0 -16211,6916 -16211,16293 0,6102 3165,11515 7951,13735 0,0 0,97 0,97 -13060,-200 -20369,-4875 -20369,-13087 0,-4868 2869,-8819 7344,-10157l0 -6192c-7751,1552 -12763,7937 -12763,16280 0,12039 9715,19079 26263,19079 5310,0 9729,-793 13508,-2414 7074,-3034 11046,-8894 11046,-16252zm-5433 62c0,6310 -4999,11212 -11302,11212 -6247,0 -10873,-4799 -10873,-11308 0,-6516 4626,-11143 11053,-11143 6192,0 11122,4972 11122,11239z"/>
  <path id="1" class="fil4" d="M4268535 2360008c0,-11446 -9915,-18024 -25478,-18024 -15438,0 -25339,6613 -25339,18024 0,11412 9970,18093 25374,18093 15562,0 25443,-6612 25443,-18093zm-5351 0c0,7702 -7839,11957 -20127,11957 -12004,0 -19975,-4358 -19975,-11957 0,-7598 7902,-11887 20010,-11887 12287,0 20092,4220 20092,11887z"/>
  <path id="2" class="fil4" d="M4268535 2317720c0,-11446 -9915,-18024 -25478,-18024 -15438,0 -25339,6613 -25339,18024 0,11412 9970,18093 25374,18093 15562,0 25443,-6612 25443,-18093zm-5351 0c0,7702 -7839,11957 -20127,11957 -12004,0 -19975,-4358 -19975,-11957 0,-7598 7902,-11887 20010,-11887 12287,0 20092,4220 20092,11887z"/>
 </g>
</svg>
